<svg fill="none" height="30" viewBox="0 0 30 30" width="30" xmlns="http://www.w3.org/2000/svg"><g fill="#fff"><path clip-rule="evenodd" d="m30 15c0 8.2843-6.7157 15-15 15-8.28428 0-15-6.7157-15-15 0-8.28427 6.71572-15 15-15 8.2843 0 15 6.71573 15 15zm-2.8569.0003c0 6.7063-5.4365 12.1428-12.1428 12.1428-6.70634 0-12.14288-5.4365-12.14288-12.1428 0-6.70634 5.43654-12.14288 12.14288-12.14288 6.7063 0 12.1428 5.43654 12.1428 12.14288z" fill-rule="evenodd"/><path d="m10.3428 18.4761h-1.61444v-5.134l-1.58578.4628v-1.2215l3.05212-1.0545h.1481z"/><path d="m17.2279 13.385c0 .3372-.0844.6346-.2531.8923-.1656.2576-.3949.4644-.6878.6203.3311.1622.5938.3849.7881.668.1942.2799.2913.6123.2913.9972 0 .6203-.2149 1.1101-.6448 1.4696-.4267.3594-1.0158.5392-1.7673.5392-.7546 0-1.3501-.1798-1.7863-.5392-.4363-.3626-.6544-.8525-.6544-1.4696 0-.3722.0955-.7014.2866-.9877.191-.2863.4617-.5121.812-.6775-.2962-.1559-.5286-.3627-.6974-.6203-.1688-.2577-.2531-.5551-.2531-.8923 0-.6044.2053-1.0815.6161-1.4314s.9649-.5249 1.6622-.5249c.7037 0 1.261.175 1.6718.5249.4107.3499.6161.827.6161 1.4314zm-1.4759 3.049c0-.2863-.0748-.5058-.2245-.6585-.1465-.1559-.3407-.2338-.5827-.2338s-.4378.0779-.5875.2338c-.1497.1527-.2245.3722-.2245.6585 0 .2767.0748.4962.2245.6584.1528.1591.3519.2386.597.2386.2389 0 .4315-.0795.578-.2386.1465-.159.2197-.3785.2197-.6584zm-.812-3.7647c-.2165 0-.3821.0716-.4967.2147-.1115.14-.1672.3356-.1672.5869 0 .2481.0573.4485.1719.6012.1147.1527.2834.229.5063.229.2198 0 .3838-.0763.492-.229.1115-.1527.1672-.3531.1672-.6012s-.0573-.4438-.172-.5869c-.1114-.1431-.2786-.2147-.5015-.2147z"/><path d="m21.2281 14.5349h1.6288v1.379h-1.6288v1.8656h-1.5046v-1.8656h-1.6335v-1.379h1.6335v-1.8131h1.5046z"/></g></svg>