<svg width="45" height="36" viewBox="0 0 45 36" fill="none" xmlns="http://www.w3.org/2000/svg">
<path d="M8.64408 3.74522C9.38172 1.50995 11.47 0 13.8239 0H38.8816C42.5977 0 45.2259 3.63491 44.0614 7.16388L35.7814 32.2548C35.0437 34.4901 32.9554 36 30.6016 36H5.54388C1.82772 36 -0.800481 32.3651 0.364079 28.8361L8.64408 3.74522Z" fill="#753BBD"/>
<path d="M25.7597 21.5791C25.5535 21.579 25.3559 21.4901 25.2102 21.3319C25.0646 21.1737 24.9828 20.9593 24.9829 20.7357C24.983 20.5121 25.065 20.2977 25.2108 20.1397C25.3566 19.9817 25.5543 19.893 25.7604 19.8931C25.9666 19.8931 26.1642 19.9819 26.31 20.14C26.4557 20.2981 26.5376 20.5125 26.5376 20.7361C26.5376 20.9597 26.4557 21.1741 26.31 21.3322C26.1642 21.4903 25.9658 21.5791 25.7597 21.5791ZM17.2065 21.5791C17.1044 21.5791 17.0034 21.5572 16.9091 21.5148C16.8149 21.4724 16.7292 21.4102 16.6571 21.3319C16.5114 21.1737 16.4296 20.9593 16.4297 20.7357C16.4298 20.5121 16.5118 20.2977 16.6576 20.1397C16.8034 19.9817 17.0012 19.893 17.2073 19.8931C17.4134 19.8931 17.6111 19.9819 17.7568 20.14C17.9026 20.2981 17.9845 20.5125 17.9845 20.7361C17.9845 20.9597 17.9026 21.1741 17.7568 21.3322C17.6111 21.4903 17.4126 21.5791 17.2065 21.5791ZM26.0354 16.5235L27.5889 13.6177C27.6307 13.5374 27.6414 13.4423 27.6186 13.3535C27.5958 13.2646 27.5414 13.1892 27.4673 13.1439C27.3933 13.0985 27.3057 13.087 27.2238 13.1117C27.1419 13.1364 27.0723 13.1954 27.0306 13.2758L25.4607 16.216C24.214 15.5979 22.8585 15.2803 21.4877 15.2852C20.055 15.2852 18.7035 15.6196 17.5062 16.2076L15.9364 13.2674C15.9157 13.2276 15.888 13.1927 15.8549 13.1646C15.8217 13.1365 15.7838 13.1158 15.7433 13.1036C15.7028 13.0914 15.6604 13.0879 15.6187 13.0935C15.5769 13.099 15.5366 13.1134 15.5 13.1359C15.4634 13.1583 15.4312 13.1884 15.4053 13.2243C15.3794 13.2603 15.3602 13.3014 15.349 13.3454C15.3377 13.3893 15.3346 13.4352 15.3397 13.4805C15.3448 13.5258 15.3581 13.5696 15.3788 13.6093L16.9238 16.5143C14.2697 18.0852 12.449 21.0003 12.1818 24.4497H30.7689C30.5102 21.0087 28.6972 18.0945 26.0354 16.5235Z" fill="white"/>
</svg>
