<svg fill="none" height="44" viewBox="0 0 143 44" width="143" xmlns="http://www.w3.org/2000/svg"><path d="m142.262 38.5354c0 2.6811-2.281 4.8432-5.154 4.8432h-130.9543c-2.87255 0-5.1537-2.1621-5.1537-4.8432v-32.69213c0-2.68109 2.28115-4.84327 5.1537-4.84327h130.9543c2.873 0 5.154 2.16218 5.154 4.84327z" fill="none" stroke="#fff" stroke-linecap="round" stroke-miterlimit="8" stroke-width=".666667"/><g fill="#fff"><path d="m42.1584 17.1657 3.6314-6.521c.1689-.3478.0844-.78253-.2534-1.04337s-.76-.08695-1.0134.26084l-3.7158 6.60793c-2.7869-1.3042-5.9961-2.0867-9.3741-2.0867-3.3781 0-6.5872.6956-9.3741 2.0867l-3.7159-6.60793c-.1689-.34779-.6756-.52168-1.0134-.26084s-.5067.69557-.2534 1.13027l3.6314 6.5211c-6.2494 3.4779-10.5564 9.9989-11.23199 17.6502h43.91469c-.76-7.6513-4.9826-14.1723-11.232-17.7372zm-20.775 11.3901c-1.0135 0-1.858-.8695-1.858-1.9128 0-1.0434.8445-1.9129 1.858-1.9129 1.0134 0 1.8579.8695 1.8579 1.9129-.0845 1.0433-.8445 1.9128-1.8579 1.9128zm20.0994 0c-1.0134 0-1.858-.8695-1.858-1.9128 0-1.0434.8446-1.9129 1.858-1.9129s1.8579.8695 1.8579 1.9129c0 1.0433-.8445 1.9128-1.8579 1.9128z"/><path d="m64.5368 24.4286c-2.2317 0-4.4633 1.8381-4.4633 4.9398 0 2.872 2.0085 4.9398 4.4633 4.9398 2.0084 0 2.9011-1.3786 2.9011-1.3786v.5744c0 .3447.2231.5744.5579.5744h1.4506v-9.42h-2.1201v1.2636c.2232 0-.7811-1.4934-2.7895-1.4934zm.4463 1.953c1.7853 0 2.7896 1.6083 2.7896 2.9868 0 1.6083-1.1159 2.9869-2.7896 2.9869-1.339 0-2.678-1.1488-2.678-3.1018-.1115-1.4934 1.1159-2.8719 2.678-2.8719z"/><path d="m72.459 34.1933c-.3347 0-.5579-.2297-.5579-.5744v-8.9605h2.1201v1.1488c.4463-.6893 1.339-1.3786 2.7895-1.3786 2.3432 0 3.5706 1.8381 3.5706 3.6761v6.0886h-1.4505c-.3348 0-.6695-.3446-.6695-.6893v-4.9397c0-1.034-.5579-2.1827-1.8969-2.1827-1.4506 0-2.3432 1.3785-2.3432 2.7571v5.0546z"/><path d="m86.2951 24.4286c-2.2316 0-4.4633 1.8381-4.4633 4.9398 0 2.872 2.0085 4.9398 4.4633 4.9398 2.0085 0 2.9011-1.3786 2.9011-1.3786v.5744c0 .3447.2232.5744.5579.5744h1.4506v-14.1301h-2.1201v5.9737c.1116 0-.781-1.4934-2.7895-1.4934zm.3348 1.9529c1.7853 0 2.7895 1.6083 2.7895 2.9869 0 1.6083-1.1158 2.9868-2.7895 2.9868-1.339 0-2.678-1.1487-2.678-3.1017 0-1.4934 1.1158-2.872 2.678-2.872z"/><path d="m94.2174 34.1934c-.3348 0-.5579-.2297-.5579-.5744v-8.9605h2.12v1.6083c.3348-.919 1.1158-1.7232 2.4548-1.7232.3348 0 .7811.1149.7811.1149v2.1827s-.4464-.2298-1.0043-.2298c-1.4505 0-2.2316 1.3786-2.2316 2.7571v4.8249z"/><path d="m111.512 34.1935c-.334 0-.557-.2297-.557-.5744v-8.9605h2.12v9.5349z"/><path d="m118.988 24.4286c-2.231 0-4.463 1.8381-4.463 4.9398 0 2.872 2.009 4.9398 4.463 4.9398 2.009 0 2.902-1.3786 2.902-1.3786v.5744c0 .3447.223.5744.557.5744h1.451v-14.1301h-2.12v5.9737c.223 0-.669-1.4934-2.79-1.4934zm.447 1.9529c1.785 0 2.789 1.6083 2.789 2.9869 0 1.6083-1.115 2.9868-2.789 2.9868-1.339 0-2.678-1.1487-2.678-3.1017-.112-1.4934 1.116-2.872 2.678-2.872z"/><path d="m111.847 22.5907c.74 0 1.339-.6172 1.339-1.3786 0-.7613-.599-1.3785-1.339-1.3785-.739 0-1.339.6172-1.339 1.3785 0 .7614.6 1.3786 1.339 1.3786z"/><path d="m104.371 24.4286c-2.343 0-4.7976 1.7232-4.7976 4.9398 0 2.872 2.1196 4.9398 4.7976 4.9398 3.348 0 4.91-2.7571 4.91-4.9398 0-2.6422-2.12-4.9398-4.91-4.9398zm0 2.0678c1.563 0 2.79 1.3786 2.79 2.9869 0 1.7232-1.227 2.9868-2.79 2.9868-1.45 0-2.789-1.1488-2.789-2.9868 0-1.8381 1.339-2.9869 2.789-2.9869z"/><path d="m61.2391 16.5473v-5.8948h2.0277c.4224 0 .8448 0 1.0983.0842.3379.0843.6759.2527.8449.4211.3379.2526.5069.5895.6759 1.0105.1689.4211.2534.8422.2534 1.4316 0 .4211-.0845.8421-.169 1.179-.0844.3368-.2534.6737-.4224.8421-.169.2526-.3379.4211-.5069.5053-.169.1684-.4225.2526-.6759.3368-.2535.0842-.5914.0842-.9294.0842zm.7604-.6737h1.2673c.4224 0 .6759-.0842.9293-.0842.2535-.0842.4225-.1684.5069-.3368.169-.1684.338-.4211.4225-.7579.0845-.3369.1689-.6737.1689-1.0948 0-.5894-.0844-1.0947-.3379-1.4316-.2535-.3368-.4224-.5052-.7604-.6737-.2534-.0842-.5069-.0842-1.0138-.0842h-1.2673z"/><path d="m66.8152 14.4429c0-.8421.2535-1.4316.6759-1.7684.338-.3369.8449-.5053 1.3518-.5053.5914 0 1.0984.1684 1.4363.5895.338.421.5914.9263.5914 1.6 0 .5053-.0845 1.0105-.2534 1.2632-.169.3368-.4225.5894-.7604.7579-.338.1684-.6759.2526-1.0139.2526-.5914 0-1.0983-.1684-1.4362-.5895-.4225-.3368-.5915-.9263-.5915-1.6zm.7604 0c0 .5053.0845.9263.338 1.2632.2534.2526.5069.421.9293.421.4225 0 .6759-.1684.9294-.421.2534-.2527.3379-.6737.3379-1.2632 0-.5053-.0845-.9263-.3379-1.179-.2535-.2526-.5069-.421-.9294-.421-.4224 0-.6759.1684-.9293.421-.2535.2527-.338.5895-.338 1.179z"/><path d="m72.4759 16.5482-1.3518-4.2948h.7604l.6759 2.4422.2535.9263c0-.0842.0845-.3369.2534-.8421l.6759-2.5264h.7604l.6759 2.4422.2535.8421.2534-.8421.7604-2.4422h.6759l-1.3518 4.2948h-.8448l-.6759-2.6106-.169-.6736-.8449 3.2842z"/><path d="m77.714 16.5482v-4.2948h.5914v.5895c.3379-.5053.7604-.6737 1.3518-.6737.2534 0 .5069.0842.6759.1684.2534.0842.3379.2526.5069.3369.169.0842.169.3368.2535.5052 0 .1685.0845.3369.0845.6737v2.6106h-.7604v-2.6106c0-.3368 0-.5052-.0845-.6737-.0845-.1684-.169-.2526-.338-.3368-.0845 0-.2534 0-.4224 0-.3379 0-.5914.0842-.8449.2526-.2534.1684-.3379.5895-.3379 1.0948v2.3579z"/><path d="m82.2762 16.5483v-5.8949h.7604v5.8949z"/><path d="m83.8815 14.4429c0-.8421.2535-1.4316.6759-1.7684.338-.3369.8449-.5053 1.3518-.5053.5914 0 1.0983.1684 1.4363.5895.3379.3368.5914.9263.5914 1.6 0 .5053-.0845 1.0105-.2535 1.2632-.1689.3368-.4224.5894-.7603.7579-.338.1684-.6759.2526-1.0139.2526-.5914 0-1.0983-.1684-1.4363-.5895-.4224-.3368-.5914-.9263-.5914-1.6zm.6759 0c0 .5053.0845.9263.338 1.2632.2534.2526.5069.421.9293.421.4225 0 .6759-.1684.9294-.421.2534-.2527.3379-.6737.3379-1.2632 0-.5053-.0845-.9263-.3379-1.179-.2535-.2526-.5069-.421-.9294-.421-.4224 0-.6759.1684-.9293.421-.169.2527-.338.5895-.338 1.179z"/><path d="m91.5698 16.0429c-.2534.2527-.5069.4211-.7603.5053-.2535.0842-.507.1684-.8449.1684-.5069 0-.8449-.0842-1.0983-.3368-.2535-.2527-.338-.5053-.338-.8421 0-.2527.0845-.4211.169-.5895s.2535-.3369.3379-.4211c.169-.0842.338-.1684.507-.2526.1689-.0842.3379-.0842.6759-.0842.5914-.0842 1.0138-.1684 1.2673-.2527v-.2526c0-.3368-.0845-.5053-.2535-.5895-.169-.1684-.5069-.2526-.8449-.2526-.3379 0-.5914.0842-.7603.1684-.169.0842-.2535.3369-.338.6737l-.6759-.0842c.0845-.3368.169-.5053.338-.7579.1689-.1684.3379-.3368.6759-.4211.2534-.0842.5914-.1684.9293-.1684.338 0 .6759.0842.9294.0842.2534.0842.4224.1685.5069.3369s.169.2526.2534.5052c0 .0843.0845.3369.0845.6737v.9264c0 .6737 0 1.0947.0845 1.2631 0 .1685.0845.3369.169.5053h-.7604c-.2535-.0842-.2535-.3368-.2535-.5053zm-.0844-1.6c-.2535.0842-.6759.1684-1.1829.2527-.3379.0842-.5069.0842-.6758.1684-.169.0842-.2535.1684-.2535.2526s-.0845.2526-.0845.3369c0 .1684.0845.3368.2535.5052.1689.0842.3379.1684.6759.1684.2534 0 .5069-.0842.7603-.1684.2535-.0842.338-.2526.507-.5052.0844-.1685.0844-.4211.0844-.7579v-.2527z"/><path d="m96.1322 16.5482v-.5053c-.2535.4211-.6759.6737-1.1828.6737-.338 0-.6759-.0842-.9294-.2526s-.5069-.4211-.6759-.7579c-.169-.3369-.2535-.7579-.2535-1.179 0-.421.0845-.8421.2535-1.1789.169-.3369.3379-.5895.6759-.8421.2535-.1685.5914-.2527.9294-.2527.2534 0 .5069.0842.6759.1684.2534.0843.3379.2527.5069.4211v-2.1053h.7604v5.8948h-.7604zm-2.2812-2.1053c0 .5053.0845.9263.338 1.2632.2534.2526.5069.421.8448.421.338 0 .5915-.0842.8449-.3368.2535-.2526.338-.6737.338-1.179 0-.5894-.0845-1.0105-.338-1.2631-.2534-.2527-.5069-.4211-.8449-.4211-.3379 0-.5914.1684-.8448.4211-.2535.0842-.338.5052-.338 1.0947z"/><path d="m100.441 16.5482v-3.7053h-.6759v-.5895h.6759v-.4211c0-.2526 0-.5052.084-.6737.085-.1684.169-.3368.338-.421s.423-.1684.761-.1684c.253 0 .422 0 .676.0842l-.085.6737c-.169 0-.253-.0843-.422-.0843-.254 0-.338.0843-.507.1685-.085.0842-.169.2526-.169.5052v.4211h.845v.5053h-.845v3.7053z"/><path d="m102.3 14.4429c0-.8421.253-1.4316.676-1.7684.338-.3369.845-.5053 1.352-.5053.591 0 1.098.1684 1.436.5895.338.421.591.9263.591 1.6 0 .5053-.084 1.0105-.253 1.2632-.169.3368-.423.5894-.761.7579-.338.1684-.675.2526-1.013.2526-.592 0-1.099-.1684-1.437-.5895-.422-.3368-.591-.9263-.591-1.6zm.76 0c0 .5053.085.9263.338 1.2632.254.2526.507.421.93.421.338 0 .675-.1684.929-.421.253-.2527.338-.6737.338-1.2632 0-.5053-.085-.9263-.338-1.179-.254-.2526-.507-.421-.929-.421-.338 0-.676.1684-.93.421-.253.2527-.338.5895-.338 1.179z"/><path d="m107.115 16.5482v-4.2948h.676v.6737c.169-.3369.338-.5053.507-.5895s.338-.1684.507-.1684c.254 0 .507.0842.76.2526l-.253.6737c-.169-.0842-.338-.1684-.507-.1684s-.338.0842-.422.1684c-.085.0842-.254.2527-.254.4211-.084.2526-.084.5052-.084.8421v2.1895z"/></g></svg>