<svg width="27" height="27" viewBox="0 0 27 27" fill="none" xmlns="http://www.w3.org/2000/svg">
<path d="M0 13.5C0 6.04416 6.04416 0 13.5 0C20.9558 0 27 6.04416 27 13.5C27 20.9558 20.9558 27 13.5 27C6.04416 27 0 20.9558 0 13.5Z" fill="#753BBD"/>
<path d="M17.0007 15.3733C16.8323 15.3732 16.6708 15.3005 16.5518 15.1713C16.4327 15.042 16.3659 14.8668 16.366 14.6841C16.3661 14.5014 16.4331 14.3262 16.5522 14.1971C16.6714 14.068 16.8329 13.9955 17.0014 13.9956C17.1698 13.9956 17.3313 14.0682 17.4504 14.1974C17.5695 14.3265 17.6364 14.5017 17.6364 14.6844C17.6364 14.8671 17.5695 15.0423 17.4504 15.1715C17.3313 15.3007 17.1691 15.3733 17.0007 15.3733ZM10.0119 15.3733C9.92854 15.3732 9.84598 15.3554 9.76895 15.3207C9.69192 15.286 9.62194 15.2353 9.563 15.1713C9.44397 15.042 9.37714 14.8668 9.37723 14.6841C9.37731 14.5014 9.4443 14.3262 9.56345 14.1971C9.6826 14.068 9.84415 13.9955 10.0126 13.9956C10.181 13.9956 10.3425 14.0682 10.4616 14.1974C10.5807 14.3265 10.6476 14.5017 10.6476 14.6844C10.6476 14.8671 10.5807 15.0423 10.4616 15.1715C10.3425 15.3007 10.1804 15.3733 10.0119 15.3733ZM17.226 11.2423L18.4954 8.86797C18.5296 8.80234 18.5383 8.72468 18.5197 8.65208C18.501 8.57947 18.4566 8.51787 18.3961 8.48082C18.3356 8.44378 18.264 8.43432 18.197 8.45453C18.1301 8.47474 18.0733 8.52296 18.0392 8.58859L16.7565 10.9911C15.7377 10.486 14.6302 10.2265 13.5101 10.2305C12.3394 10.2305 11.2352 10.5037 10.2568 10.9842L8.97412 8.58173C8.95721 8.54928 8.93458 8.52076 8.9075 8.4978C8.88043 8.47483 8.84945 8.45788 8.81634 8.44791C8.78323 8.43793 8.74863 8.43513 8.71452 8.43966C8.68041 8.44419 8.64745 8.45596 8.61754 8.4743C8.58762 8.49265 8.56133 8.5172 8.54016 8.54657C8.51899 8.57594 8.50336 8.60954 8.49417 8.64546C8.48497 8.68137 8.48239 8.7189 8.48656 8.75591C8.49074 8.79291 8.50159 8.82865 8.5185 8.86111L9.78096 11.2348C7.61231 12.5184 6.12457 14.9003 5.90625 17.7188H21.0938C20.8824 14.9072 19.401 12.526 17.226 11.2423Z" fill="white"/>
</svg>
