<svg fill="none" height="42" viewBox="0 0 137 42" width="137" xmlns="http://www.w3.org/2000/svg"><rect fill="none" height="41.5" rx="4.75" width="136.5" x=".25" y=".25"/><g fill="#fff"><path d="m27.801 21.329c.0125-.9164.2698-1.815.748-2.6121.4783-.7971 1.1618-1.4668 1.9871-1.9468-.5243-.7083-1.2159-1.2913-2.0201-1.7026-.8041-.4112-1.6985-.6394-2.6121-.6665-1.949-.1935-3.8385 1.1033-4.8316 1.1033-1.0124 0-2.5416-1.084-4.1882-1.052-1.0651.0326-2.1031.3256-3.0129.8505s-1.6603 1.2638-2.1785 2.1447c-2.24466 3.6765-.5703 9.0797 1.5799 12.0515 1.0757 1.4552 2.333 3.0807 3.9782 3.0231 1.6098-.0632 2.2111-.9712 4.1543-.9712 1.9253 0 2.4894.9712 4.1679.9345 1.7274-.0265 2.8158-1.4617 3.8539-2.9307.7729-1.0368 1.3677-2.1828 1.7623-3.3955-1.0036-.4015-1.8601-1.0737-2.4626-1.9326-.6025-.859-.9244-1.8667-.9256-2.8976z"/><path d="m24.6307 12.4466c.9419-1.0697 1.4059-2.4445 1.2935-3.83265-1.439.14298-2.7682.7936-3.7228 1.82225-.4667.5025-.8242 1.0871-1.052 1.7204-.2277.6333-.3213 1.3028-.2754 1.9703.7197.007 1.4318-.1406 2.0825-.4316.6507-.2911 1.2232-.718 1.6742-1.2487z"/><path d="m48.1509 28.8381h-5.4938l-1.3193 3.6853h-2.3269l5.2036-13.6347h2.4176l5.2035 13.6347h-2.3666zm-4.9248-1.7006h4.3547l-2.1467-5.981h-.0601z"/><path d="m63.0736 27.5535c0 3.0891-1.7477 5.0739-4.3852 5.0739-.6682.033-1.3326-.1126-1.9173-.4202-.5848-.3076-1.0661-.7647-1.3889-1.319h-.05v4.9237h-2.1569v-13.2294h2.0878v1.6534h.0397c.3377-.5517.8272-1.0064 1.4163-1.3159.5892-.3095 1.2561-.462 1.9296-.4415 2.6669 0 4.4249 1.9944 4.4249 5.075zm-2.217 0c0-2.0126-1.0994-3.3358-2.7769-3.3358-1.648 0-2.7565 1.351-2.7565 3.3358 0 2.0029 1.1085 3.3443 2.7565 3.3443 1.6775 0 2.7769-1.3135 2.7769-3.3443z"/><path d="m74.6392 27.5535c0 3.0892-1.7478 5.0739-4.3853 5.0739-.6681.0331-1.3326-.1125-1.9173-.4201s-1.066-.7647-1.3889-1.3191h-.0499v4.9238h-2.1569v-13.2294h2.0878v1.6534h.0396c.3377-.5517.8272-1.0065 1.4164-1.3159.5891-.3095 1.256-.4621 1.9295-.4415 2.667 0 4.425 1.9944 4.425 5.0749zm-2.217 0c0-2.0126-1.0995-3.3357-2.7769-3.3357-1.648 0-2.7565 1.351-2.7565 3.3357 0 2.003 1.1085 3.3444 2.7565 3.3444 1.6775 0 2.7769-1.3135 2.7769-3.3444z"/><path d="m82.283 28.7244c.1598 1.3521 1.5483 2.2399 3.4457 2.2399 1.818 0 3.126-.8878 3.126-2.107 0-1.0583-.7889-1.692-2.6568-2.1262l-1.8679-.4257c-2.6466-.6048-3.8752-1.7757-3.8752-3.6757 0-2.3525 2.1671-3.9684 5.2444-3.9684 3.0455 0 5.1333 1.6159 5.2036 3.9684h-2.1774c-.1303-1.3607-1.3193-2.182-3.0568-2.182-1.7376 0-2.9266.831-2.9266 2.0405 0 .9639.7594 1.5311 2.6171 1.9654l1.588.3688c2.9571.6616 4.1857 1.7853 4.1857 3.7797 0 2.5509-2.1478 4.1485-5.564 4.1485-3.1963 0-5.3543-1.5601-5.4937-4.0263z"/><path d="m95.7878 20.2301v2.3525h1.9983v1.6159h-1.9983v5.4803c0 .8513.4001 1.2481 1.2785 1.2481.2373-.004.4741-.0197.7096-.0473v1.6063c-.395.0698-.7964.1014-1.1981.0943-2.1274 0-2.9571-.7559-2.9571-2.6838v-5.6979h-1.5279v-1.6159h1.5279v-2.3525z"/><path d="m98.9434 27.5535c0-3.1277 1.9476-5.0932 4.9836-5.0932 3.047 0 4.985 1.9654 4.985 5.0932 0 3.1363-1.928 5.0932-4.985 5.0932-3.056 0-4.9836-1.9569-4.9836-5.0932zm7.7706 0c0-2.1456-1.039-3.4119-2.787-3.4119s-2.786 1.276-2.786 3.4119c0 2.1541 1.038 3.4108 2.786 3.4108s2.787-1.2567 2.787-3.4108z"/><path d="m110.69 22.5826h2.057v1.6919h.05c.14-.5284.467-.9954.927-1.3225.46-.327 1.026-.4942 1.601-.4735.248-.0008.496.0248.739.0762v1.9086c-.314-.0907-.641-.1324-.969-.1233-.314-.0121-.626.0402-.916.1532-.29.1129-.551.2839-.764.5012-.214.2173-.375.4757-.473.7575-.098.2819-.13.5804-.095.8752v5.8963h-2.157z"/><path d="m126.009 29.6036c-.291 1.8046-2.148 3.0431-4.525 3.0431-3.057 0-4.954-1.9376-4.954-5.046 0-3.1181 1.907-5.1404 4.863-5.1404 2.907 0 4.736 1.8893 4.736 4.9034v.6991h-7.422v.1233c-.034.3659.014.7344.142 1.0812s.332.6639.6.9302c.267.2663.591.4758.951.6144.359.1387.746.2035 1.134.1899.509.0452 1.021-.0665 1.458-.3184s.777-.6306.968-1.0798zm-7.292-2.9669h5.254c.019-.3289-.034-.6581-.155-.9669-.122-.3087-.309-.5904-.551-.8273s-.534-.4239-.856-.5494c-.322-.1254-.668-.1864-1.016-.1794-.351-.0019-.699.0619-1.024.1879s-.621.3116-.869.5462c-.249.2345-.447.5134-.581.8204-.134.3071-.203.6363-.202.9685z"/><path d="m41.6933 11.3953h.926c.1594.0188.3212.0061.4751-.0372.154-.0433.2968-.1163.4195-.2144s.2225-.2192.2933-.3557c.0707-.1364.1108-.2852.1178-.4371 0-.60416-.4806-.99446-1.2955-.99446-.1634-.02159-.3296-.01201-.4889.02819-.1594.0402-.3086.11018-.4388.20584-.1303.09565-.239.21502-.3197.35107-.0807.13606-.1317.28606-.1502.44106h-1.0167c.0175-.2814.0961-.55643.2308-.80788s.3227-.47397.5522-.65372c.2296-.17974.4958-.31286.7821-.39105.2863-.0782.5865-.09981.882-.06348 1.3635 0 2.3236.72215 2.3236 1.76173.0032.3482-.12.687-.3489.9597-.229.2727-.5499.4629-.9092.5387v.0772c.4259.0179.8271.1946 1.1157.4915.2887.2968.4413.6897.4246 1.0928-.0315.2897-.1239.5706-.2716.8262-.1478.2555-.348.4806-.5889.662s-.5176.3155-.814.3944-.6064.101-.912.0651c-.3062.0395-.6176.0203-.9158-.0565s-.5769-.2097-.8197-.3906c-.2427-.1809-.4445-.4062-.5932-.6624-.1487-.2563-.2414-.5382-.2725-.8291h1.0325c.0624.6267.671 1.031 1.5687 1.031s1.4837-.4541 1.4837-1.0942c0-.6493-.552-1.0492-1.5166-1.0492h-.9554z"/><path d="m46.4411 13.7789c0-.89.7016-1.4031 1.9438-1.476l1.4157-.0772v-.4267c0-.5222-.3639-.8171-1.07-.8171-.5758 0-.9736.2-1.0892.5495h-.9986c.1054-.8492.951-1.3939 2.1365-1.3939 1.3103 0 2.0493.6171 2.0493 1.6615v3.3781h-.994v-.6948h-.0816c-.1657.2492-.3983.4524-.6741.5888-.2758.1363-.5849.201-.8957.1874-.2194.0216-.4412-.0005-.651-.065-.2098-.0644-.403-.1697-.5671-.3092-.1641-.1394-.2956-.3098-.3858-.5002-.0903-.1904-.1374-.3966-.1382-.6052zm3.3595-.4225v-.4134l-1.2763.0772c-.7198.0456-1.0462.2772-1.0462.7131 0 .445.408.7039.9691.7039.1644.0158.3305.0001.4884-.0462.1578-.0462.3042-.1219.4305-.2228.1263-.1008.2298-.2247.3044-.3641.0747-.1395.1189-.2917.1301-.4477z"/><path d="m53.5659 11.0543v4.1228h-1.0314v-4.9441h3.4412v.8213z"/><path d="m62.2264 12.7029c0 1.5708-.8399 2.5557-2.1592 2.5557-.3239.0209-.6473-.0461-.9323-.1933-.2849-.1471-.5195-.3682-.6761-.6372h-.0816v2.3928h-1.0314v-6.5879h.9929v.8171h.0771c.1594-.2784.397-.5098.6866-.6684.2897-.1587.62-.2385.9546-.2307 1.3295-.0001 2.1694.9805 2.1694 2.5519zm-1.0609 0c0-1.0444-.5225-1.6754-1.3964-1.6754-.8682 0-1.4111.6444-1.4111 1.6797 0 1.0304.5429 1.6754 1.4066 1.6754.8784 0 1.4009-.6311 1.4009-1.6797z"/><path d="m63.6001 16.9479v-.8401c.1116.0134.2241.0195.3366.0182.2197.0154.4378-.0465.6122-.1738.1745-.1273.2931-.3112.3331-.5161l.077-.2408-1.8916-4.9623h1.1232l1.3103 3.9271h.0816l1.3057-3.9271h1.0937l-1.9483 5.1484c-.4466 1.203-.9407 1.5891-2.0062 1.5891-.0861-.0001-.3309-.0092-.4273-.0226z"/><path d="m68.7856 13.7741h1.0269c.1008.4359.5327.6631 1.1368.6631.6869 0 1.1085-.2862 1.1085-.7312 0-.4766-.3786-.7039-1.1085-.7039h-.7821v-.7581h.7685c.6234 0 .9408-.2268.9408-.6401 0-.363-.3072-.6402-.9408-.6402-.5769 0-.9986.2316-1.0655.6219h-.994c.0744-.4484.3318-.8514.7169-1.1222s.8672-.3878 1.3426-.3258c1.2422 0 1.9529.5313 1.9529 1.3666.0058.2326-.073.46-.2232.6442-.1502.1843-.3627.3142-.6019.368v.0772c.2848.0347.5463.1672.7348.3723.1884.205.2907.4684.2875.7401 0 .9399-.8455 1.5617-2.1365 1.5617-1.1414 0-2.0685-.4948-2.1637-1.4936z"/><path d="m74.5712 15.1771v-4.9441h1.0223v3.4006h.0817l2.4085-3.4006h1.0224v4.9441h-1.0224v-3.4188h-.0771l-2.4131 3.4188z"/><path d="m84.738 11.0543h-1.6457v4.1228h-1.0326v-4.1228h-1.6458v-.8213h4.3241z"/><path d="m90.2942 13.8422c-.1406.4518-.4444.8426-.8586 1.104-.4141.2615-.9121.377-1.4071.3263-.3443.0086-.6865-.0538-1.0028-.1828s-.5991-.3217-.8288-.5645-.4008-.53-.5014-.8416-.1283-.6402-.0812-.963c-.0459-.3238-.0177-.6531.0827-.9657.1004-.3125.2706-.6011.4991-.846s.5099-.4406.8253-.5736c.3153-.1331.6572-.2006 1.0025-.1978 1.4542 0 2.3326.9399 2.3326 2.4925v.3404h-3.6904v.0547c-.0163.1815.0076.3642.0704.5364.0627.1722.1628.33.2939.4634s.2903.2394.4672.3111c.177.0718.3678.1077.5603.1055.2466.0279.4963-.0142.7175-.1209.2212-.1068.4039-.2733.5248-.4785zm-3.6281-1.5934h2.6386c.013-.1659-.0108-.3324-.0698-.4891-.0591-.1566-.1521-.2999-.2732-.4205-.121-.1206-.2674-.2159-.4296-.2798-.1623-.064-.337-.0951-.5127-.0914-.1785-.0023-.3556.0293-.5209.0928-.1653.0636-.3155.1579-.4417.2773-.1261.1194-.2257.2615-.2928.4179s-.1004.324-.0979.4928z"/><path d="m94.667 10.233h2.3564c1.0223 0 1.6219.49 1.6219 1.2572.0016.2434-.0852.48-.246.6701-.1607.1901-.3856.3222-.6369.3742v.0772c.3052.0183.5913.1467.7993.3588.208.2122.3219.4917.3182.781 0 .8626-.6857 1.4256-1.8327 1.4256h-2.3802zm1.0223.7489v1.2803h1.0224c.6234 0 .9215-.2268.9215-.645 0-.3854-.2596-.6353-.807-.6353zm0 1.9976v1.4487h1.223c.6098 0 .9362-.2547.9362-.7222 0-.4948-.3694-.7264-1.0654-.7264z"/></g><rect height="41.5" rx="4.75" stroke="#fff" stroke-width=".5" width="136.5" x=".25" y=".25"/></svg>