<svg width="27" height="27" viewBox="0 0 27 27" fill="none" xmlns="http://www.w3.org/2000/svg">
<path d="M0 13.5C0 6.04416 6.04416 0 13.5 0C20.9558 0 27 6.04416 27 13.5C27 20.9558 20.9558 27 13.5 27C6.04416 27 0 20.9558 0 13.5Z" fill="#753BBD"/>
<path d="M17.2998 12.7828C17.2935 11.7307 17.7852 10.9378 18.7782 10.3532C18.2228 9.58189 17.3826 9.15768 16.275 9.07592C15.2263 8.9957 14.0789 9.66827 13.6588 9.66827C13.2148 9.66827 12.1996 9.10368 11.4007 9.10368C9.75207 9.12837 8 10.3779 8 12.92C8 13.6713 8.14163 14.4472 8.42489 15.2463C8.80363 16.2983 10.169 18.876 11.5933 18.8343C12.338 18.8174 12.8647 18.3222 13.8339 18.3222C14.7744 18.3222 15.2613 18.8343 16.092 18.8343C17.529 18.8143 18.7639 16.4711 19.1235 15.416C17.1964 14.5351 17.2998 12.8367 17.2998 12.7828ZM15.6273 8.07786C16.4341 7.14923 16.3609 6.30389 16.3371 6C15.6241 6.04011 14.7998 6.47049 14.3304 6.9996C13.8132 7.56727 13.5092 8.26915 13.5745 9.06049C14.3447 9.11757 15.0481 8.73346 15.6273 8.07786Z" fill="white"/>
</svg>
