<svg width="45" height="36" viewBox="0 0 45 36" fill="none" xmlns="http://www.w3.org/2000/svg">
<path d="M8.86698 3.74522C9.60462 1.50995 11.6929 0 14.0468 0H39.1045C42.8206 0 45.4488 3.63491 44.2843 7.16388L36.0043 32.2548C35.2666 34.4901 33.1783 36 30.8245 36H5.76678C2.05062 36 -0.57758 32.3651 0.586979 28.8361L8.86698 3.74522Z" fill="#753BBD"/>
<path d="M27.1032 17.8562C27.0947 16.4402 27.7565 15.3731 29.093 14.5862C28.3455 13.5481 27.2146 12.9772 25.7239 12.8671C24.3125 12.7592 22.7683 13.6644 22.2028 13.6644C21.6053 13.6644 20.2388 12.9045 19.1636 12.9045C16.9447 12.9377 14.5866 14.6194 14.5866 18.0409C14.5866 19.052 14.7772 20.0963 15.1585 21.1718C15.6682 22.5877 17.5059 26.057 19.4228 26.001C20.4251 25.9781 21.1341 25.3117 22.4384 25.3117C23.7042 25.3117 24.3596 26.001 25.4776 26.001C27.4117 25.974 29.0737 22.8203 29.5577 21.4002C26.964 20.2147 27.1032 17.9288 27.1032 17.8562ZM24.8522 11.5239C25.9381 10.274 25.8396 9.13628 25.8075 8.72727C24.8479 8.78126 23.7385 9.3605 23.1067 10.0726C22.4106 10.8367 22.0015 11.7813 22.0893 12.8464C23.1259 12.9232 24.0726 12.4062 24.8522 11.5239Z" fill="white"/>
</svg>
