<svg fill="none" height="382" viewBox="0 0 382 382" width="382" xmlns="http://www.w3.org/2000/svg" xmlns:xlink="http://www.w3.org/1999/xlink"><clipPath id="a"><path d="m0 0h382v382h-382z"/></clipPath><g clip-path="url(#a)"><path d="m376.494 23.7468c-.324-.6116-.665-1.2053-1.025-1.799l-.27-.4317-.846-1.3133c-.234-.3598-.486-.7016-.72-1.0434l-.485-.6657c-4.19-5.7231-9.668-10.37956-15.991-13.59247-6.324-3.2129-13.315-4.8919465-20.408-4.90123h-242.234c-12.0396 0-23.5861 4.78202-32.0993 13.2941-8.5133 8.512-13.2959 20.0568-13.2959 32.0947.0047 12.0364 4.7889 23.5785 13.3012 32.0895 8.5122 8.511 20.0559 13.2946 32.094 13.2993h132.569l-213.7874 213.7394c-8.51293 8.512-13.29544033 20.057-13.29544033 32.094 0 12.038 4.78251033 23.582 13.29544033 32.094 8.5132 8.512 20.0594 13.294 32.0987 13.294s23.5855-4.782 32.0987-13.294l213.896-213.865v132.569c-.008 5.959 1.161 11.862 3.437 17.369 2.277 5.508 5.617 10.513 9.83 14.728 4.213 4.216 9.216 7.56 14.722 9.84 5.507 2.281 11.409 3.454 17.37 3.451 5.954-.007 11.849-1.186 17.347-3.471s10.493-5.63 14.698-9.845 7.539-9.216 9.811-14.719 3.438-11.4 3.431-17.353v-240.0233c.336-8.2368-1.58-16.4093-5.542-23.6389z" fill="#8d31ff"/></g></svg>