<svg fill="none" height="44" viewBox="0 0 143 44" width="143" xmlns="http://www.w3.org/2000/svg"><path d="m142 38.8024c0 2.6811-2.281 4.8433-5.154 4.8433h-130.95401c-2.87256 0-5.153709-2.1622-5.153709-4.8433v-32.69204c0-2.6811 2.281149-4.84327 5.153709-4.84327h130.95401c2.873 0 5.154 2.16217 5.154 4.84327z" stroke="#fff" stroke-linecap="round" stroke-miterlimit="8" stroke-width=".666667"/><g fill="#fff"><path clip-rule="evenodd" d="m22.5523 34.0768h6.1802c5.3456 0 9.6959-4.3503 9.6959-9.6958v-6.0518c0-5.3616-4.3343-9.6959-9.6959-9.6959h-6.1802c-5.3616 0-9.6959 4.3343-9.6959 9.6959v6.0518c0 5.3616 4.3343 9.6958 9.6959 9.6958zm6.9029-16.5023.0481.2408h3.1624l-.8508 7.8818c-.1605 1.6053-1.525 2.8253-3.1302 2.8253h-6.068c-1.6052 0-2.9537-1.22-3.1302-2.8253l-.8508-7.8818h3.1302l.0482-.2408c0-2.1029 1.7176-3.8206 3.8205-3.8206s3.8206 1.7177 3.8206 3.8206zm-5.9716 0-.0642.2408h4.4305l-.0642-.2408c0-1.1879-.9632-2.1511-2.1511-2.1511s-2.151.9632-2.151 2.1511z" fill-rule="evenodd"/><path d="m63.9678 22.1333h1.7819v9.6959h-1.7819z"/><path d="m44.3516 27.0455c0-2.729 2.0547-4.9122 4.88-4.9122 1.9745 0 3.5316 1.0114 4.3503 2.4561l-1.5732.9471c-.5939-1.0916-1.5089-1.6695-2.761-1.6695-1.7819 0-3.1303 1.4448-3.1303 3.1785 0 1.7658 1.3324 3.1784 3.1945 3.1784 1.4287 0 2.4239-.8187 2.761-2.0708h-3.05v-1.7016h4.9603v.7063c0 2.5845-1.8139 4.7998-4.6713 4.7998-2.9858 0-4.9603-2.2634-4.9603-4.9121z"/><path d="m54.8018 27.9922c0-2.5363 1.8621-3.9971 3.8045-3.9971 1.0113 0 1.9103.4174 2.456 1.0755v-.915h1.7658v7.6732h-1.7658v-.9953c-.5618.7064-1.4768 1.1558-2.4881 1.1558-1.8461-.016-3.7724-1.4929-3.7724-3.9971zm6.3408-.016c0-1.3003-.9792-2.3598-2.2955-2.3598s-2.3116 1.0274-2.3116 2.3598c0 1.3323 1.0113 2.3758 2.3116 2.3758 1.3002 0 2.2955-1.0595 2.2955-2.3758z"/><path d="m66.6484 27.9922c0-2.5363 1.8621-3.9971 3.8045-3.9971 1.0113 0 1.9103.4174 2.4561 1.0755v-.915h1.7658v7.6732h-1.7658v-.9953c-.5619.7064-1.4769 1.1558-2.4882 1.1558-1.8461-.016-3.7724-1.4929-3.7724-3.9971zm6.3569-.016c0-1.3003-.9792-2.3598-2.2955-2.3598-1.3164 0-2.3116 1.0274-2.3116 2.3598 0 1.3323 1.0113 2.3758 2.3116 2.3758 1.3002 0 2.2955-1.0595 2.2955-2.3758z"/><path d="m78.1267 27.9121-2.7771-3.7563h2.1511l1.7497 2.44 1.7337-2.44h2.0869l-2.745 3.7884 2.9215 3.8848h-2.151l-1.8782-2.5685-1.8139 2.5685h-2.1671z"/><path d="m86.5701 31.4437-3.1463-7.2879h1.8942l2.135 5.1689 2.0066-5.1689h1.8621l-4.575 11.2048h-1.7819z"/><path d="m94.9492 30.2399 1.6213-1.2842c.4816.8187 1.2361 1.3003 2.1029 1.3003.9471 0 1.4616-.61 1.4616-1.2842 0-.8187-.9639-1.0595-1.9913-1.3805-1.2842-.4014-2.7129-.899-2.7129-2.729 0-1.525 1.3324-2.729 3.1624-2.729 1.5418 0 2.4408.594 3.2108 1.3806l-1.461 1.1076c-.4014-.61-.9632-.915-1.7338-.915-.8668 0-1.3324.4655-1.3324 1.0916 0 .7545.915 1.0113 1.9585 1.3484 1.3007.4174 2.7617.9953 2.7617 2.8253 0 1.5089-1.204 2.9697-3.3075 2.9697-1.7337.0161-2.8734-.7223-3.7403-1.7016z"/><path d="m102.124 24.1561h1.317v-1.1558l1.781-1.22v2.3758h1.558v1.5892h-1.558v2.8734c0 1.3324.177 1.5411 1.558 1.5411v1.6695h-.257c-2.376 0-3.098-.7545-3.098-3.1945v-2.8734h-1.317z"/><path d="m107.246 27.9922c0-2.2313 1.75-3.9971 3.965-3.9971 2.199 0 3.965 1.7658 3.965 3.9971 0 2.2153-1.766 3.9811-3.965 3.9811-2.215 0-3.965-1.7658-3.965-3.9811zm6.196 0c0-1.2842-.979-2.3276-2.231-2.3276-1.268 0-2.231 1.0434-2.231 2.3276 0 1.2682.963 2.3116 2.231 2.3116 1.252.0161 2.231-1.0434 2.231-2.3116z"/><path d="m116.091 24.1558h1.75v1.1397c.353-.7544.995-1.1397 1.958-1.1397.546 0 1.012.1284 1.349.321l-.675 1.6695c-.256-.1766-.561-.305-1.059-.305-1.027 0-1.573.5458-1.573 1.8782v4.1095h-1.766z"/><path d="m121.355 28.0083c0-2.2313 1.734-4.0132 3.982-4.0132 2.279 0 3.948 1.6695 3.948 3.949v.6742h-6.228c.241 1.0755 1.108 1.8139 2.36 1.8139.979 0 1.75-.5297 2.119-1.3484l1.461.8347c-.675 1.2361-1.879 2.0708-3.58 2.0708-2.424-.016-4.062-1.7658-4.062-3.981zm1.782-.8829h4.351c-.257-1.0274-1.044-1.5732-2.151-1.5732-1.06.0161-1.895.6582-2.2 1.5732z"/><path d="m48.4452 14.5887h-2.44l-.4495 1.2521h-.7705l2.0226-5.5703h.8508l2.0226 5.5703h-.7705zm-.2087-.594-1.0113-2.8252-1.0114 2.8252z"/><path d="m52.2013 15.1666 1.3645-3.7403h.7866l-1.7337 4.4145h-.8508l-1.7337-4.4145h.7866z"/><path d="m55.0743 12.4373c.1766-.3371.4334-.61.7545-.7866.321-.1926.6742-.2889 1.0594-.2889.3853 0 .7224.0802 1.0113.2568.289.1606.4977.3692.6422.6261v-.8027h.7384v4.4145h-.7384v-.8187c-.1445.2569-.3532.4656-.6422.6422-.2889.1765-.626.2568-.9952.2568-.3853 0-.7384-.0963-1.0595-.289-.321-.1926-.5618-.4655-.7545-.8186-.1765-.3532-.2729-.7385-.2729-1.1879-.016-.4656.0642-.8669.2569-1.204zm3.2587.3211c-.1284-.2408-.3211-.4335-.5458-.5619-.2248-.1284-.4816-.1926-.7545-.1926s-.5297.0642-.7545.1926c-.2247.1284-.4013.3211-.5458.5619-.1284.2408-.2086.5297-.2086.8668s.0642.6261.2086.8829c.1285.2568.3211.4334.5458.5779.2248.1284.4816.1926.7545.1926s.5297-.0642.7545-.1926c.2247-.1284.4013-.3211.5458-.5779.1284-.2568.2087-.5458.2087-.8668-.0161-.3371-.0803-.6261-.2087-.8829z"/><path d="m60.5322 10.5754c-.0963-.0963-.1445-.2086-.1445-.3531s.0482-.2569.1445-.35321c.0963-.09632.2087-.14448.3531-.14448.1285 0 .2408.04816.3371.14448.0964.09631.1445.20871.1445.35321s-.0481.2568-.1445.3531c-.0963.0964-.2086.1445-.3371.1445-.1444 0-.2568-.0481-.3531-.1445zm.7063.8508v4.4145h-.7384v-4.4145z"/><path d="m63.213 9.88525v5.95555h-.7384v-5.95555z"/><path d="m64.4656 12.4373c.1766-.3371.4334-.61.7545-.7866.3211-.1926.6742-.2889 1.0595-.2889.3852 0 .7223.0802 1.0113.2568.2889.1606.4976.3692.6421.6261v-.8027h.7384v4.4145h-.7384v-.8187c-.1445.2569-.3532.4656-.6421.6422-.289.1765-.6261.2568-.9953.2568-.3852 0-.7384-.0963-1.0594-.289-.3211-.1926-.5619-.4655-.7545-.8186-.1766-.3532-.2729-.7385-.2729-1.1879-.0161-.4656.0802-.8669.2568-1.204zm3.2587.3211c-.1284-.2408-.321-.4335-.5458-.5619-.2247-.1284-.4816-.1926-.7544-.1926-.2729 0-.5298.0642-.7545.1926-.2248.1284-.4013.3211-.5458.5619-.1284.2408-.2087.5297-.2087.8668s.0642.6261.2087.8829c.1284.2568.321.4334.5458.5779.2247.1284.4816.1926.7545.1926.2728 0 .5297-.0642.7544-.1926.2248-.1284.4013-.3211.5458-.5779.1284-.2568.2087-.5458.2087-.8668 0-.3371-.0803-.6261-.2087-.8829z"/><path d="m71.304 11.6029c.2889-.1605.626-.2568.9952-.2568.4014 0 .7545.0963 1.0756.2889.321.1926.5618.4495.7544.7866.1766.3371.2729.7384.2729 1.1879s-.0963.8347-.2729 1.1879c-.1765.3532-.4334.626-.7544.8187-.3211.1926-.6742.2889-1.0595.2889s-.7224-.0802-.9953-.2568c-.2889-.1605-.4976-.3853-.6421-.6421v.8187h-.7384v-5.93955h.7384v2.35975c.1124-.2568.3371-.4655.6261-.6421zm2.1189 1.1558c-.1284-.2408-.321-.4334-.5458-.5618-.2247-.1285-.4815-.1927-.7544-.1927s-.5137.0642-.7385.1927c-.2247.1284-.4173.321-.5458.5779-.1444.2568-.2086.5457-.2086.8668 0 .3371.0642.6261.2086.8668.1445.2569.3211.4335.5458.5779.2248.1285.4816.1927.7385.1927.2729 0 .5297-.0642.7544-.1927.2248-.1284.4014-.321.5458-.5779.1285-.2568.2087-.5457.2087-.8829 0-.3371-.0642-.626-.2087-.8668z"/><path d="m76.0714 9.88525v5.95555h-.7384v-5.95555z"/><path d="m81.3213 13.9142h-3.5317c.0321.4334.1767.7705.4496 1.0113s.5939.3692.9792.3692c.321 0 .5779-.0803.7866-.2248.2087-.1444.3531-.3371.4495-.5939h.7865c-.1123.4174-.3531.7705-.7063 1.0274-.3531.2568-.7866.4013-1.3163.4013-.4174 0-.7866-.0963-1.1237-.289-.3371-.1926-.5939-.4494-.7705-.8026-.1927-.3532-.289-.7545-.289-1.2039 0-.4495.0964-.8508.2729-1.204.1766-.3371.4335-.61.7706-.7866s.7063-.2729 1.1397-.2729c.4174 0 .7866.0963 1.1076.2729.3211.1766.5619.4334.7385.7545.1765.3211.2568.6742.2568 1.0755.0321.1606.0161.305 0 .4656zm-.9151-1.3164c-.1283-.2086-.2888-.3531-.4975-.4655s-.4495-.1605-.7064-.1605c-.3692 0-.6903.1124-.9472.3531-.2568.2408-.4012.5619-.4493.9793h2.7771c0-.2729-.0483-.5137-.1767-.7064z"/><path d="m85.2542 15.6318c-.3371-.1926-.594-.4495-.7866-.8026-.1926-.3532-.2889-.7545-.2889-1.204s.0963-.8508.2889-1.1879.4655-.61.8026-.8026c.3372-.1927.7224-.2729 1.1398-.2729s.8026.0963 1.1397.2729c.3371.1926.61.4495.8027.7866.1926.3371.2889.7384.2889 1.2039 0 .4495-.0963.8508-.305 1.204-.2087.3531-.4655.61-.8187.8026-.3371.1926-.7223.2889-1.1397.2889-.4013 0-.7866-.0963-1.1237-.2889zm1.8621-.5458c.2247-.1284.4174-.305.5618-.5618.1445-.2408.2087-.5458.2087-.899 0-.3531-.0642-.6582-.2087-.8989-.1444-.2408-.321-.4335-.5457-.5458-.2248-.1285-.4656-.1766-.7385-.1766s-.5136.0642-.7384.1766c-.2247.1284-.4013.305-.5297.5458-.1284.2407-.2087.5458-.2087.8989 0 .3532.0642.6582.1926.915.1284.2408.305.4334.5298.5458.2247.1284.4655.1766.7223.1766.289.016.5298-.0482.7545-.1766z"/><path d="m93.0549 11.8438c.3371.321.4976.7865.4976 1.3965v2.6006h-.7224v-2.4882c0-.4334-.1123-.7705-.3371-1.0113-.2247-.2408-.5137-.3532-.8989-.3532-.3853 0-.6903.1285-.915.3692-.2248.2408-.3371.594-.3371 1.0595v2.44h-.7385v-4.4305h.7385v.626c.1445-.2247.3371-.4013.5939-.5297.2569-.1284.5298-.1926.8187-.1926.5297.016.9792.1926 1.3003.5137z"/></g></svg>