<svg fill="none" height="44" viewBox="0 0 143 44" width="143" xmlns="http://www.w3.org/2000/svg"><path d="m142.262 38.8024c0 2.6811-2.281 4.8432-5.154 4.8432h-130.9543c-2.87255 0-5.1537-2.1621-5.1537-4.8432v-32.69213c0-2.6811 2.28115-4.84327 5.1537-4.84327h130.9543c2.873 0 5.154 2.16217 5.154 4.84327z" fill="none" stroke="#fff" stroke-linecap="round" stroke-miterlimit="8" stroke-width=".666667"/><g fill="#fff"><path d="m53.5869 29.1185h-4.6955l-1.144 3.1418h-2.066l4.593-11.7302h1.9636l4.6955 11.7302h-2.1685zm-4.0979-1.605h3.5003l-1.2465-3.3636c-.1707-.461-.3415-.9733-.5122-1.5367-.1537.4951-.3073 1.0074-.4952 1.5196z"/><path d="m57.8726 25.6525c0-.6489-.0171-1.366-.0683-2.1343h1.8782c.0683.3585.1195.7342.1537 1.1098.7683-.8537 1.6733-1.2635 2.6636-1.2635 1.2294-.0171 2.3392.7 2.8173 1.827.3073.6317.461 1.4342.461 2.4075.0171.9049-.1537 1.7928-.5293 2.6124-.3074.6829-.8196 1.2464-1.4684 1.6391-.6659.3756-1.4001.5805-2.1685.5635-.5976 0-1.1952-.1025-1.7586-.3074v3.6027l-1.9978.1708zm5.2419 4.4735c.4098-.5464.6147-1.3489.6147-2.3904 0-.9733-.1708-1.6904-.5123-2.1173-.3073-.4268-.8195-.6659-1.3489-.6659-.3756 0-.7512.0854-1.0756.2732-.3415.2049-.666.4439-.9391.7342v4.6784c.2219.1025.461.1878.7.2391.2561.0512.5293.0853.7854.0853.7855-.017 1.3831-.2902 1.7758-.8366z"/><path d="m67.0586 25.6525c0-.6489-.0171-1.366-.0683-2.1343h1.8782c.0683.3585.1195.7342.1537 1.1098.7683-.8537 1.6733-1.2635 2.6636-1.2635 1.2293-.0171 2.3392.7 2.8173 1.827.3073.6317.461 1.4342.461 2.4075.017.9049-.1537 1.7928-.5293 2.6124-.3074.6829-.8196 1.2464-1.4684 1.6391-.6659.3756-1.4001.5805-2.1685.5635-.5976 0-1.1952-.1025-1.7587-.3074v3.6027l-1.9977.1708zm5.2419 4.4735c.4097-.5464.6146-1.3489.6146-2.3904 0-.9733-.1707-1.6904-.5122-2.1173-.3073-.4268-.8196-.6659-1.3489-.6659-.3756 0-.7513.0854-1.0757.2732-.3415.2049-.6659.4439-.9391.7342v4.6784c.222.1025.461.1878.7001.2391.2561.0512.5293.0853.7854.0853.7854-.017 1.366-.2902 1.7758-.8366z"/><path d="m78.7205 31.6968c-.8537-.461-1.5537-1.1782-1.9977-2.049-.461-.8878-.7-1.9464-.7-3.1587 0-1.3148.2732-2.4417.8025-3.3466.5122-.8879 1.2635-1.605 2.1855-2.066.9562-.4781 2.0148-.7001 3.0905-.7001.6488 0 1.2976.0683 1.9294.222.5976.1366 1.1611.3415 1.7074.6147l-.5122 1.5367c-.9391-.4781-1.9806-.7342-3.0393-.7684-.7512-.0171-1.4854.1707-2.1343.5293-.6146.3586-1.1098.8879-1.4342 1.5367-.3586.7684-.5293 1.605-.5122 2.4417-.0171.7683.1195 1.5196.3927 2.2196.239.6318.6829 1.1611 1.2293 1.5367.5635.3757 1.2806.5635 2.1343.5635.3927 0 .7855-.0341 1.1611-.1024s.7342-.1537 1.0928-.2903v-2.3734h-2.6807v-1.5537h4.6442v4.9345c-.6829.3073-1.383.5634-2.1001.7171-.7172.1708-1.4514.2561-2.2026.2561-1.1782.0171-2.1856-.2219-3.0564-.7z"/><path d="m93.285 32.2432c-.0683-.3756-.1195-.7684-.1366-1.1611-.3415.3927-.7513.7001-1.1952.9391-.5122.2561-1.0928.3927-1.6733.3927-.4781 0-.9391-.1024-1.3659-.2902-.4098-.1878-.7513-.4952-.9904-.8879-.2561-.4439-.3756-.9391-.3585-1.4513-.0342-.7855.3073-1.5367.922-2.0319.6147-.5122 1.6221-.7513 3.0563-.7513.5293 0 1.0586.0342 1.588.1196v-.1708c0-.7683-.1708-1.3147-.4952-1.6221-.3244-.3073-.8025-.478-1.4172-.478-.461 0-.922.0683-1.3659.1878-.444.1024-.8708.2561-1.2806.4439l-.3074-1.4513c.461-.1878.9221-.3415 1.4001-.444.5976-.1366 1.2294-.2049 1.8441-.2049.6659-.017 1.3147.1025 1.9294.3415.5293.2391.9732.6489 1.2294 1.1782.2902.5634.4439 1.3147.4439 2.2538v3.4661c0 .3586.0171.905.0683 1.6392zm-1.1952-1.605c.3927-.1707.7342-.4269 1.0245-.7513v-1.6221c-.444-.0512-.8879-.0853-1.3318-.0853-.8196 0-1.4001.1366-1.7075.3927-.3073.2732-.4951.6659-.4781 1.0757 0 .4268.1196.7513.3415.9561.2561.222.5976.3245.9391.3074.4098.0171.8367-.0854 1.2123-.2732z"/><path d="m96.8536 30.1601v-10.313l1.9977-.1537v10.1252c0 .3756.0683.6317.1878.7854.1537.1707.3756.2561.5976.239.1708-.017.3586-.0341.5293-.0853l.239 1.4342c-.222.0854-.4609.1537-.7.1879-.2561.0512-.5122.0682-.7683.0682-1.4001-.0341-2.0831-.7854-2.0831-2.2879z"/><path d="m101.822 30.1601v-10.313l1.998-.1537v10.1252c0 .3756.068.6317.188.7854.153.1707.375.2561.597.239.171-.017.359-.0341.53-.0853l.239 1.4342c-.222.0854-.461.1537-.7.1879-.256.0512-.513.0682-.769.0682-1.383-.0341-2.083-.7854-2.083-2.2879z"/><path d="m113.655 28.1453h-5.72c.085 1.8269.956 2.7489 2.612 2.7489.427 0 .854-.0512 1.264-.1536.427-.1025.836-.2391 1.229-.3927l.444 1.3659c-1.024.4781-2.151.7342-3.295.7171-.922 0-1.708-.1707-2.34-.5293-.631-.3415-1.126-.8708-1.434-1.5196-.341-.7513-.512-1.5538-.478-2.3733-.017-.8538.154-1.7075.512-2.4929.308-.6659.803-1.2123 1.418-1.5879.631-.3757 1.366-.5635 2.1-.5464.734-.0342 1.451.1707 2.066.5805.546.3756.973.922 1.229 1.5367.273.683.41 1.4001.393 2.1343zm-1.947-1.2806c-.034-.7001-.205-1.2123-.529-1.5709-.324-.3585-.785-.5464-1.246-.5293-.479-.0171-.94.1708-1.264.5293-.341.3586-.563.8708-.666 1.5538z"/><path d="m115.26 25.7207c0-.478-.017-1.2122-.068-2.1855h1.861c.034.2391.068.5293.085.8708.034.3415.051.6147.068.8196.205-.3415.427-.6659.683-.9733.222-.2561.496-.478.786-.6317.307-.1708.666-.2561 1.024-.2391.273 0 .53.0342.786.1025l-.256 1.7245c-.205-.0683-.427-.0854-.649-.0854-.444-.017-.871.1196-1.23.3586-.444.3244-.819.7342-1.127 1.1781v5.6005h-1.997v-6.5396z"/><path d="m121.697 35.8288c-.239-.0342-.478-.1025-.717-.1708l.358-1.4513c.137.0341.308.0683.513.1024.187.0342.392.0513.58.0513.888 0 1.554-.5635 1.998-1.7075l.136-.3244-3.227-8.8104h2.152l1.622 4.9174c.205.6318.375 1.2806.512 1.9294.154-.6317.324-1.2635.529-1.8952l1.64-4.9516h2.014l-3.21 8.8445c-.239.7172-.563 1.4001-.973 2.0148-.307.4781-.734.8708-1.246 1.144-.53.2561-1.127.3927-1.725.3757-.324 0-.632-.0171-.956-.0683z"/><path d="m45.6814 9.12488h3.6027l-.1024.8708h-2.4417v1.69032h2.3051v.8196h-2.3051v1.8611h2.5783l-.0854.8708h-3.5515z"/><path d="m51.7599 12.1126-1.8953-2.98803h1.1952l1.2806 2.20263 1.3489-2.20263h1.161l-1.8781 2.95393 2.0318 3.1587h-1.2123l-1.4513-2.4075-1.4684 2.4075h-1.1611z"/><path d="m55.8065 9.12457h1.6392c.7683 0 1.3659.15367 1.7757.47809.4098.30734.6147.76834.6147 1.36594.0171.3757-.0854.7342-.2732 1.0586-.1878.3074-.4439.5464-.7684.7001-.3585.1707-.7512.2561-1.144.239-.2731 0-.5463-.0341-.8025-.0853v2.3562h-1.0586zm2.6465 2.73193c.2391-.222.3586-.5464.3415-.8708 0-.3756-.1195-.6488-.3415-.8196-.2219-.17073-.5634-.2561-1.0073-.2561h-.5806v2.1685c.2049.0341.4098.0512.6147.0683.4269.017.7513-.0854.9732-.2903z"/><path d="m60.8948 9.12457h1.0586v5.20773h2.527l-.0854.9049h-3.5002z"/><path d="m66.0854 14.9469c-.4439-.2561-.8025-.6317-1.0245-1.0757-.239-.4951-.3756-1.0586-.3585-1.6221-.0171-.5805.1195-1.161.3756-1.6903.239-.4781.6147-.87082 1.0928-1.12694.5122-.27319 1.0927-.40979 1.6733-.39271.5634-.01708 1.1098.11952 1.5879.37564.4439.25611.7854.61471 1.0245 1.07571.239.4951.3585 1.0586.3585 1.605.0171.5976-.1195 1.1781-.3756 1.7074-.2391.4781-.6318.8708-1.0928 1.1269-.5122.2732-1.0757.4098-1.6562.3928-.5635.017-1.1098-.1196-1.605-.3757zm2.749-.7513c.2902-.2049.5293-.478.6659-.8195.1537-.3757.222-.7855.222-1.1952 0-.3928-.0513-.8025-.1879-1.1782-.1195-.3244-.3415-.6147-.6146-.8196-.3245-.22193-.7172-.32438-1.0928-.3073-.3927-.01708-.7684.10244-1.0928.3073-.2902.2049-.5293.4952-.6659.8367-.1537.3586-.2219.7513-.2219 1.144 0 .4098.0682.8025.2048 1.1952.1366.3415.3586.6147.6489.8366.3244.2049.7.3245 1.0757.3074.3585 0 .7342-.1025 1.0586-.3074z"/><path d="m71.9931 9.12457h1.9123c.7001 0 1.2294.1366 1.588.42686.3585.29027.5634.73417.5463 1.19517 0 .2903-.0683.5977-.1878.8538-.1195.239-.2732.4439-.4781.5976-.1707.1536-.3756.2561-.5976.3415l1.8782 2.6977h-1.2293l-1.588-2.4245h-.7854v2.4245h-1.0586zm1.6562 2.88563c.2391 0 .461-.0513.683-.1537.1878-.1025.3586-.2391.461-.4269.1195-.1878.1708-.4098.1708-.6317.017-.2561-.0854-.5123-.2903-.6659-.2561-.1537-.5464-.23908-.8537-.20493h-.7684v2.08313z"/><path d="m77.4911 9.12457h3.6028l-.1025.8708h-2.4416v1.69033h2.305v.8196h-2.305v1.8611h2.5782l-.0854.8708h-3.5515z"/><path d="m85.0039 9.12457h1.0586v6.11263h-1.0586z"/><path d="m88.8627 10.0124h-1.8952l.0853-.88783h4.7638l-.1024.88783h-1.8099v5.2419h-1.0586z"/><path d="m96.3925 14.9469c-.4439-.2561-.8025-.6317-1.0245-1.0757-.239-.4951-.3756-1.0586-.3585-1.6221-.0171-.5805.1195-1.161.3756-1.6903.2391-.4781.6147-.87082 1.0928-1.12694.5122-.27319 1.0928-.40979 1.6733-.39271.5635-.01708 1.1098.11952 1.5879.37564.4439.25611.7859.61471 1.0249 1.07571.239.4951.358 1.0586.358 1.605.017.5976-.119 1.1781-.375 1.7074-.24.4781-.632.8708-1.0933 1.1269-.5122.2732-1.0756.4098-1.6562.3928-.5634.017-1.1098-.1196-1.605-.3757zm2.749-.7513c.2903-.2049.5293-.478.6659-.8195.1537-.3757.2216-.7855.2216-1.1952 0-.3928-.0508-.8025-.1874-1.1782-.1196-.3244-.3415-.6147-.6147-.8196-.3244-.22193-.7171-.32438-1.0928-.3073-.3927-.01708-.7683.10244-1.0927.3073-.2903.2049-.5294.4952-.666.8367-.1536.3586-.2219.7513-.2219 1.144 0 .4098.0683.8025.2049 1.1952.1366.3415.3585.6147.6488.8366.3244.2049.7001.3245 1.0757.3074.3586 0 .7342-.1025 1.0586-.3074z"/><path d="m102.3 9.12457h1.213l3.022 4.74673c-.017-.444-.034-.8708-.034-1.2465v-3.50023h.973v6.11263h-1.178l-3.074-4.815c.034.5464.052 1.0245.052 1.4514v3.3636h-.974z"/><path d="m19.5576 9.07306c-5.3101 0-7.2566 1.94644-7.2566 7.25664v11.2862c0 5.3102 1.9465 7.2567 7.2566 7.2567h11.2862c5.3102 0 7.2567-1.9465 7.2567-7.2567v-11.2862c0-5.3102-1.9465-7.25664-7.2567-7.25664z"/></g><g fill="#000"><path d="m17.4063 21.9814h.6829v3.3807h-.6829v-1.3659h-1.5367v1.3659h-.683v-3.3807h.683v1.3659h1.5537zm3.8588 1.9294c0 .5464-.2732.8366-.7684.8366-.4951 0-.7683-.3073-.7683-.8708v-1.9123h-.683v1.9294c0 .9562.5293 1.4855 1.4513 1.4855.9221 0 1.4684-.5464 1.4684-1.5196v-1.8953h-.6829zm7.9225.3927-.7683-2.3221h-.5635l-.7683 2.3221-.7513-2.3221h-.7342l1.1781 3.3807h.5635l.7684-2.2197.7683 2.2197h.5805l1.1782-3.3807h-.7172zm2.6807-.4098h1.2465v-.6147h-1.2465v-.683h1.8099v-.6146h-2.4758v3.3636h2.5441v-.6146h-1.8782zm2.6807 1.4513h.683v-3.3636h-.683zm-11.235-.7-.3073.7h-.7001l1.4855-3.3636h.5976l1.4855 3.3636h-.7171l-.3074-.7zm.2561-.5976h1.0416l-.5122-1.2123z"/><path d="m25.2092 17.6786c-2.3734 0-4.2857-1.9295-4.3028-4.3028h.6147c0 2.0319 1.6562 3.6881 3.6881 3.6881s3.6881-1.6562 3.6881-3.6881h.6147c-.0171 2.3904-1.9295 4.3028-4.3028 4.3028z"/></g></svg>