<svg fill="none" height="17" viewBox="0 0 81 17" width="81" xmlns="http://www.w3.org/2000/svg" xmlns:xlink="http://www.w3.org/1999/xlink"><clipPath id="a"><path d="m0 .387756h81v16.5306h-81z"/></clipPath><g clip-path="url(#a)" fill="#fff"><path d="m15.3905.387756c-4.719 0-8.47278 3.714164-8.47278 8.265304 0 4.60344 3.80738 8.26534 8.47278 8.26534s8.4728-3.7142 8.4728-8.26534c.0536-4.55114-3.8074-8.265304-8.4728-8.265304zm0 11.351744c-1.716 0-3.1639-1.4124-3.1639-3.08644 0-1.67399 1.4479-3.08639 3.1639-3.08639s3.1639 1.4124 3.1639 3.08639c0 1.67404-1.3942 3.08644-3.1639 3.08644z"/><path d="m6.91767 2.79419v12.03181h-3.05665l-3.86102-12.03181z"/><path d="m78.4002 4.93893-1.8769 4.49884c-.0536.05231-.0536.15691-.0536.20925l-.0539.1046-.0535-.1046c0-.05234-.0536-.15694-.0536-.20925l-1.8768-4.49884h-2.4131l3.1637 7.68987-1.3404 2.9295h2.4131l4.4509-10.61937z"/><path d="m60.5964 5.35741c-.4291-.31389-.9652-.52313-1.6088-.57543-1.0723-.10464-2.0911.26154-2.7883.94161v-.83698h-2.1988v7.68989h2.1988v-4.02806c0-.88931.1607-1.15086.3217-1.3601.2681-.41849.7507-.62774 1.3407-.62774.5897 0 1.1259.26155 1.3943.68004.1606.31388.2142.73237.2142.94162v4.39424h2.1989v-4.65579c0-1.2032-.3756-2.04018-1.0727-2.5633z"/><path d="m49.8176 4.99125c-1.0723-.36619-2.252-.31385-3.3247.15694-.6971.31388-1.3404.83698-1.7159 1.51705-.3755.57543-.5362 1.3078-.5362 2.09248 0 .78467.1607 1.51708.5362 2.09248s.8581 1.0986 1.5014 1.4124c.6436.3139 1.3943.5232 2.0914.5232.3755 0 .7507-.0524 1.1262-.157.3216-.1046.6436-.2092.9652-.3662.6436-.3662 1.1798-.837 1.5018-1.4124.3751-.5754.5361-1.30781.5361-2.09248.0536-1.7263-.9652-3.19104-2.6815-3.76647zm.6436 3.8711c-.0535.68004-.268 1.25545-.6971 1.62165-.3216.2616-.8042.4185-1.3943.4708-.5897 0-1.0188-.1569-1.3943-.4708-.4287-.3662-.6432-.94161-.6971-1.62165-.0536-.78467.2684-1.41244.8581-1.83093.3216-.20924.7507-.36618 1.1798-.36618.4826 0 .8581.15694 1.2333.36618.6436.36619.9652 1.04626.9116 1.83093z"/><path d="m41.7204 5.35738c-.4291-.31385-.9652-.52309-1.6088-.57543-.1071 0-.2681 0-.3752 0-.8581 0-1.6088.36619-2.2524 1.09856l-.1071.15694h-.2145c-.161-.26155-.3755-.47079-.5901-.62773-.429-.31388-.9652-.52313-1.6088-.57543-1.0188-.10464-1.8231.20924-2.5202.94162v-.78468h-2.1987v7.68987h2.1987v-4.02804-.10464c0-.83698.1072-1.04622.2681-1.30777.2681-.41852.7507-.68007 1.2869-.62777.5365 0 1.0191.26158 1.2872.68007.2145.31385.2145.68004.2145 1.04622v4.28963h2.1985v-4.13268c0-.78468.1071-1.04623.2681-1.30781.2681-.41849.7507-.62773 1.2872-.62773.5362 0 .9652.26155 1.2333.68007.161.26155.2145.57543.2145.78467v.26155 4.28963h2.1986v-4.70812c0-.41849-.0536-.83701-.161-1.20319-.2142-.5231-.5362-.99392-1.0188-1.30781z"/><path d="m69.9273 10.2748c-.3216.3139-1.0727.8893-2.0914.9416-.8581.0523-1.5014-.2092-1.984-.68-.2145-.2093-.3755-.5232-.4826-.83705h6.0594v-.0523c.0539-.31388.1074-.57543.1074-.88931 0-.26155-.0535-.62774-.161-1.09856-.268-.88932-.8042-1.56935-1.5013-2.09248-.8046-.57543-1.5553-.73237-1.7698-.73237-1.555-.26155-3.3248.41849-4.2364 1.83093-.6436.99392-.5898 1.98784-.5898 2.30172 0 .36619.0536 1.51702 1.0188 2.56332 1.1262 1.2031 2.6812 1.2555 3.1638 1.3078 2.1453.0523 3.5931-1.2555 3.9147-1.5171zm-3.7538-3.24335c.3216-.20925.6972-.36619 1.1798-.36619s.8581.15694 1.2333.36619c.3219.26154.59.57543.7507.94161h-3.8609c.0535-.36618.3216-.73237.6971-.94161z"/></g></svg>