<svg fill="none" height="22" viewBox="0 0 34 22" width="34" xmlns="http://www.w3.org/2000/svg"><g fill="#fff"><path d="m20.0623 12.7645c-.0829-.1759-.1658-.4398-.2487-.7036v-.5278c0-.5277.1658-1.0555.3316-1.5832.4145-.96753 1.9897-1.40731 3.0674-.79161 0 .35182-.0829.52774-.1658.87961-.4974-.26391-1.2436-.35187-1.6581-.088-.829.5277-1.0777 2.4628.0829 2.7267.4146.0879.8291 0 1.2436-.1759-.0829.3518-.0829.5277-.2487.9675-.8291.3518-2.0726 0-2.4042-.7037zm12.4353-3.95804c-.3316 1.58324-.5803 3.07854-.7461 4.66174h-1.0777v-.4398c-.4974.5277-1.3265.6157-1.8239.0879-.2487-.2638-.4145-.5277-.4145-.8795-.1658-1.3194.5803-2.63873 1.8239-2.63873.4145 0 .5803.26387.9119.52773.0829-.43977.1658-.96751.2487-1.4073zm-2.7357 3.87014c1.1606.4397 1.658-2.199.4974-2.111-.7462.088-1.2436 1.7591-.4974 2.111zm-26.03131-3.78218c0 .08795.08291 2.99058.08291 3.07848.0829 0 .0829 0 .0829-.0879.41451-.9676.74612-1.9351 1.16063-2.99058.49741-.08796 1.07772 0 1.57514 0-.33161 1.49528-.58032 3.07848-.82902 4.66168h-.91193c.24871-1.1434.41451-2.5507.58032-3.78211-.24871.26391-1.16063 2.81461-1.57514 3.78211h-.82902c-.0829-1.3193-.16581-2.5507-.24871-3.78211-.33161 1.23141-.49741 2.55071-.66322 3.78211h-.82902c.33161-1.4952.66322-3.0785.82902-4.66168.49742-.08796 1.07773 0 1.57514 0zm10.11401.87957h.5804c-.0829.35181-.0829.52771-.0829.87961-.2487 0-.4975-.088-.5804.0879-.0829.3518-.2487 1.1435-.2487 1.4073 0 .2639-.0829.4398.0829.6157.1658.088.4146.088.5804 0-.0829.3518-.0829.5278-.1658.8796-.8291.1759-1.5752.0879-1.4923-.8796.0829-1.1434.5803-2.7266.5803-3.78213h.9949c-.1658.26387-.2488.70366-.2488.79162zm-5.13988 1.31931c.1658-.8795-1.24353-.6157-1.82385-.4397 0-.2639.08291-.4398.16581-.7037.99482-.35183 2.65286-.43978 2.56996.9675-.0829.7916-.41451 1.7592-.33161 2.7267h-.91192c0-.1759 0-.2639.0829-.3518-.1658 0-.33161.2638-.58031.3518-.66322.2639-1.49224 0-1.49224-.7916v-.3518c.0829-.8796.74612-1.2314 1.57514-1.2314.0829-.176.66322-.176.74612-.176zm-.66322.7037c-.49741-.088-.99482.3518-.82902.7916.16581.2639.66322.2639.91192.088.24871-.2639.33161-.5278.33161-.8796h-.1658c0-.088-.16581-.088-.24871 0z"/><path d="m14.2592 11.4452c0-1.3194 1.4093-2.28691 2.5699-1.67122.5803.26392.7461 1.23142.4974 2.02302h-2.1554l-.0829.088c.0829.5277.3316.7916.9119.7916h.2487c.3316 0 .6632-.088.9119-.2639 0 .2639-.0829.6157-.0829.8796-1.1606.4397-2.8186.1759-2.8186-1.2314-.0829-.088 0-.3519 0-.6157zm2.2383-.2639c.0829-.9675-1.3264-.8796-1.2435 0zm-6.54925-.4398c.08295-.96751 1.16065-1.14343 2.23835-.96752h.2487c-.0829.26392-.0829.52772-.1658.79162h-.9948c-.1658 0-.3316.088-.3316.2639 0 .4398.9119.5277 1.1606.8795.0829.176.1658.2639.1658.4398.0829.9675-.4145 1.4073-1.3264 1.4073h-.5803c-.2487 0-.49745 0-.74616-.0879 0-.088 0-.6157.0829-.7916.41456.0879.82906.1759 1.32646.0879.1658 0 .3316-.1759.3316-.3518 0-.4398-.7461-.4398-1.0777-.7916-.0829-.1759-.1658-.2639-.2487-.4398zm16.00015 2.7267h-.912v-.3519c-.3316.3519-1.0777.6157-1.5751.3519-.3316-.1759-.4974-.5278-.4974-.8796 0-1.2314 1.1606-1.4953 2.3212-1.4073.1658-.9675-1.1606-.6157-1.7409-.5277 0-.2639.0829-.5278.1658-.79166.9948-.35183 2.4871-.35183 2.57.79166 0 .4397-.1658.9675-.2487 1.4073-.0829.4397-.1659.9675-.0829 1.4073zm-2.0726-.9676c0 .3519.4145.4398.829.3519.3316-.1759.4974-.5278.4974-.9675-.5803-.088-1.4093 0-1.3264.6156zm-5.886-2.72662c.1658 0 .6632.00001.9119.08796 0 .17596-.0829.35186 0 .52776.1658-.088.2487-.3518.4145-.4398.1658-.08796.4145-.08796.6632-.08796-.1658.35186-.2487.70366-.3316 1.05546-.4974-.0879-.7461.1759-.9119.7037-.0829.2639-.3316 1.935-.3316 2.023h-1.0778c.3316-1.4073.4974-2.6387.6633-3.87012zm9.7824 0c0 .17592-.0829.35182-.0829.52772.3316-.2638.5803-.61567 1.1606-.52772-.0829.35182-.2487.70362-.3316 1.05552-1.2435-.088-1.1606 2.2868-1.2435 2.7266h-.9948c.2487-1.2314.4974-2.4628.6632-3.78212zm-27.35769.52772v.3519c0-.176-.082902-.3519 0-.3519zm7.62699 1.4953c.0829-.088.16581-.088.33161 0z"/><path d="m10.197 21.8241c-5.63738 0-10.197-4.8376-10.197-10.8187 0-5.98109 4.55961-10.906677 10.2799-10.906677 4.3938 0 8.2902 2.990537 9.6995 7.476337l-.7461.26387c-1.6581-5.27741-6.9638-8.092035-11.93792-6.3329-4.97412 1.75914-7.626988 7.38839-5.96895 12.66577 1.65805 5.2774 6.96378 8.0921 11.93787 6.3329 2.7358-.9675 4.8913-3.1664 5.8861-6.069l.7461.2639c-1.5751 4.3099-5.3886 7.1245-9.6995 7.1245z"/><path d="m23.5442 22c-4.3938 0-8.2902-2.9026-9.7825-7.2125l.7462-.2638c1.8238 5.2774 7.3783 8.004 12.3524 6.069 4.9741-1.9351 7.5441-7.8282 5.7202-13.10559-1.8238-5.27742-7.3783-8.004086-12.3524-6.06903-2.8187 1.05548-4.9741 3.51827-5.886 6.59677l-.7462-.26387c.6633-2.19893 1.9897-4.13398 3.7306-5.54129 4.6426-3.69419 11.1089-2.638709 14.5908 2.28688 3.4819 4.92559 2.4871 11.78623-2.1555 15.48043-1.7409 1.2314-3.9793 1.935-6.2176 2.023z"/></g></svg>