<svg fill="none" height="25" viewBox="0 0 53 25" width="53" xmlns="http://www.w3.org/2000/svg"><path d="m4.38599 21.015c-2.24035-2.2935-3.488956-5.3129-3.488956-8.5421 0-3.17386 1.247816-6.19364 3.488996-8.48798 2.23608-2.23497 5.30677-3.48492 8.48387-3.48492h27.115c3.1771 0 6.2478 1.24995 8.4839 3.48493 2.2412 2.29434 3.489 5.31411 3.489 8.48797 0 3.2292-1.2486 6.2486-3.489 8.5421-2.2361 2.235-5.3068 3.485-8.4839 3.485h-27.115c-3.17712 0-6.24783-1.25-8.48391-3.485z" stroke="#fff"/><g fill="#fff"><path clip-rule="evenodd" d="m25.6682 13.6117v2.6031h-1.5184v-8.35143h2.7657c2.6573 0 3.7961.92191 3.7961 2.81993 0 1.9523-1.3557 2.9284-3.7961 2.9284zm0-4.39258v3.03688h1.41c1.41 0 2.115-.4338 2.115-1.5727 0-1.03034-.6508-1.46418-2.0608-1.46418z" fill-rule="evenodd"/><path clip-rule="evenodd" d="m31.4708 10.6834c.4338-.3254 1.1388-.5423 2.1692-.5423 1.7353 0 2.603.5965 2.603 2.1691v3.9046h-1.3557v-1.0846c-.2712.705-.9762 1.1931-1.9523 1.1931-1.1931 0-1.8981-.705-1.8981-1.8439 0-1.3557.9762-1.7353 2.4404-1.7353h1.3557v-.2712c0-.8676-.4338-1.1388-1.193-1.1388-1.1389 0-1.7354.4339-2.1692 1.0846zm3.3622 3.4707v-.4881h-1.193c-.8135 0-1.1931.1627-1.1931.6508 0 .488.3254.7592.9219.7592.9762 0 1.41-.5423 1.4642-.9219z" fill-rule="evenodd"/><path d="m36.8938 10.2495h1.5727l1.6269 4.1215 1.3557-4.1215h1.4642l-2.3861 6.616c-.5423 1.41-1.0846 1.7354-1.8438 1.7354-.3796 0-.7592-.1085-.9762-.2169v-1.3015c.217.1626.4881.2711.7593.2711.4338 0 .705-.2711.9761-1.0846z"/><path d="m12.9784 12.2018 5.0434-3.74187c.2892.39769.5423.83153.7592 1.30152l-5.8026 4.28415-2.4404-1.5184v-1.8438z"/><path d="m19.2148 11.2256c.0723.3977.1084.7773.1084 1.1389 0 1.4642-.488 2.8741-1.4099 4.013-.8677 1.1388-2.115 1.898-3.525 2.2234s-2.9284.1627-4.2299-.4881c-1.30153-.5965-2.3319-1.6811-2.98266-2.9826-.59653-1.3015-.75921-2.7657-.43384-4.1757.32538-1.40999 1.13883-2.71151 2.27766-3.57919 1.13884-.92191 2.49454-1.40998 3.95874-1.40998 1.4643.05423 2.8742.5423 3.9588 1.46421l-1.193.86768c-.9219-.59653-2.0065-.86768-3.0911-.81345-1.1389.05423-2.1692.48807-2.98268 1.24729-.81345.70499-1.35575 1.73534-1.51844 2.81994-.21692 1.0304-.05423 2.1692.48807 3.1454.48807.9761 1.30152 1.7353 2.33185 2.1691.9762.4881 2.115.5423 3.1454.2712 1.0846-.2169 2.0065-.8677 2.7115-1.7354.6507-.8676 1.0303-1.898 1.0303-3.0368v-.1085z"/></g></svg>