<svg fill="none" height="11" viewBox="0 0 40 11" width="40" xmlns="http://www.w3.org/2000/svg" xmlns:xlink="http://www.w3.org/1999/xlink"><linearGradient id="a" gradientUnits="userSpaceOnUse" x1="39.3008" x2="27.9008" y1="14.2" y2="14.2"><stop offset="0" stop-color="#fff"/><stop offset="1" stop-color="#fff"/></linearGradient><clipPath id="b"><path d="m0 0h39.3008v11h-39.3008z"/></clipPath><g clip-path="url(#b)"><path d="m10.5 0h3.5v11h-3.5v-6.5h-.2l-2 6.5h-2.5l-2-6.5h-.3v6.5h-3.5v-11h3.5c.9 0 1.7.600002 1.9 1.4l1.5 5.1h.2l1.5-5.1c.2-.799998 1-1.4 1.9-1.4zm17.5 5.2h11.1c-.6 1.5-2.2 2.5-4 2.5h-3.6v3.3h-3.5zm-4.4-5.2h2.9v11h-3.5v-6.5h-.2l-2.5 5.3c-.3.7-1 1.2-1.8 1.2h-3v-11h3.5v6.5h.3l2.4-5.4c.4-.700002 1.1-1.1 1.9-1.1z" fill="#fff"/><path d="m35.4008 0c1 0 1.9.4 2.6 1 .8.7 1.3 1.7 1.3 2.9 0 .2-.0334.43333-.1.7h-6.5c-2.2 0-4.1-1.5-4.7-3.5 0 0 0-.03333 0-.1 0 0-.0334-.033332-.1-.099998 0-.333334-.0334-.633335-.1-.900002z" fill="url(#a)"/></g></svg>