<svg fill="none" height="20" viewBox="0 0 57 20" width="57" xmlns="http://www.w3.org/2000/svg"><path d="m37.8831 4.22548v9.38052c0 .1691-.0877.2536-.2631.2536h-2.0169c-.1754 0-.2631-.0845-.2631-.2536v-9.38052c0-.16902.0877-.25353.2631-.25353h2.0169c.1754 0 .2631.08451.2631.25353zm15.5215-.25353h-2.1923c-.0877 0-.1754.08451-.2631.16902l-1.7538 5.57763-1.9292-5.57763c0-.08451-.1754-.16902-.2631-.16902h-1.5785c-.0877 0-.1754.08451-.2631.16902l-1.9292 5.57763-1.7538-5.57763c0-.08451-.1754-.16902-.2631-.16902h-2.1923c-.0877 0-.1754 0-.1754.08451-.0877.08451-.0877.16902 0 .25353l3.2446 9.38061c0 .0845.1754.169.2631.169h1.7538c.0877 0 .1754-.0845.2631-.169l1.9292-5.49317 1.9293 5.49317c0 .0845.1754.169.263.169h1.7539c.0877 0 .1754-.0845.2631-.169l3.2446-9.38061v-.25353c-.1754 0-.2631-.08451-.3508-.08451zm3.3323 0h-2.0169c-.1754 0-.2631.08451-.2631.25353v9.38052c0 .1691.0877.2536.2631.2536h2.0169c.1754 0 .2631-.0845.2631-.2536v-9.38052c0-.16902-.0877-.25353-.2631-.25353zm-22.5369 9.54955c.0877.0845 0 .3381-.1754.3381h-2.4554c-.0877 0-.1754-.0845-.263-.0845l-.4385-.5071c-.8769.5071-1.8415.8451-2.8939.8451-2.9815 0-5.3492-2.3663-5.3492-5.15508 0-2.78882 2.4554-5.15509 5.3492-5.15509 2.9816 0 5.3493 2.36627 5.3493 5.15509 0 1.01411-.3508 2.02818-.8769 2.78878zm-4.8231-2.0282-1.0523-1.2676c-.0877-.1691 0-.33808.1754-.33808h2.1923c.0877-.33804.1754-.59157.1754-.9296 0-1.52118-1.2277-2.87333-2.8062-2.87333-1.6661 0-2.8061 1.35215-2.8061 2.87333s1.2277 2.87328 2.8061 2.87328c.4385 0 .9647-.169 1.3154-.338zm-12.8031 2.0282c.0877.4226-.0876.5916-.1753.5916-.1754 0-.3508-.169-.5262-.5071-.1754-.338-.2631-.676-.1754-.8451.0877-.0845.1754-.169.3508-.0845.3508.0845.4385.5916.5261.8451zm-1.9292.8451c.4385.3381.5262.7606.3508 1.0141-.0877.1691-.3508.2536-.5262.2536-.263 0-.4384-.0845-.6138-.2536-.3508-.338-.5262-.8451-.2631-1.0986.0877-.0845.2631-.169.4385-.169s.4384.0845.6138.2535zm-.7015 3.2114c1.7538 0 3.6831.5916 5.8754 2.3663.1753.169.5261-.0846.3507-.2536-2.1046-2.5353-4.0338-3.0423-5.963-3.4649-2.3677-.507-3.5954-1.7747-4.38466-3.2113-.17539-.2536-.26308-.2536-.26308.169 0 .4225 0 1.0141.08769 1.6057h-.26307c-3.42 0-6.13846-2.6198-6.13846-5.91569 0-3.29588 2.71846-5.91567 6.13846-5.91567 3.42002 0 6.13842 2.61979 6.13842 5.91567v.67607c-.4384-.08451-1.3153-.08451-1.9292 0-.2631 0-.1754.08451 0 .16902 2.0169.338 3.42 1.5212 3.7708 3.7184 0 .0845.0877.0845.0877 0 .7892-1.3521 1.3154-2.8733 1.3154-4.56349-.2631-4.90156-4.3847-8.87351-9.47081-8.87351-5.17385 0-9.29539 3.97195-9.29539 8.95802 0 4.98608 4.12154 8.95798 9.29539 8.95798 1.31541-.0845 2.63081-.338 4.64771-.338z" fill="#fff"/></svg>