<svg width="910" height="280" viewBox="0 0 910 280" fill="none" xmlns="http://www.w3.org/2000/svg">
<g clip-path="url(#clip0_126_9)">
<path d="M865.112 2.80005H45.0013C22.1315 2.80005 3.5918 19.9326 3.5918 41.0667V238.933C3.5918 260.067 22.1315 277.2 45.0013 277.2H865.112C887.982 277.2 906.522 260.067 906.522 238.933V41.0667C906.522 19.9326 887.982 2.80005 865.112 2.80005Z" fill="black"/>
<path d="M211.22 172.16L227.492 176.225C234.859 178.065 242 172.522 242 164.964V86.5703C242 79.9161 237.453 74.1143 230.967 72.4941L184.315 60.8403C176.948 59 169.807 64.5432 169.807 72.1012V86.2333L140.413 78.8905C133.046 77.0503 125.904 82.5934 125.904 90.1514V104.283L96.5086 96.9404C89.1418 95.1004 82 100.643 82 108.201V186.595C82 193.249 86.5477 199.051 93.0335 200.671L139.685 212.325C147.052 214.165 154.194 208.622 154.194 201.064L154.206 122.775C154.206 116.162 150.02 112.337 148.502 111.162C148.212 110.938 148.132 110.52 148.34 110.218C148.544 109.921 148.912 109.781 149.257 109.885C155.404 111.741 161.286 118.043 161.873 125.967L163.902 185.836C163.969 187.802 165.24 189.507 167.07 190.149L183.589 194.275C190.956 196.116 198.098 190.572 198.098 183.014L198.11 104.743C198.11 98.1294 193.932 94.2954 192.414 93.1204C192.125 92.8964 192.045 92.4784 192.252 92.1764C192.457 91.8794 192.825 91.7394 193.17 91.8434C199.317 93.6994 205.199 100.001 205.786 107.925L207.815 167.79C207.885 169.836 209.265 171.596 211.22 172.16Z" fill="white"/>
<path d="M403.275 231.584H386.515L359.922 194.463H345.932V231.584H331.666V133.935H366.016C372.664 133.935 378.62 135.228 383.884 137.813C389.147 140.399 393.21 144 396.072 148.617C399.027 153.142 400.505 158.359 400.505 164.268C400.505 171.656 398.242 177.981 393.718 183.244C389.193 188.415 383.145 191.832 375.573 193.494L403.275 231.584ZM345.932 147.093V181.444H366.016C371.926 181.444 376.681 179.874 380.282 176.734C383.976 173.502 385.823 169.347 385.823 164.268C385.823 159.19 383.976 155.081 380.282 151.941C376.681 148.709 371.926 147.093 366.016 147.093H345.932ZM441.13 232.969C436.052 232.969 431.481 231.723 427.418 229.229C423.355 226.644 420.169 223.135 417.861 218.703C415.552 214.178 414.398 209.099 414.398 203.467V159.975H427.972V202.359C427.972 207.807 429.495 212.239 432.543 215.655C435.59 219.072 439.514 220.78 444.316 220.78C449.302 220.78 453.458 219.026 456.782 215.517C460.106 212.008 461.768 207.622 461.768 202.359V159.975H475.342V231.584H465.646L462.461 220.78C460.152 224.659 457.105 227.66 453.319 229.783C449.625 231.907 445.563 232.969 441.13 232.969ZM525.945 232.969C516.988 232.969 509.185 230.661 502.536 226.044C495.98 221.334 491.502 214.963 489.101 206.929L502.813 204.713C505.491 209.884 508.677 213.716 512.371 216.209C516.064 218.61 520.589 219.811 525.945 219.811C531.393 219.811 535.825 218.61 539.241 216.209C542.658 213.716 544.366 210.346 544.366 206.098C544.366 202.959 543.397 200.327 541.458 198.203C539.611 196.079 537.256 194.371 534.394 193.078C531.531 191.786 527.791 190.354 523.174 188.785C516.988 186.753 511.909 184.722 507.938 182.69C503.968 180.659 500.597 177.796 497.827 174.103C495.149 170.317 493.81 165.515 493.81 159.698C493.81 154.25 495.149 149.494 497.827 145.431C500.597 141.276 504.383 138.09 509.185 135.874C513.987 133.658 519.342 132.55 525.252 132.55C533.47 132.55 540.534 134.72 546.444 139.06C552.354 143.307 556.555 149.171 559.048 156.65L545.613 158.867C543.766 154.619 541.134 151.387 537.718 149.171C534.301 146.862 530.284 145.708 525.668 145.708C520.681 145.708 516.572 146.909 513.34 149.309C510.108 151.618 508.492 154.804 508.492 158.867C508.492 161.914 509.416 164.499 511.263 166.623C513.202 168.747 515.556 170.455 518.327 171.748C521.189 173.041 524.975 174.518 529.684 176.18C535.686 178.212 540.673 180.289 544.643 182.413C548.706 184.445 552.123 187.353 554.893 191.139C557.663 194.925 559.048 199.681 559.048 205.406C559.048 210.946 557.571 215.794 554.616 219.949C551.753 224.104 547.783 227.336 542.704 229.645C537.718 231.861 532.131 232.969 525.945 232.969ZM616.386 219.672L615.139 231.584H602.535C595.055 231.584 589.376 229.737 585.498 226.044C581.62 222.35 579.681 217.041 579.681 210.115V172.025H567.353V159.975H579.681L583.421 139.198H593.255V159.975H615.139V172.025H593.255V210.115C593.255 216.486 596.348 219.672 602.535 219.672H616.386ZM661.652 232.969C654.358 232.969 647.848 231.399 642.123 228.26C636.397 225.12 631.919 220.734 628.687 215.101C625.455 209.469 623.839 203.051 623.839 195.849C623.839 188.646 625.455 182.228 628.687 176.596C631.919 170.963 636.397 166.577 642.123 163.437C647.848 160.205 654.358 158.59 661.652 158.59C668.947 158.59 675.457 160.205 681.182 163.437C686.907 166.577 691.386 170.963 694.618 176.596C697.849 182.228 699.465 188.646 699.465 195.849C699.465 203.051 697.849 209.469 694.618 215.101C691.386 220.734 686.907 225.12 681.182 228.26C675.457 231.399 668.947 232.969 661.652 232.969ZM661.652 220.503C668.67 220.503 674.349 218.241 678.689 213.716C683.121 209.192 685.337 203.236 685.337 195.849C685.337 188.461 683.121 182.505 678.689 177.981C674.349 173.364 668.67 171.055 661.652 171.055C654.635 171.055 648.956 173.364 644.616 177.981C640.276 182.505 638.106 188.461 638.106 195.849C638.106 203.143 640.276 209.099 644.616 213.716C648.956 218.241 654.635 220.503 661.652 220.503ZM714.022 231.584V159.975H723.856L726.765 170.224C728.889 166.623 731.52 164.038 734.66 162.468C737.799 160.806 741.539 159.975 745.879 159.975H749.203L750.311 172.995H742.555C737.568 172.995 733.829 174.426 731.336 177.288C728.842 180.151 727.596 184.029 727.596 188.923V231.584H714.022ZM827.913 195.295C827.913 197.141 827.867 198.573 827.775 199.588H768.631C769.37 205.96 771.863 211.038 776.111 214.824C780.359 218.61 785.76 220.503 792.316 220.503C796.841 220.503 800.858 219.626 804.367 217.872C807.968 216.025 810.692 213.624 812.539 210.669L825.282 212.747C822.512 219.21 818.033 224.197 811.846 227.706C805.752 231.215 798.965 232.969 791.485 232.969C784.375 232.969 778.004 231.399 772.371 228.26C766.738 225.028 762.352 220.596 759.213 214.963C756.073 209.33 754.503 202.959 754.503 195.849C754.503 188.646 756.073 182.228 759.213 176.596C762.352 170.963 766.692 166.577 772.233 163.437C777.773 160.205 784.098 158.59 791.208 158.59C798.226 158.59 804.505 160.205 810.046 163.437C815.678 166.577 820.065 170.963 823.204 176.596C826.344 182.136 827.913 188.369 827.913 195.295ZM791.208 170.64C785.76 170.64 781.051 172.256 777.08 175.488C773.202 178.72 770.617 183.06 769.324 188.508H813.093C811.892 183.152 809.307 178.858 805.336 175.626C801.458 172.302 796.749 170.64 791.208 170.64Z" fill="white"/>
<path d="M331.453 105.093V87.4416H332.617C334.126 87.4416 335.332 87.0746 336.238 86.3419C337.143 85.6092 337.897 84.1436 338.501 81.9452C339.147 79.7038 339.643 76.4062 339.988 72.0526L341.863 48H370.571V87.4416H377.231V105.093H370.571V93.5836H338.113V105.093H331.453ZM363.911 87.4416V54.1424H348.005L346.648 72.3759C346.13 79.6607 344.794 84.6824 342.639 87.4416H363.911ZM398.401 94.2306C394.996 94.2306 391.957 93.4976 389.284 92.0316C386.612 90.5666 384.521 88.5186 383.012 85.8893C381.504 83.2599 380.749 80.2641 380.749 76.9019C380.749 73.5397 381.504 70.5439 383.012 67.9145C384.521 65.2851 386.612 63.2376 389.284 61.772C391.957 60.2634 394.996 59.509 398.401 59.509C401.806 59.509 404.845 60.2634 407.518 61.772C410.19 63.2376 412.281 65.2851 413.789 67.9145C415.298 70.5439 416.052 73.5397 416.052 76.9019C416.052 80.2641 415.298 83.2599 413.789 85.8893C412.281 88.5186 410.19 90.5666 407.518 92.0316C404.845 93.4976 401.806 94.2306 398.401 94.2306ZM398.401 88.4106C401.677 88.4106 404.328 87.3546 406.354 85.2428C408.423 83.1306 409.457 80.3503 409.457 76.9019C409.457 73.4535 408.423 70.6732 406.354 68.5611C404.328 66.4058 401.677 65.3282 398.401 65.3282C395.125 65.3282 392.474 66.4058 390.448 68.5611C388.422 70.6732 387.409 73.4535 387.409 76.9019C387.409 80.3072 388.422 83.0875 390.448 85.2428C392.474 87.3546 395.125 88.4106 398.401 88.4106ZM438.236 94.2306C434.917 94.2306 431.921 93.4976 429.249 92.0316C426.619 90.5236 424.572 88.4536 423.106 85.8247C421.641 83.1953 420.908 80.221 420.908 76.9019C420.908 73.5397 421.641 70.5439 423.106 67.9145C424.572 65.2851 426.619 63.2376 429.249 61.772C431.878 60.2634 434.874 59.509 438.236 59.509C441.814 59.509 445.004 60.3711 447.805 62.0953C450.65 63.8195 452.676 66.2981 453.883 69.531L447.935 70.5008C447.159 68.949 445.93 67.699 444.249 66.7507C442.611 65.8024 440.736 65.3282 438.624 65.3282C435.348 65.3282 432.676 66.4058 430.606 68.5611C428.581 70.7164 427.568 73.4966 427.568 76.9019C427.568 80.3072 428.581 83.0875 430.606 85.2428C432.676 87.3546 435.348 88.4106 438.624 88.4106C440.822 88.4106 442.762 87.9156 444.443 86.9236C446.167 85.9324 447.417 84.6177 448.193 82.9797L454.142 83.9496C452.935 87.2256 450.866 89.7686 447.935 91.5796C445.047 93.3466 441.814 94.2306 438.236 94.2306ZM473.705 93.5836H467.369V65.9748H455.795V60.1556H485.279V65.9748H473.705V93.5836ZM515.214 60.1556H521.744L507.778 98.6266C506.744 101.515 505.386 103.606 503.705 104.899C502.024 106.192 499.782 106.839 496.981 106.839H492.002L491.42 101.02H497.369C498.619 101.02 499.588 100.739 500.278 100.179C500.968 99.6616 501.55 98.7346 502.024 97.3986L502.735 95.4586L487.864 60.1556H494.653L505.257 85.954H506.162L515.214 60.1556ZM533.811 93.5836H527.474V60.1556H555.924V93.5836H549.587V65.9748H533.811V93.5836ZM587.101 73.7984V60.1556H593.438V93.5836H587.101V79.6176H571.001V93.5836H564.665V60.1556H571.001V73.7984H587.101ZM617.883 94.2306C614.478 94.2306 611.439 93.4976 608.767 92.0316C606.094 90.5666 604.003 88.5186 602.495 85.8893C600.986 83.2599 600.232 80.2641 600.232 76.9019C600.232 73.5397 600.986 70.5439 602.495 67.9145C604.003 65.2851 606.094 63.2376 608.767 61.772C611.439 60.2634 614.478 59.509 617.883 59.509C621.289 59.509 624.327 60.2634 627 61.772C629.673 63.2376 631.763 65.2851 633.272 67.9145C634.78 70.5439 635.535 73.5397 635.535 76.9019C635.535 80.2641 634.78 83.2599 633.272 85.8893C631.763 88.5186 629.673 90.5666 627 92.0316C624.327 93.4976 621.289 94.2306 617.883 94.2306ZM617.883 88.4106C621.159 88.4106 623.81 87.3546 625.836 85.2428C627.905 83.1306 628.94 80.3503 628.94 76.9019C628.94 73.4535 627.905 70.6732 625.836 68.5611C623.81 66.4058 621.159 65.3282 617.883 65.3282C614.607 65.3282 611.956 66.4058 609.93 68.5611C607.904 70.6732 606.891 73.4535 606.891 76.9019C606.891 80.3072 607.904 83.0875 609.93 85.2428C611.956 87.3546 614.607 88.4106 617.883 88.4106ZM680.04 76.0614C681.765 76.708 683.144 77.764 684.179 79.2296C685.256 80.6521 685.795 82.3332 685.795 84.2729C685.795 86.0402 685.278 87.6346 684.243 89.0576C683.252 90.4796 681.851 91.6006 680.04 92.4196C678.23 93.1956 676.161 93.5836 673.833 93.5836H657.863V60.1556H673.251C675.45 60.1556 677.411 60.5435 679.135 61.3194C680.859 62.0953 682.196 63.1514 683.144 64.4877C684.135 65.8239 684.631 67.3542 684.631 69.0784C684.631 70.7164 684.222 72.1388 683.403 73.3458C682.627 74.5096 681.506 75.4148 680.04 76.0614ZM664.199 65.5222V73.7337H673.251C674.717 73.7337 675.924 73.3673 676.872 72.6345C677.821 71.8586 678.295 70.8672 678.295 69.6603C678.295 68.4533 677.821 67.4619 676.872 66.686C675.924 65.9101 674.717 65.5222 673.251 65.5222H664.199ZM673.833 88.2166C675.514 88.2166 676.872 87.7856 677.907 86.9236C678.941 86.0618 679.459 84.941 679.459 83.5617C679.459 82.1823 678.941 81.0616 677.907 80.1995C676.872 79.3374 675.514 78.9063 673.833 78.9063H664.199V88.2166H673.833Z" fill="white"/>
<path d="M865.112 2.80005H45.0013C22.1315 2.80005 3.5918 19.9326 3.5918 41.0667V238.933C3.5918 260.067 22.1315 277.2 45.0013 277.2H865.112C887.982 277.2 906.522 260.067 906.522 238.933V41.0667C906.522 19.9326 887.982 2.80005 865.112 2.80005Z" stroke="#ABABAB" stroke-width="6"/>
</g>
<defs>
<clipPath id="clip0_126_9">
<rect width="910" height="280" fill="white"/>
</clipPath>
</defs>
</svg>
