<svg fill="none" height="20" viewBox="0 0 24 20" width="24" xmlns="http://www.w3.org/2000/svg"><path clip-rule="evenodd" d="m1.64333 8.62604c6.44145-2.81353 10.73577-4.67687 12.88287-5.59003 6.1286-2.5729 7.4169-3.0171409 8.2451-3.03565099.3082-.0068252.6107.08381539.865.25914099.1742.158915.2853.375896.3128.610832.0517.286948.0641.579648.0369.869968-.3313 3.51691-1.7668 12.05-2.503 15.9742-.3129 1.6659-.9202 2.2212-1.5091 2.2767-1.2883.1111-2.2638-.8515-3.4968-1.6659-1.9509-1.2772-3.0367-2.0731-4.9323-3.3318-2.19014-1.4438-.773-2.2397.4785-3.5354.3312-.3332 5.9813-5.51602 6.0917-5.97877.0138-.06895.011-.14022-.0082-.20784-.0192-.06763-.0543-.12965-.1022-.18087-.0683-.04242-.1456-.0679-.2256-.07433-.08-.00644-.1604.00635-.2345.03731-.2024.03702-3.2943 2.11015-9.31249 6.2009-.8834.6108-1.67477.907-2.39254.8884-.79137-.0185-2.30051-.4442-3.44157-.8144-1.38031-.4442-2.4845583-.6849-2.39253756-1.46229.05521246-.40722.60733656-.81444 1.63796756-1.24017z" fill="#fff" fill-rule="evenodd"/></svg>