<svg fill="none" height="16" viewBox="0 0 20 16" width="20" xmlns="http://www.w3.org/2000/svg"><path d="m19.5323 1.81098c-.3132.14792-.6366.27449-.9678.3788.3915-.43156.6872-.93729.8687-1.485487.0234-.061307.0264-.128213.0086-.191266-.0178-.063052-.0555-.119061-.1077-.160111-.0522-.041051-.1164-.065067-.1834-.068655s-.1334.013434-.1899.04866c-.7089.408138-1.4809.701609-2.2861.869009-.6021-.577799-1.3658-.969454-2.1954-1.125841-.8295-.1563865-1.688-.07054034-2.4677.246771-.7797.31731-1.4459.85196-1.9151 1.53688-.46911.68492-.72033 1.48962-.72209 2.31316-.01145.18056-.01145.36164 0 .5422-1.46207-.12783-2.883-.54009-4.17879-1.2124-1.29578-.67232-2.44011-1.59104-3.36532-2.701851-.03244-.039458-.07422-.070642-.12176-.090865-.04755-.020224-.09942-.028881-.15116-.025227-.05173.003654-.10178.01951-.14584.046203-.04405.026693-.08079.063423-.10705.107026-.434098.758354-.617981 1.628644-.526627 2.492474.091353.86383.453507 1.67926 1.037197 2.33536-.1977-.06779-.38893-.15229-.57153-.25254-.04929-.03152-.10655-.04916-.16547-.05098s-.117214.01226-.168447.04069c-.051233.02842-.093416.07009-.121896.1204s-.042151.10731-.039505.16471v.05942c.000258.72861.194118 1.44475.562698 2.07864.36858.6339.89931 1.16394 1.54051 1.53851l-.32767-.04456c-.05539-.01094-.11276-.0074-.16628.01027-.05353.01767-.10129.04884-.13845.09034s-.06238.09185-.0731.14593c-.01073.05408-.00657.10996.01205.16197.22975.69638.64258 1.32198 1.1974 1.81448.55482.4926 1.2323.835 1.96503.9931-1.21569.747-2.6245 1.1412-4.06163 1.1364-.303057.0001-.605859-.0173-.906814-.052-.071449-.0052-.142669.0126-.202754.0506-.0600863.0381-.1057265.0943-.129933.16-.02420654.0657-.02564505.1374-.0040953.204.0215498.0666.0649.1244.1234133.1647 1.866823 1.1746 4.041913 1.7988 6.263903 1.7975 1.62921.035 3.2464-.2795 4.73711-.9213 1.4906-.6418 2.8183-1.5951 3.8891-2.7924 1.9041-2.1247 2.964-4.84414 2.9871-7.66515 0-.11141 0-.23025 0-.34909.7503-.55375 1.3994-1.22667 1.9204-1.99055.0414-.05488.0638-.12125.0638-.1894 0-.06816-.0224-.13452-.0638-.1894-.0456-.05909-.1112-.10048-.1852-.11681-.074-.01632-.1515-.00651-.2187.02768z" fill="#fff"/></svg>