<svg fill="none" height="32" viewBox="0 0 96 32" width="96" xmlns="http://www.w3.org/2000/svg" xmlns:xlink="http://www.w3.org/1999/xlink"><clipPath id="a"><path d="m0 0h96v31.0035h-96z"/></clipPath><g clip-path="url(#a)"><path d="m36.4495.547501-12.5685 29.986999h-8.2l-6.185-23.929c-.3755-1.474-.7-2.014-1.8435-2.6345-1.8645-1.012-4.9435-1.9605-7.6525-2.55l.186499-.873499h13.200001c1.682 0 3.1945 1.119999 3.5765 3.057999l3.2665 17.35 8.073-20.410001zm32.129 20.196499c.033-7.9145-10.944-8.35-10.8685-11.886.0235-1.076 1.05-2.2195 3.2905-2.512 1.1115-.1455 4.174-.257 7.65 1.342l1.3625-6.359c-1.8665-.677002-4.268-1.329-7.256-1.329-7.6675 0-13.0635 4.076-13.109 9.9125-.05 4.317 3.85 6.726 6.7905 8.16 3.0235 1.4695 4.0375 2.413 4.0265 3.7275-.022 2.0115-2.4115 2.9-4.645 2.9345-3.9.06-6.1615-1.055-7.9655-1.894l-1.406 6.5695c1.8125.832 5.158 1.5575 8.627 1.5935 8.15 0 13.4805-4.0255 13.5055-10.2595zm20.2495 9.7905h7.1745l-6.266-29.986999h-6.621c-.7071-.006096-1.3998.200373-1.9882.592649-.5884.39227-1.0454.95225-1.3118 1.60735l-11.641 27.787h8.1455l1.6165-4.479h9.9525zm-8.6555-10.625 4.083-11.2595 2.35 11.2595zm-32.6395-19.361999-6.4145 29.986999h-7.757l6.417-29.986999z" fill="#fff"/></g></svg>