<svg fill="none" height="20" viewBox="0 0 32 20" width="32" xmlns="http://www.w3.org/2000/svg"><path d="m17.4182 19.98c-10.92631 0-17.158525-7.4925-17.4182-19.98h5.47316c.17977 9.15085 4.21473 12.987 7.41074 13.8262v-13.8062195h5.1536v7.8921095c3.156-.33966 6.4719-3.93607 7.5905-7.8921095h5.1535c-.4141 2.0572095-1.2489 4.0065695-2.452 5.7257195s-2.7485 3.17096-4.5392 4.2643c1.9964.9904 3.7603 2.3929 5.1753 4.1148 1.4151 1.722 2.4493 3.7244 3.0344 5.8752h-5.6929c-.5223-1.8717-1.5859-3.5474-3.0572-4.8164-1.4713-1.2691-3.2847-2.075-5.2124-2.3165v7.1329z" fill="#fff"/></svg>