<svg width="910" height="280" viewBox="0 0 910 280" fill="none" xmlns="http://www.w3.org/2000/svg">
<g clip-path="url(#clip0_126_15)">
<path d="M865.112 2.80005H45.0013C22.1315 2.80005 3.5918 19.9326 3.5918 41.0667V238.933C3.5918 260.067 22.1315 277.2 45.0013 277.2H865.112C887.982 277.2 906.522 260.067 906.522 238.933V41.0667C906.522 19.9326 887.982 2.80005 865.112 2.80005Z" fill="black"/>
<path d="M112.964 223.661H179.152L102.744 147.252L66.2433 183.753C67.2167 197.136 70.6234 207.113 76.4635 213.197C83.5205 220.254 95.6872 223.661 112.964 223.661ZM233.661 176.696V118.051L162.119 189.593L195.7 223.174C208.11 222.201 217.357 218.794 222.953 213.197C230.01 206.14 233.661 193.973 233.661 176.696ZM186.453 56H126.835L202.756 131.922L233.661 101.018C233.417 84.9574 229.767 73.5205 222.953 66.7071C215.897 59.6503 203.73 56 186.453 56V56ZM154.332 116.348H148.005V149.442L135.108 136.545L130.972 140.925L151.412 161.366L171.852 140.925L167.472 136.789L154.575 149.685V116.348H154.332ZM109.801 56C94.2273 56.4869 83.0337 60.1369 76.4635 66.7071C70.8667 72.5471 67.4599 81.5507 66.2433 93.7177C66 96.6376 66 99.801 66 102.964V166.719L143.382 89.3376L109.801 56Z" fill="white"/>
<path d="M285.037 114.673V68.5664H300.81C304.45 68.5664 307.18 68.8697 309 69.1731C311.73 69.7797 313.854 70.9931 315.674 72.5097C318.1 74.6331 319.92 77.0597 321.134 80.3964C322.347 83.7331 322.954 87.3731 322.954 91.3164C322.954 94.9564 322.65 97.9897 321.74 100.72C320.83 103.45 319.92 105.573 318.707 107.393C317.494 109.213 315.977 110.426 314.46 111.64C312.944 112.55 311.124 113.46 309 114.066C306.877 114.673 304.45 114.976 301.72 114.976H285.037V114.673ZM291.104 109.213H300.81C303.844 109.213 306.27 108.91 308.09 108.303C309.91 107.696 311.124 107.09 312.337 105.876C313.854 104.36 314.764 102.54 315.674 100.113C316.584 97.6864 316.887 94.6531 316.887 91.3164C316.887 86.4631 315.977 82.8231 314.46 80.0931C312.944 77.3631 310.82 75.8464 308.697 74.9364C307.18 74.3297 304.45 74.0264 300.81 74.0264H291.104V109.213Z" fill="white"/>
<path d="M328.717 97.99C328.717 91.9233 330.537 87.07 333.873 84.34C336.603 81.9133 340.243 80.7 344.49 80.7C349.04 80.7 352.983 82.2166 355.713 85.25C358.443 88.2833 359.96 92.53 359.96 97.6866C359.96 101.933 359.353 105.27 358.14 107.697C356.927 110.123 355.107 111.943 352.377 113.46C349.95 114.673 347.22 115.583 344.187 115.583C339.637 115.583 335.693 114.067 332.963 111.033C330.233 108 328.717 103.45 328.717 97.99ZM334.48 97.99C334.48 102.237 335.39 105.573 337.21 107.697C339.03 109.82 341.457 111.033 344.187 111.033C346.917 111.033 349.343 109.82 351.163 107.697C352.983 105.573 353.893 102.237 353.893 97.99C353.893 93.7433 352.983 90.71 351.163 88.5866C349.343 86.4633 346.917 85.25 344.187 85.25C341.457 85.25 339.03 86.16 337.21 88.2833C335.39 90.4066 334.48 93.7433 334.48 97.99V97.99Z" fill="white"/>
<path d="M372.7 114.673L362.387 81.3066H368.15L373.61 100.72L375.733 108C375.733 107.697 376.34 105.27 377.553 101.023L383.013 81.3066H388.777L393.933 100.72L395.753 107.09L397.573 100.72L403.337 81.3066H408.797L398.483 114.673H392.72L387.26 94.6533L386.047 88.89L379.373 114.673H372.7Z" fill="white"/>
<path d="M413.348 114.673V81.3066H418.504V86.1599C420.931 82.5199 424.571 80.7 429.121 80.7C431.244 80.7 433.064 81.0033 434.581 81.9133C436.098 82.8233 437.614 83.7333 438.524 84.6433C439.434 85.8566 440.041 87.07 440.344 88.89C440.648 89.8 440.648 91.9233 440.648 94.35V114.977H434.884V94.35C434.884 91.9233 434.581 90.4066 434.278 89.1933C433.974 87.9799 433.064 87.0699 431.851 86.4633C430.638 85.8566 429.424 85.5533 427.908 85.5533C425.481 85.5533 423.358 86.4633 421.538 87.9799C419.718 89.4966 418.808 92.5299 418.808 96.7766V114.977H413.348V114.673Z" fill="white"/>
<path d="M448.838 114.673V68.5664H454.601V114.673H448.838Z" fill="white"/>
<path d="M461.273 97.99C461.273 91.9233 463.093 87.07 466.43 84.34C469.16 81.9133 472.8 80.7 477.047 80.7C481.597 80.7 485.54 82.2166 488.27 85.25C491.303 88.2833 492.517 92.53 492.517 97.6866C492.517 101.933 491.91 105.27 490.697 107.697C489.483 110.123 487.663 111.943 484.933 113.46C482.507 114.673 479.777 115.583 476.743 115.583C472.193 115.583 468.25 114.067 465.52 111.033C462.79 108 461.273 103.45 461.273 97.99ZM467.037 97.99C467.037 102.237 467.947 105.573 469.767 107.697C471.587 109.82 474.013 111.033 476.743 111.033C479.473 111.033 481.9 109.82 483.72 107.697C485.54 105.573 486.45 102.237 486.45 97.99C486.45 93.7433 485.54 90.71 483.72 88.5866C481.9 86.4633 479.473 85.25 476.743 85.25C474.013 85.25 471.587 86.16 469.767 88.2833C467.947 90.4066 467.037 93.7433 467.037 97.99V97.99Z" fill="white"/>
<path d="M521.03 110.426C518.906 112.246 516.783 113.46 514.963 114.066C513.143 114.673 511.02 115.28 508.593 115.28C504.953 115.28 502.223 114.37 500.1 112.55C497.976 110.73 497.066 108.606 497.066 105.573C497.066 104.056 497.37 102.54 498.28 101.023C498.886 99.8098 500.1 98.5965 501.313 97.6865C502.526 96.7765 503.74 96.1698 505.256 95.8665C506.47 95.5632 507.986 95.2598 510.413 94.9565C514.963 94.3498 518.3 93.7432 520.423 93.1365C520.423 92.2265 520.423 91.9232 520.423 91.6198C520.423 89.1932 519.816 87.6765 518.906 86.7665C517.39 85.5532 515.266 84.9465 512.536 84.9465C509.806 84.9465 507.986 85.5532 506.773 86.4632C505.56 87.3732 504.65 89.1932 504.043 91.3165L498.583 90.7098C499.19 88.2831 499.796 86.4632 501.01 84.9465C502.223 83.4298 503.74 82.2165 506.166 81.6098C508.29 80.6998 511.02 80.3965 513.75 80.3965C516.48 80.3965 518.906 80.6998 520.726 81.3065C522.546 81.9132 523.76 82.8232 524.67 83.7332C525.58 84.6432 526.186 86.1598 526.49 87.6765C526.793 88.5865 526.793 90.4065 526.793 92.8332V100.416C526.793 105.573 526.793 108.91 527.096 110.426C527.4 111.943 527.703 113.156 528.613 114.37H522.546C521.636 113.46 521.333 111.943 521.03 110.426ZM520.726 97.9898C518.603 98.8998 515.57 99.5065 511.323 100.113C508.896 100.416 507.38 100.72 506.47 101.326C505.56 101.63 504.65 102.236 504.346 103.146C504.043 104.056 503.436 104.966 503.436 105.876C503.436 107.393 504.043 108.606 505.256 109.516C506.47 110.426 507.986 111.033 510.413 111.033C512.536 111.033 514.66 110.426 516.176 109.516C517.996 108.606 519.21 107.393 519.816 105.573C520.423 104.36 520.726 102.54 520.726 99.8098V97.9898Z" fill="white"/>
<path d="M556.824 114.673V110.427C554.701 113.763 551.667 115.28 547.421 115.28C544.691 115.28 542.264 114.673 540.141 113.157C538.017 111.64 536.197 109.517 534.984 107.09C533.771 104.36 533.164 101.327 533.164 97.9899C533.164 94.6532 533.771 91.6199 534.984 88.8899C536.197 86.1599 537.714 84.0365 540.141 82.5199C542.264 81.0032 544.994 80.3965 547.724 80.3965C549.847 80.3965 551.667 80.6998 553.184 81.6099C554.701 82.5199 555.914 83.4299 557.127 84.9465V68.2632H562.891V114.37H556.824V114.673ZM538.927 97.9899C538.927 102.237 539.837 105.573 541.657 107.697C543.477 109.82 545.601 110.73 548.027 110.73C550.454 110.73 552.577 109.82 554.397 107.697C556.217 105.573 557.127 102.54 557.127 98.2932C557.127 93.7432 556.217 90.4065 554.397 88.2832C552.577 86.1599 550.454 84.9465 548.027 84.9465C545.601 84.9465 543.477 85.8565 541.657 87.9799C539.837 90.4065 538.927 93.4399 538.927 97.9899Z" fill="white"/>
<path d="M586.854 97.99C586.854 91.9233 588.674 87.07 592.01 84.34C594.74 81.9133 598.38 80.7 602.627 80.7C607.177 80.7 611.12 82.2166 613.85 85.25C616.883 88.2833 618.097 92.53 618.097 97.6866C618.097 101.933 617.49 105.27 616.277 107.697C615.064 110.123 613.243 111.943 610.513 113.46C608.087 114.673 605.357 115.583 602.323 115.583C597.773 115.583 593.83 114.067 591.1 111.033C588.37 108 586.854 103.45 586.854 97.99ZM592.617 97.99C592.617 102.237 593.527 105.573 595.347 107.697C597.167 109.82 599.593 111.033 602.323 111.033C605.053 111.033 607.48 109.82 609.3 107.697C611.12 105.573 612.03 102.237 612.03 97.99C612.03 93.7433 611.12 90.71 609.3 88.5866C607.48 86.4633 605.053 85.25 602.323 85.25C599.593 85.25 597.167 86.16 595.347 88.2833C593.527 90.4066 592.617 93.7433 592.617 97.99V97.99Z" fill="white"/>
<path d="M624.77 114.673V81.3066H629.926V86.1599C632.353 82.5199 635.993 80.7 640.543 80.7C642.666 80.7 644.486 81.0033 646.003 81.9133C647.823 82.52 649.036 83.7333 649.643 84.6433C650.553 85.8566 651.159 87.07 651.463 88.89C651.766 89.8 651.766 91.9233 651.766 94.35V114.977H646.003V94.35C646.003 91.9233 645.699 90.4066 645.396 89.1933C645.093 87.9799 644.183 87.0699 642.97 86.4633C641.756 85.8566 640.543 85.5533 639.026 85.5533C636.6 85.5533 634.476 86.4633 632.656 87.9799C630.836 89.4966 629.926 92.5299 629.926 96.7766V114.977H624.77V114.673Z" fill="white"/>
<path d="M690.898 109.517L691.808 114.673C690.291 114.977 688.774 115.28 687.561 115.28C685.438 115.28 683.921 114.977 682.708 114.37C681.494 113.763 680.888 112.853 680.281 111.943C679.674 111.033 679.674 108.607 679.674 105.27V86.1599H675.428V81.6099H679.674V73.4199L685.438 70.0833V81.9133H691.201V86.4633H685.438V105.877C685.438 107.393 685.438 108.607 685.741 108.91C686.044 109.517 686.348 109.82 686.651 110.123C686.954 110.427 687.864 110.427 688.471 110.427C689.078 109.82 689.988 109.82 690.898 109.517V109.517Z" fill="white"/>
<path d="M696.66 114.673V68.5664H702.423V85.2497C705.153 82.2164 708.49 80.6997 712.433 80.6997C714.86 80.6997 716.983 81.3064 718.803 82.2164C720.623 83.1264 721.837 84.6431 722.747 86.1597C723.657 87.9797 723.96 90.4064 723.96 93.7431V114.976H718.197V93.7431C718.197 91.0131 717.59 88.8897 716.377 87.6764C715.163 86.4631 713.343 85.8564 711.22 85.8564C709.4 85.8564 707.883 86.1597 706.367 87.0697C704.85 87.9797 703.94 89.1931 703.333 90.7097C702.727 92.2264 702.423 94.3497 702.423 96.7764V114.976H696.66V114.673Z" fill="white"/>
<path d="M755.203 103.753L760.967 104.36C760.057 107.697 758.237 110.427 755.81 112.247C753.383 114.067 750.047 114.977 746.103 114.977C741.25 114.977 737.307 113.46 734.577 110.427C731.847 107.393 730.33 103.147 730.33 97.6866C730.33 91.9233 731.847 87.6766 734.577 84.6433C737.61 81.6099 741.25 80.0933 745.8 80.0933C750.35 80.0933 753.99 81.6099 756.72 84.6433C759.45 87.6766 760.967 91.9233 760.967 97.3833V98.8999H736.093C736.397 102.54 737.307 105.27 739.127 107.393C740.947 109.213 743.373 110.427 746.103 110.427C748.227 110.427 750.047 109.82 751.563 108.91C753.383 108 754.293 106.18 755.203 103.753V103.753ZM736.7 94.6533H755.507C755.203 91.9233 754.597 89.7999 753.383 88.2833C751.563 86.1599 749.137 84.9469 746.407 84.9469C743.677 84.9469 741.553 85.8566 739.733 87.6766C737.913 89.4966 736.7 91.9233 736.7 94.6533V94.6533Z" fill="white"/>
<path d="M309.607 191.72V182.013H331.75V201.73C327.504 204.46 323.864 206.583 320.527 207.493C317.19 208.403 313.55 209.01 309 209.01C303.54 209.01 298.99 208.1 295.654 206.28C292.317 204.46 289.587 201.73 287.767 197.786C285.947 194.146 285.037 189.9 285.037 185.046C285.037 179.89 285.947 175.643 288.07 172.003C290.194 168.363 293.227 165.33 297.17 163.51C300.204 161.993 304.45 161.386 309.91 161.386C315.067 161.386 318.707 161.993 321.437 162.903C323.864 163.813 325.987 165.33 327.807 167.15C329.627 168.97 330.84 171.7 331.447 174.43L317.797 176.856C317.19 175.036 316.28 173.823 315.067 172.913C313.854 172.003 312.034 171.396 309.91 171.396C306.877 171.396 304.147 172.61 302.327 174.733C300.507 176.856 299.597 180.496 299.597 185.046C299.597 189.9 300.507 193.54 302.327 195.663C304.147 197.786 306.877 199 310.214 199C311.73 199 313.247 198.696 314.764 198.393C316.28 197.786 317.797 197.18 319.617 195.966V191.72H309.607Z" fill="white"/>
<path d="M376.34 194.753H350.556C350.86 196.877 351.466 198.393 352.376 199.303C353.59 200.82 355.106 201.427 357.23 201.427C358.443 201.427 359.656 201.123 360.87 200.517C361.476 200.213 362.386 199.303 362.993 198.393L375.733 199.607C373.913 202.943 371.486 205.37 368.756 206.887C366.026 208.403 362.083 209.01 356.926 209.01C352.376 209.01 349.04 208.403 346.613 207.19C344.186 205.977 342.063 203.853 340.243 201.123C338.423 198.393 337.816 195.36 337.816 191.417C337.816 186.26 339.636 182.013 342.973 178.677C346.31 175.34 350.86 173.823 356.926 173.823C361.78 173.823 365.42 174.43 368.15 175.947C370.88 177.463 373.003 179.587 374.52 182.317C376.036 185.047 376.643 188.687 376.643 192.933V194.753H376.34ZM363.296 188.687C362.993 186.26 362.386 184.44 361.173 183.227C359.96 182.013 358.746 181.71 356.926 181.71C354.803 181.71 353.286 182.62 352.073 184.137C351.163 185.047 350.86 186.563 350.556 188.687H363.296Z" fill="white"/>
<path d="M397.877 162.297V175.037H404.853V184.44H397.877V196.27C397.877 197.787 397.877 198.697 398.18 199C398.483 199.607 399.393 200.213 400.303 200.213C401.213 200.213 402.427 199.91 404.247 199.303L405.157 208.1C402.123 208.707 399.09 209.01 396.36 209.01C393.023 209.01 390.9 208.707 389.383 207.797C387.867 206.887 386.653 205.673 386.047 204.157C385.44 202.337 384.833 199.91 384.833 195.967V184.137H380.283V174.733H385.137V168.667L397.877 162.297Z" fill="white"/>
<path d="M440.041 200.82H423.965L421.841 208.403H407.281L424.571 162.297H440.041L457.331 208.403H442.468L440.041 200.82ZM437.311 190.81L432.155 174.127L426.998 190.81H437.311Z" fill="white"/>
<path d="M462.184 221.143V175.036H474.317V179.89C475.834 177.766 477.35 176.553 478.867 175.643C480.687 174.733 482.81 174.126 484.934 174.126C489.484 174.126 492.82 175.946 495.247 179.283C497.674 182.62 498.887 186.866 498.887 192.023C498.887 197.483 497.674 201.73 494.944 204.763C492.214 207.796 488.877 209.01 484.934 209.01C483.114 209.01 481.294 208.706 479.474 208.1C477.957 207.493 476.44 206.28 475.227 205.066V221.143H462.184ZM475.227 191.72C475.227 194.45 475.834 196.27 477.047 197.483C478.26 198.696 479.474 199.303 481.294 199.303C482.81 199.303 484.024 198.696 484.934 197.483C485.844 196.27 486.45 194.146 486.45 191.113C486.45 188.383 485.844 186.563 484.934 185.046C484.024 183.833 482.507 183.226 480.99 183.226C479.474 183.226 477.957 183.833 477.047 185.046C475.53 186.866 475.227 188.99 475.227 191.72V191.72Z" fill="white"/>
<path d="M505.258 221.143V175.036H517.391V179.89C518.908 177.766 520.424 176.553 521.941 175.643C523.761 174.733 525.884 174.126 528.008 174.126C532.558 174.126 535.895 175.946 538.321 179.283C540.748 182.62 541.961 186.866 541.961 192.023C541.961 197.483 540.748 201.73 538.018 204.763C535.288 207.796 531.951 209.01 528.008 209.01C526.188 209.01 524.368 208.706 522.548 208.1C521.031 207.493 519.514 206.28 518.301 205.066V221.143H505.258ZM517.998 191.72C517.998 194.45 518.604 196.27 519.818 197.483C521.031 198.696 522.244 199.303 524.064 199.303C525.581 199.303 526.795 198.696 527.705 197.483C528.615 196.27 529.221 194.146 529.221 191.113C529.221 188.383 528.615 186.563 527.705 185.046C526.795 183.833 525.278 183.226 523.761 183.226C522.244 183.226 520.728 183.833 519.818 185.046C518.604 186.866 517.998 188.99 517.998 191.72V191.72Z" fill="white"/>
<path d="M545.904 199L558.644 197.787C559.251 199.303 559.858 200.517 560.768 201.123C561.678 201.73 562.891 202.033 564.408 202.033C566.228 202.033 567.441 201.73 568.351 200.82C568.958 200.213 569.564 199.607 569.564 198.697C569.564 197.787 568.958 197.18 568.048 196.573C567.441 196.27 565.621 195.663 562.588 195.36C558.038 194.45 555.004 193.843 553.184 193.237C551.364 192.63 549.848 191.417 548.938 189.9C547.724 188.383 547.118 186.563 547.118 184.44C547.118 182.317 547.724 180.193 548.938 178.677C550.151 177.16 551.971 175.947 554.094 175.037C556.218 174.127 559.251 173.823 563.194 173.823C567.138 173.823 570.171 174.127 571.991 174.733C573.811 175.34 575.631 176.25 576.844 177.463C578.058 178.677 579.271 180.497 579.878 182.62L567.744 183.833C567.441 182.62 566.834 182.013 566.228 181.407C565.318 180.8 564.104 180.497 562.588 180.497C561.071 180.497 560.161 180.8 559.554 181.407C558.948 182.013 558.644 182.62 558.644 183.227C558.644 184.137 558.948 184.743 559.858 185.047C560.768 185.35 562.588 185.957 565.318 186.26C569.564 186.867 572.901 187.473 574.721 188.383C576.844 189.293 578.361 190.507 579.574 192.023C580.788 193.54 581.091 195.36 581.091 197.18C581.091 199 580.484 201.123 579.271 202.943C578.058 204.763 576.238 206.28 573.811 207.19C571.384 208.403 567.744 208.707 563.498 208.707C557.431 208.707 553.184 207.797 550.454 205.977C548.331 204.763 546.814 202.337 545.904 199V199Z" fill="white"/>
<path d="M606.874 162.297H622.647L630.837 176.553L638.724 162.297H654.194L639.937 184.743L655.711 208.403H639.634L630.534 193.54L621.434 208.403H605.357L621.131 184.44L606.874 162.297Z" fill="white"/>
<path d="M659.654 162.297H672.394V171.093H659.654V162.297ZM659.654 175.037H672.394V208.403H659.654V175.037Z" fill="white"/>
<path d="M692.414 185.653L680.281 184.44C680.888 182.317 681.494 180.497 682.404 179.283C683.314 178.07 684.528 176.857 686.044 175.947C687.258 175.34 688.774 174.733 690.898 174.43C693.021 174.127 695.144 173.823 697.571 173.823C701.514 173.823 704.548 174.127 706.974 174.43C709.401 174.733 711.221 175.643 712.738 177.16C713.951 178.07 714.558 179.587 715.468 181.103C716.074 182.923 716.378 184.44 716.378 185.957V200.82C716.378 202.337 716.378 203.55 716.681 204.46C716.984 205.37 717.288 206.583 717.894 207.797H705.761C705.154 206.887 704.851 206.28 704.851 205.977C704.851 205.673 704.548 204.763 704.548 203.853C702.728 205.37 701.211 206.583 699.391 207.19C697.268 208.1 694.538 208.707 691.504 208.707C687.561 208.707 684.528 207.797 682.404 205.977C680.281 204.157 679.371 201.73 679.371 199C679.371 196.573 679.978 194.45 681.494 192.63C683.011 191.113 685.741 189.9 689.684 188.99C694.538 188.08 697.571 187.473 699.088 186.867C700.604 186.563 702.121 185.957 703.638 185.35C703.638 183.833 703.334 182.62 702.728 182.013C702.121 181.407 700.908 181.103 699.391 181.103C697.268 181.103 695.751 181.407 694.538 182.013C693.628 183.227 693.021 184.137 692.414 185.653V185.653ZM703.638 192.327C701.818 192.933 699.998 193.54 698.178 194.147C695.448 194.753 693.931 195.663 693.324 196.27C692.718 196.877 692.111 197.787 692.111 198.697C692.111 199.607 692.414 200.517 693.021 201.123C693.628 201.73 694.841 202.033 696.054 202.033C697.571 202.033 698.784 201.73 699.998 201.123C701.211 200.517 702.121 199.607 702.728 198.697C703.334 197.787 703.638 196.27 703.638 194.753V192.327Z" fill="white"/>
<path d="M722.141 191.72C722.141 186.563 723.961 182.316 727.297 178.98C730.634 175.643 735.487 174.126 741.251 174.126C747.924 174.126 753.081 175.946 756.417 179.89C759.147 182.923 760.664 186.866 760.664 191.416C760.664 196.573 758.844 200.82 755.507 204.156C752.171 207.493 747.317 209.01 741.251 209.01C735.791 209.01 731.544 207.796 728.207 205.066C724.264 201.73 722.141 197.18 722.141 191.72V191.72ZM735.184 191.72C735.184 194.753 735.791 196.876 737.004 198.393C738.217 199.91 739.734 200.516 741.554 200.516C743.374 200.516 744.891 199.91 746.104 198.393C747.317 196.876 747.924 194.753 747.924 191.72C747.924 188.686 747.317 186.563 746.104 185.35C744.891 184.136 743.374 183.226 741.554 183.226C739.734 183.226 738.217 183.833 737.004 185.35C735.791 186.563 735.184 188.686 735.184 191.72Z" fill="white"/>
<path d="M767.034 175.037H778.864V179.89C780.684 177.767 782.201 176.553 784.021 175.643C785.841 174.733 787.964 174.43 790.391 174.43C793.121 174.43 795.244 175.037 796.76 175.947C798.277 176.857 799.491 178.373 800.704 180.193C802.827 178.07 804.647 176.553 806.164 175.643C807.68 174.733 809.804 174.43 812.23 174.43C815.87 174.43 818.601 175.643 820.724 177.767C822.847 179.89 823.757 183.227 823.757 187.777V208.707H811.017V189.597C811.017 188.08 810.714 186.867 810.107 186.26C809.197 185.047 808.287 184.44 806.771 184.44C805.254 184.44 804.04 185.047 803.13 185.957C802.22 187.17 801.614 188.687 801.614 191.113V208.403H788.874V189.9C788.874 188.383 788.874 187.473 788.571 186.867C788.267 185.957 787.964 185.35 787.054 184.743C786.447 184.137 785.537 183.833 784.627 183.833C783.11 183.833 781.897 184.44 780.987 185.653C780.077 186.867 779.471 188.687 779.471 191.113V208.1H766.73V175.037H767.034Z" fill="white"/>
<path d="M831.645 162.297H844.385V171.093H831.645V162.297ZM831.645 175.037H844.385V208.403H831.645V175.037Z" fill="white"/>
<path d="M865.112 2.80005H45.0013C22.1315 2.80005 3.5918 19.9326 3.5918 41.0667V238.933C3.5918 260.067 22.1315 277.2 45.0013 277.2H865.112C887.982 277.2 906.522 260.067 906.522 238.933V41.0667C906.522 19.9326 887.982 2.80005 865.112 2.80005Z" stroke="#ABABAB" stroke-width="6"/>
</g>
<defs>
<clipPath id="clip0_126_15">
<rect width="910" height="280" fill="white"/>
</clipPath>
</defs>
</svg>
