<svg width="955" height="834" viewBox="0 0 955 834" fill="none" xmlns="http://www.w3.org/2000/svg">
<g clip-path="url(#clip0_16_23)">
<path d="M729.597 425.056L373.101 425.131L340.653 524.868H589.92L268.96 741.036C263.184 744.547 258.181 749.195 254.254 754.697C250.327 760.199 247.557 766.441 246.113 773.045C244.67 779.649 244.581 786.477 245.854 793.116C247.127 799.754 249.734 806.066 253.518 811.668C257.301 817.269 262.183 822.044 267.866 825.704C273.55 829.364 279.917 831.832 286.582 832.958C293.247 834.085 300.072 833.846 306.642 832.258C313.213 830.669 319.392 827.763 324.807 823.716L648.687 605.551L577.555 824.079H691.337L792.86 512.08C796.101 502.099 796.934 491.493 795.291 481.128C793.647 470.764 789.573 460.936 783.403 452.448C777.232 443.96 769.14 437.052 759.789 432.292C750.437 427.531 740.091 425.051 729.597 425.056Z" stroke="#00C7B1" stroke-width="2.04317" stroke-linejoin="round"/>
<path d="M792.935 512.094L648.748 605.551L691.397 824.079" stroke="#00C7B1" stroke-width="2.04317" stroke-linejoin="round"/>
<path d="M373.101 425.131L589.92 524.868L729.582 425.055" stroke="#00C7B1" stroke-width="2.04317" stroke-linejoin="round"/>
<path d="M340.638 524.868L729.582 425.055L648.748 605.551L268.945 741.051" stroke="#00C7B1" stroke-width="2.04317" stroke-linejoin="round"/>
<path d="M577.63 824.079L792.935 512.079L589.92 524.868L324.807 823.731" stroke="#00C7B1" stroke-width="2.04317" stroke-linejoin="round"/>
<path d="M465.559 2.12234e-05H394.078L387.57 20.0231H437.514L373.192 63.5654C372.099 64.3007 371.161 65.2441 370.433 66.3418C369.704 67.4395 369.199 68.6703 368.946 69.9632C368.693 71.2562 368.697 72.586 368.958 73.8773C369.22 75.1686 369.732 76.396 370.468 77.4891C371.203 78.5823 372.147 79.52 373.244 80.2485C374.342 80.977 375.573 81.4821 376.866 81.735C378.158 81.988 379.489 81.9839 380.78 81.7228C382.071 81.4618 383.299 80.9488 384.392 80.2134L449.349 36.3231L435.093 80.2134H457.916L478.272 17.5563C478.936 15.5466 479.113 13.4078 478.788 11.3162C478.464 9.2247 477.648 7.24013 476.406 5.52585C475.165 3.81158 473.534 2.41653 471.648 1.45584C469.762 0.495146 467.675 -0.00375011 465.559 2.12234e-05V2.12234e-05Z" stroke="#00C7B1" stroke-width="2.04317" stroke-linejoin="round"/>
<path d="M387.57 20.0836L465.559 0.0302734L449.349 36.2777L373.192 63.4897" stroke="#00C7B1" stroke-width="2.04317" stroke-linejoin="round"/>
<path d="M435.093 80.168L478.257 17.5107L437.544 20.0836L384.392 80.1075" stroke="#00C7B1" stroke-width="2.04317" stroke-linejoin="round"/>
<path d="M430.991 106.29H359.495L352.987 126.328H402.932L338.564 169.734C337.471 170.47 336.533 171.413 335.805 172.511C335.076 173.609 334.571 174.839 334.318 176.132C334.065 177.425 334.069 178.755 334.331 180.047C334.592 181.338 335.105 182.565 335.84 183.659C336.575 184.752 337.519 185.689 338.616 186.418C339.714 187.146 340.945 187.651 342.238 187.904C343.531 188.157 344.861 188.153 346.152 187.892C347.443 187.631 348.671 187.118 349.764 186.383L414.721 142.492L400.465 186.383H423.288L443.644 123.725C444.283 121.728 444.442 119.608 444.11 117.537C443.778 115.466 442.963 113.503 441.731 111.805C440.499 110.108 438.885 108.724 437.019 107.766C435.154 106.808 433.088 106.302 430.991 106.29V106.29Z" stroke="#00C7B1" stroke-width="2.04317" stroke-linejoin="round"/>
<path d="M414.767 142.553L423.318 186.428" stroke="#00C7B1" stroke-width="2.04317" stroke-linejoin="round"/>
<path d="M359.495 106.305L402.977 126.344" stroke="#00C7B1" stroke-width="2.04317" stroke-linejoin="round"/>
<path d="M430.976 106.291L414.767 142.553L338.609 169.765" stroke="#00C7B1" stroke-width="2.04317" stroke-linejoin="round"/>
<path d="M443.689 123.771L402.977 126.344L349.809 186.368" stroke="#00C7B1" stroke-width="2.04317" stroke-linejoin="round"/>
<path d="M374.1 212.535H207.62L192.485 259.134H309.021L158.901 360.203C156.323 361.898 154.106 364.088 152.381 366.646C150.655 369.204 149.455 372.079 148.849 375.105C148.243 378.13 148.244 381.246 148.852 384.271C149.46 387.296 150.662 390.17 152.39 392.727C154.117 395.284 156.335 397.473 158.914 399.166C161.494 400.859 164.384 402.023 167.417 402.59C170.45 403.158 173.565 403.117 176.582 402.471C179.6 401.825 182.459 400.586 184.993 398.827L336.339 296.91L303.195 398.948H356.347L403.779 253.187C405.294 248.514 405.679 243.549 404.903 238.699C404.127 233.849 402.213 229.252 399.317 225.285C396.42 221.318 392.625 218.094 388.242 215.878C383.858 213.661 379.012 212.516 374.1 212.535V212.535Z" stroke="#00C7B1" stroke-width="2.04317" stroke-linejoin="round"/>
<path d="M403.688 253.202L336.339 296.865L356.256 398.964" stroke="#00C7B1" stroke-width="2.04317" stroke-linejoin="round"/>
<path d="M207.559 212.581L308.855 259.165L374.1 212.535" stroke="#00C7B1" stroke-width="2.04317" stroke-linejoin="round"/>
<path d="M192.394 259.165L374.1 212.535L336.34 296.865L158.901 360.158" stroke="#00C7B1" stroke-width="2.04317" stroke-linejoin="round"/>
<path d="M303.104 398.964L403.688 253.202L308.855 259.165L184.993 398.797" stroke="#00C7B1" stroke-width="2.04317" stroke-linejoin="round"/>
<path d="M479.195 318.81H407.699L401.191 338.849H451.135L386.768 382.255C384.56 383.74 383.033 386.041 382.522 388.652C382.011 391.264 382.559 393.971 384.044 396.179C385.529 398.386 387.83 399.914 390.442 400.424C393.053 400.935 395.76 400.388 397.968 398.903L462.925 355.088L448.669 398.979H471.492L491.848 336.321C492.501 334.319 492.672 332.191 492.347 330.11C492.022 328.029 491.209 326.055 489.976 324.348C488.742 322.64 487.122 321.249 485.249 320.286C483.376 319.324 481.301 318.818 479.195 318.81V318.81Z" stroke="#00C7B1" stroke-width="2.04317" stroke-linejoin="round"/>
<path d="M401.191 338.864L479.18 318.826L462.971 355.073L386.813 382.285" stroke="#00C7B1" stroke-width="2.04317" stroke-linejoin="round"/>
<path d="M448.714 398.963L491.893 336.306L451.181 338.864L398.013 398.888" stroke="#00C7B1" stroke-width="2.04317" stroke-linejoin="round"/>
<path d="M209.844 425.116H138.364L131.856 445.154H181.8L117.432 488.56C116.339 489.296 115.402 490.239 114.673 491.337C113.945 492.434 113.44 493.665 113.187 494.958C112.934 496.251 112.938 497.581 113.199 498.872C113.46 500.164 113.973 501.391 114.708 502.484C115.444 503.577 116.387 504.515 117.485 505.243C118.583 505.972 119.813 506.477 121.106 506.73C122.399 506.983 123.729 506.979 125.02 506.718C126.312 506.457 127.539 505.944 128.632 505.208L193.59 461.394L179.333 505.284H202.141L222.497 442.627C223.154 440.624 223.328 438.495 223.004 436.413C222.68 434.331 221.868 432.355 220.633 430.647C219.399 428.939 217.778 427.547 215.903 426.586C214.028 425.624 211.952 425.121 209.844 425.116Z" stroke="#00C7B1" stroke-width="2.04317" stroke-linejoin="round"/>
<path d="M131.841 445.169L209.844 425.116L193.635 461.363L117.463 488.591" stroke="#00C7B1" stroke-width="2.04317" stroke-linejoin="round"/>
<path d="M179.363 505.254L222.542 442.597L181.83 445.17L128.662 505.193" stroke="#00C7B1" stroke-width="2.04317" stroke-linejoin="round"/>
<path d="M716.006 318.81H644.525L638.017 338.849H687.962L623.594 382.255C621.387 383.74 619.859 386.041 619.348 388.652C618.837 391.264 619.385 393.971 620.87 396.179C622.355 398.386 624.656 399.914 627.268 400.424C629.879 400.935 632.586 400.388 634.794 398.903L699.752 355.088L685.495 398.979H708.348L728.719 336.321C729.374 334.314 729.545 332.181 729.216 330.095C728.888 328.01 728.07 326.031 726.829 324.323C725.589 322.614 723.961 321.224 722.08 320.266C720.199 319.308 718.117 318.809 716.006 318.81V318.81Z" stroke="#00C7B1" stroke-width="2.04317" stroke-linejoin="round"/>
<path d="M638.002 338.864L716.006 318.826L699.797 355.073L623.625 382.285" stroke="#00C7B1" stroke-width="2.04317" stroke-linejoin="round"/>
<path d="M685.54 398.963L728.704 336.306L687.992 338.864L634.839 398.888" stroke="#00C7B1" stroke-width="2.04317" stroke-linejoin="round"/>
<path d="M513.762 212.55H442.282L435.774 232.588H485.718L421.35 275.995C420.257 276.73 419.32 277.673 418.591 278.771C417.863 279.869 417.358 281.099 417.105 282.392C416.852 283.685 416.856 285.015 417.117 286.307C417.378 287.598 417.891 288.825 418.626 289.919C419.362 291.012 420.305 291.949 421.403 292.678C422.501 293.406 423.731 293.912 425.024 294.164C426.317 294.417 427.647 294.413 428.938 294.152C430.23 293.891 431.457 293.378 432.55 292.643L497.508 248.753L483.251 292.643H506.059L526.43 229.985C527.069 227.987 527.229 225.865 526.896 223.793C526.563 221.721 525.747 219.757 524.513 218.059C523.279 216.361 521.663 214.978 519.796 214.021C517.928 213.064 515.861 212.56 513.762 212.55V212.55Z" stroke="#00C7B1" stroke-width="2.04317" stroke-linejoin="round"/>
<path d="M497.553 248.813L506.104 292.703" stroke="#00C7B1" stroke-width="2.04317" stroke-linejoin="round"/>
<path d="M442.266 212.581L485.748 232.604" stroke="#00C7B1" stroke-width="2.04317" stroke-linejoin="round"/>
<path d="M513.762 212.55L497.553 248.813L421.396 276.025" stroke="#00C7B1" stroke-width="2.04317" stroke-linejoin="round"/>
<path d="M526.46 230.031L485.748 232.604L432.595 292.627" stroke="#00C7B1" stroke-width="2.04317" stroke-linejoin="round"/>
<path d="M548.375 106.29H476.864L470.356 126.329H520.301L456.054 169.75C454.961 170.485 454.023 171.429 453.295 172.526C452.566 173.624 452.061 174.855 451.808 176.147C451.555 177.44 451.559 178.771 451.821 180.062C452.082 181.353 452.595 182.581 453.33 183.674C454.065 184.767 455.009 185.704 456.106 186.433C457.204 187.161 458.435 187.666 459.728 187.919C461.021 188.172 462.351 188.168 463.642 187.907C464.933 187.646 466.161 187.133 467.254 186.398L532.211 142.507L517.955 186.398H540.762L561.119 123.741C561.766 121.735 561.93 119.604 561.595 117.523C561.261 115.441 560.439 113.469 559.196 111.767C557.953 110.064 556.324 108.681 554.443 107.729C552.563 106.777 550.483 106.284 548.375 106.29V106.29Z" stroke="#00C7B1" stroke-width="2.04317" stroke-linejoin="round"/>
<path d="M532.136 142.553L540.687 186.428" stroke="#00C7B1" stroke-width="2.04317" stroke-linejoin="round"/>
<path d="M476.849 106.305L520.331 126.344" stroke="#00C7B1" stroke-width="2.04317" stroke-linejoin="round"/>
<path d="M548.345 106.291L532.136 142.553L455.963 169.765" stroke="#00C7B1" stroke-width="2.04317" stroke-linejoin="round"/>
<path d="M561.043 123.771L520.331 126.344L467.163 186.368" stroke="#00C7B1" stroke-width="2.04317" stroke-linejoin="round"/>
</g>
<defs>
<clipPath id="clip0_16_23">
<rect width="955" height="834" fill="white"/>
</clipPath>
</defs>
</svg>
