<svg width="960" height="836" viewBox="0 0 960 836" fill="none" xmlns="http://www.w3.org/2000/svg">
<path d="M250.077 511.172H321.572L328.08 491.149H278.136L342.504 447.728C344.711 446.243 346.239 443.942 346.749 441.33C347.26 438.719 346.713 436.012 345.228 433.804C343.743 431.597 341.441 430.069 338.83 429.558C336.219 429.047 333.512 429.595 331.304 431.08L266.331 474.97L280.603 431.08H257.735L237.379 493.737C236.739 495.739 236.579 497.862 236.914 499.937C237.249 502.011 238.068 503.977 239.305 505.676C240.542 507.374 242.162 508.757 244.033 509.712C245.905 510.667 247.975 511.168 250.077 511.172V511.172Z" stroke="#753BBD" stroke-width="2.04317" stroke-linejoin="round"/>
<path d="M328.065 491.134L250.076 511.172L266.286 474.925L342.443 447.713" stroke="#753BBD" stroke-width="2.04317" stroke-linejoin="round"/>
<path d="M280.542 431.034L237.378 493.707L278.075 491.134L331.243 431.11" stroke="#753BBD" stroke-width="2.04317" stroke-linejoin="round"/>
<path d="M732.462 192.377H898.943L914.077 145.792H797.541L947.495 44.784C950.073 43.0892 952.289 40.8994 954.015 38.3415C955.74 35.7835 956.941 32.9085 957.547 29.8829C958.152 26.8574 958.151 23.7416 957.544 20.7164C956.936 17.6913 955.734 14.817 954.006 12.2601C952.279 9.70329 950.061 7.51469 947.482 5.82163C944.902 4.12858 942.012 2.96491 938.979 2.3975C935.946 1.83009 932.831 1.87048 929.813 2.51648C926.796 3.16248 923.937 4.40097 921.402 6.16046L770.056 108.092L803.353 5.99419H750.306L702.874 151.756C701.368 156.419 700.986 161.372 701.76 166.212C702.533 171.051 704.441 175.638 707.326 179.599C710.211 183.56 713.993 186.783 718.361 189.004C722.73 191.224 727.561 192.38 732.462 192.377Z" stroke="#753BBD" stroke-width="2.04317" stroke-linejoin="round"/>
<path d="M702.859 151.71L770.223 108.047L750.29 5.94873" stroke="#753BBD" stroke-width="2.04317" stroke-linejoin="round"/>
<path d="M899.003 192.331L797.707 145.747L732.447 192.377" stroke="#753BBD" stroke-width="2.04317" stroke-linejoin="round"/>
<path d="M914.168 145.747L732.447 192.377L770.223 108.047L947.661 44.7539" stroke="#753BBD" stroke-width="2.04317" stroke-linejoin="round"/>
<path d="M803.443 5.94873L702.859 151.71L797.707 145.747L921.569 6.13035" stroke="#753BBD" stroke-width="2.04317" stroke-linejoin="round"/>
<path d="M521.501 404.882H592.981L599.489 384.859H549.545L613.897 341.437C614.99 340.702 615.928 339.759 616.657 338.661C617.385 337.563 617.89 336.333 618.143 335.04C618.396 333.747 618.392 332.417 618.131 331.126C617.87 329.834 617.357 328.607 616.622 327.514C615.886 326.421 614.943 325.483 613.845 324.755C612.747 324.026 611.517 323.521 610.224 323.268C608.931 323.015 607.601 323.019 606.309 323.28C605.018 323.541 603.791 324.054 602.698 324.789L537.74 368.604L551.997 324.714H529.204L508.848 387.386C508.194 389.388 508.022 391.515 508.348 393.595C508.673 395.676 509.486 397.649 510.72 399.355C511.953 401.061 513.573 402.452 515.447 403.412C517.321 404.373 519.395 404.876 521.501 404.882V404.882Z" stroke="#753BBD" stroke-width="2.04317" stroke-linejoin="round"/>
<path d="M599.489 384.828L521.5 404.882L537.71 368.634L613.867 341.422" stroke="#753BBD" stroke-width="2.04317" stroke-linejoin="round"/>
<path d="M551.967 324.744L508.788 387.401L549.5 384.829L602.668 324.82" stroke="#753BBD" stroke-width="2.04317" stroke-linejoin="round"/>
<path d="M623.205 86.1169H694.686L701.194 66.0939H651.249L715.602 22.6728C716.695 21.9374 717.632 20.9937 718.361 19.896C719.089 18.7983 719.595 17.5679 719.848 16.2749C720.101 14.982 720.096 13.6518 719.835 12.3605C719.574 11.0691 719.061 9.84178 718.326 8.74865C717.591 7.65552 716.647 6.71811 715.549 5.98961C714.452 5.26111 713.221 4.75609 711.928 4.50313C710.635 4.25016 709.305 4.25424 708.014 4.51532C706.723 4.7764 705.495 5.28934 704.402 6.02471L639.444 49.9151L653.701 6.02471H630.863L610.507 68.6818C609.863 70.6832 609.702 72.8081 610.035 74.8839C610.368 76.9596 611.187 78.9276 612.425 80.6269C613.662 82.3263 615.284 83.7093 617.157 84.6633C619.03 85.6174 621.103 86.1154 623.205 86.1169V86.1169Z" stroke="#753BBD" stroke-width="2.04317" stroke-linejoin="round"/>
<path d="M701.194 66.0481L623.205 86.0864L639.414 49.839L715.572 22.627" stroke="#753BBD" stroke-width="2.04317" stroke-linejoin="round"/>
<path d="M653.671 5.94873L610.492 68.6211L651.204 66.0483L704.372 6.0244" stroke="#753BBD" stroke-width="2.04317" stroke-linejoin="round"/>
<path d="M15.3388 511.172H86.8195L93.3274 491.149H43.3832L107.751 447.728C108.844 446.993 109.781 446.049 110.51 444.952C111.238 443.854 111.744 442.623 111.997 441.33C112.249 440.038 112.245 438.707 111.984 437.416C111.723 436.125 111.21 434.897 110.475 433.804C109.74 432.711 108.796 431.774 107.698 431.045C106.601 430.317 105.37 429.811 104.077 429.558C102.784 429.305 101.454 429.309 100.163 429.57C98.8715 429.832 97.6442 430.345 96.5511 431.08L31.5933 474.97L45.8501 431.08H22.9969L2.64085 493.737C1.99729 495.739 1.83553 497.864 2.16875 499.939C2.50197 502.015 3.32075 503.983 4.5584 505.682C5.79605 507.381 7.41758 508.764 9.29093 509.719C11.1643 510.673 13.2365 511.171 15.3388 511.172V511.172Z" stroke="#753BBD" stroke-width="2.04317" stroke-linejoin="round"/>
<path d="M93.3274 491.134L15.3387 511.172L31.5479 474.925L107.705 447.713" stroke="#753BBD" stroke-width="2.04317" stroke-linejoin="round"/>
<path d="M45.8048 431.034L2.62573 493.707L43.3378 491.134L96.5057 431.11" stroke="#753BBD" stroke-width="2.04317" stroke-linejoin="round"/>
<path d="M792.925 298.576H864.405L870.913 278.538H820.969L885.337 235.132C886.43 234.397 887.367 233.454 888.096 232.356C888.824 231.258 889.329 230.028 889.582 228.735C889.835 227.442 889.831 226.112 889.57 224.82C889.309 223.529 888.796 222.302 888.061 221.208C887.325 220.115 886.382 219.178 885.284 218.449C884.186 217.721 882.956 217.216 881.663 216.963C880.37 216.71 879.04 216.714 877.749 216.975C876.457 217.236 875.23 217.749 874.137 218.484L809.194 262.329L823.451 218.439H800.583L780.212 281.096C779.562 283.101 779.397 285.232 779.728 287.313C780.059 289.395 780.878 291.369 782.118 293.073C783.358 294.778 784.983 296.165 786.861 297.121C788.739 298.078 790.817 298.576 792.925 298.576V298.576Z" stroke="#753BBD" stroke-width="2.04317" stroke-linejoin="round"/>
<path d="M870.913 278.538L792.909 298.576L809.133 262.329L885.291 235.117" stroke="#753BBD" stroke-width="2.04317" stroke-linejoin="round"/>
<path d="M823.39 218.438L780.211 281.096L820.923 278.538L874.091 218.514" stroke="#753BBD" stroke-width="2.04317" stroke-linejoin="round"/>
</svg>
