<svg width="542" height="207" viewBox="0 0 542 207" fill="none" xmlns="http://www.w3.org/2000/svg">
<g clip-path="url(#clip0_2_3286)">
<path d="M523.9 17.6588C513.39 9.97541 498.723 6.13374 479.897 6.13374H418.43V46.957C417.29 43.0606 415.813 39.2708 414.015 35.6307C409.354 25.6207 401.882 17.1825 392.51 11.3443C382.874 5.87513 371.984 3 360.905 3C349.825 3 338.935 5.87513 329.299 11.3443C319.922 17.1766 312.449 25.6165 307.795 35.6307C305.987 39.2667 304.51 43.0573 303.379 46.957C302.248 43.0573 300.771 39.2667 298.963 35.6307C294.303 25.6207 286.831 17.1825 277.459 11.3443C267.823 5.87513 256.933 3 245.853 3C234.774 3 223.883 5.87513 214.248 11.3443C204.871 17.1766 197.397 25.6165 192.743 35.6307C190.936 39.2667 189.458 43.0573 188.328 46.957C187.197 43.0573 185.719 39.2667 183.912 35.6307C179.251 25.6207 171.779 17.1825 162.407 11.3443C152.772 5.87513 141.882 3 130.802 3C119.722 3 108.832 5.87513 99.1964 11.3443C89.8192 17.1766 82.3461 25.6165 77.6918 35.6307C74.6922 41.8607 72.5886 48.4837 71.4436 55.3027V6.13374H3V40.3335H26.05V140.614H71.8852V91.4233C73.0334 98.2416 75.1368 104.864 78.1334 111.095C82.7779 121.116 90.2533 129.558 99.6379 135.382C109.269 140.866 120.161 143.749 131.243 143.749C142.326 143.749 153.218 140.866 162.849 135.382C172.228 129.551 179.701 121.111 184.353 111.095C186.161 107.452 187.639 103.654 188.769 99.7469C189.9 103.654 191.378 107.452 193.185 111.095C197.829 121.116 205.305 129.558 214.689 135.382C224.32 140.866 235.212 143.749 246.295 143.749C257.378 143.749 268.269 140.866 277.9 135.382C287.279 129.551 294.753 121.111 299.405 111.095C301.209 107.45 302.686 103.653 303.821 99.7469C304.955 103.653 306.433 107.45 308.236 111.095C312.881 121.116 320.356 129.558 329.741 135.382C339.372 140.866 350.264 143.749 361.346 143.749C372.429 143.749 383.321 140.866 392.952 135.382C397.156 132.819 400.983 129.683 404.322 126.065H418.784V140.681H457.002V126.065H497.935V107.43H456.648V97.252H479.897C498.723 97.252 513.39 93.4103 523.9 85.727C534.409 78.0437 539.686 66.6953 539.73 51.6818C539.73 36.6684 534.453 25.3274 523.9 17.6588ZM495.551 64.0238C491.775 66.8498 486.432 68.2408 479.522 68.2408H456.648V36.0944H479.522C486.432 36.0944 491.775 37.4853 495.551 40.2231C497.405 41.5695 498.894 43.3563 499.885 45.4224C500.876 47.4884 501.336 49.7686 501.225 52.0572C501.332 54.3523 500.872 56.6385 499.887 58.7139C498.901 60.7893 497.419 62.5901 495.573 63.9575L495.551 64.0238Z" fill="black" stroke="#00C7B1" stroke-width="4.41571" stroke-linejoin="round"/>
<path d="M165.035 60.3589C162.288 56.6407 158.489 53.8332 154.128 52.3002C149.934 50.7767 145.536 49.891 141.079 49.6729V44.1974H127.302V49.717C122.942 49.9525 118.638 50.8074 114.519 52.2561C110.072 53.74 106.183 56.5433 103.369 60.2927C100.918 64.1344 99.6159 68.5965 99.6159 73.1535C99.6159 77.7104 100.918 82.1725 103.369 86.0142C106.159 89.7354 110.006 92.5285 114.408 94.0287C118.539 95.4955 122.859 96.3581 127.236 96.5898V102.463H141.013V96.6119C145.583 96.4414 150.098 95.5548 154.393 93.9846C158.701 92.4426 162.436 89.6236 165.101 85.9038C167.575 82.1254 168.831 77.679 168.7 73.1645C168.852 68.6171 167.57 64.1371 165.035 60.3589ZM123.085 83.983C120.536 83.3979 118.226 82.0502 116.462 80.1192C114.915 78.1496 114.131 75.6879 114.254 73.1866C114.136 70.7032 114.859 68.2527 116.307 66.2318C117.966 64.2876 120.214 62.9387 122.71 62.3901C124.228 61.9735 125.779 61.6855 127.346 61.5291V84.7999C125.908 84.6297 124.484 84.3567 123.085 83.983ZM152.185 79.9647C150.605 81.9044 148.447 83.289 146.025 83.9168C144.409 84.3944 142.754 84.7268 141.079 84.9103V61.4628C142.725 61.6216 144.352 61.9396 145.937 62.4122C148.338 63.0397 150.493 64.3789 152.119 66.2539C153.566 68.2413 154.291 70.6643 154.172 73.1203C154.275 75.5575 153.577 77.9613 152.185 79.9647Z" fill="white"/>
<path d="M221.799 55.877C219.799 52.8515 216.949 50.4854 213.607 49.0769C209.628 47.403 205.338 46.5975 201.023 46.7145H176.736V99.968H191.816V86.0364H201.089C205.406 86.1463 209.696 85.3334 213.674 83.6519C217.048 82.2404 219.913 79.834 221.885 76.7534C223.857 73.6727 224.844 70.0641 224.713 66.4085C224.796 62.6881 223.782 59.0256 221.799 55.877ZM207.138 72.1269C205.127 73.6446 202.63 74.3748 200.117 74.1802H191.75V58.5706H200.117C202.63 58.376 205.127 59.1063 207.138 60.624C207.925 61.3595 208.54 62.2589 208.941 63.2585C209.341 64.2581 209.517 65.3334 209.457 66.4085C209.508 67.4789 209.321 68.5474 208.909 69.5365C208.497 70.5256 207.869 71.4104 207.072 72.1269H207.138Z" fill="white"/>
<path d="M231.403 99.9679V46.7144H246.24V77.9776L268.318 46.7144H282.47V99.9679H267.634V68.7709L245.71 99.9679H231.403Z" fill="white"/>
<path d="M293.797 99.9679V46.7144H338.307V58.3056H308.634V66.8942H322.389C328.902 66.8942 333.847 68.2631 337.27 71.0008C338.996 72.4405 340.361 74.2651 341.255 76.328C342.148 78.391 342.545 80.6348 342.414 82.8791C342.52 85.2761 342.05 87.6637 341.044 89.8418C340.037 92.0199 338.524 93.9251 336.629 95.3976C332.766 98.4224 327.378 99.9237 320.424 99.9237L293.797 99.9679ZM308.634 89.1715H319.43C321.458 89.3002 323.473 88.7655 325.171 87.648C325.847 87.1364 326.386 86.4656 326.74 85.6952C327.095 84.9248 327.253 84.0787 327.202 83.2323C327.202 79.479 324.596 77.6023 319.43 77.6023H308.634V89.1715Z" fill="white"/>
<path d="M392.952 88.3325V99.9679H350.186V46.7144H391.958V58.3498H365.089V67.3358H388.757V78.5958H365.089V88.3325H392.952Z" fill="white"/>
<path d="M444.461 46.7144V58.6589H428.167V99.9679H413.33V58.6589H396.97V46.7144H444.461Z" fill="white"/>
<path d="M49.3123 169.196V197.476H41.3133V186.447H30.4055V197.476H22.4064V169.196H30.4055V179.821H41.3133V169.196H49.3123ZM69.2859 198.041C66.2964 198.041 63.6031 197.408 61.2061 196.142C58.836 194.877 56.9642 193.126 55.5906 190.891C54.2439 188.655 53.5706 186.137 53.5706 183.336C53.5706 180.535 54.2439 178.017 55.5906 175.781C56.9642 173.546 58.836 171.795 61.2061 170.529C63.6031 169.263 66.2964 168.631 69.2859 168.631C72.2755 168.631 74.9553 169.263 77.3254 170.529C79.7224 171.795 81.5942 173.546 82.9408 175.781C84.3144 178.017 85.0012 180.535 85.0012 183.336C85.0012 186.137 84.3144 188.655 82.9408 190.891C81.5942 193.126 79.7224 194.877 77.3254 196.142C74.9553 197.408 72.2755 198.041 69.2859 198.041ZM69.2859 191.416C70.7134 191.416 72.0061 191.079 73.1642 190.406C74.3223 189.732 75.2381 188.79 75.9114 187.578C76.5847 186.339 76.9214 184.925 76.9214 183.336C76.9214 181.747 76.5847 180.346 75.9114 179.134C75.2381 177.895 74.3223 176.939 73.1642 176.266C72.0061 175.593 70.7134 175.256 69.2859 175.256C67.8585 175.256 66.5657 175.593 65.4076 176.266C64.2495 176.939 63.3338 177.895 62.6604 179.134C61.9871 180.346 61.6505 181.747 61.6505 183.336C61.6505 184.925 61.9871 186.339 62.6604 187.578C63.3338 188.79 64.2495 189.732 65.4076 190.406C66.5657 191.079 67.8585 191.416 69.2859 191.416ZM109.882 182.689C111.552 183.228 112.817 184.063 113.679 185.194C114.568 186.325 115.012 187.726 115.012 189.396C115.012 191.9 114.029 193.88 112.063 195.334C110.124 196.762 107.364 197.476 103.781 197.476H89.2781V169.196H103.014C106.407 169.196 109.033 169.843 110.892 171.135C112.777 172.401 113.72 174.206 113.72 176.549C113.72 177.922 113.383 179.134 112.71 180.185C112.063 181.235 111.121 182.07 109.882 182.689ZM97.156 180.508H102.246C104.509 180.508 105.64 179.579 105.64 177.72C105.64 175.862 104.509 174.933 102.246 174.933H97.156V180.508ZM103.458 191.739C105.774 191.739 106.933 190.756 106.933 188.79C106.933 186.878 105.774 185.921 103.458 185.921H97.156V191.739H103.458ZM133.763 178.205C137.238 178.205 139.917 178.986 141.803 180.548C143.688 182.083 144.631 184.373 144.631 187.416C144.631 190.675 143.58 193.166 141.48 194.89C139.379 196.614 136.457 197.476 132.713 197.476H119.341V169.196H127.219V178.205H133.763ZM132.188 191.739C133.534 191.739 134.598 191.375 135.379 190.648C136.187 189.921 136.591 188.897 136.591 187.578C136.591 185.127 135.123 183.901 132.188 183.901H127.219V191.739H132.188ZM147.741 169.196H155.619V197.476H147.741V169.196ZM187.205 197.476L187.164 182.487L179.892 194.688H176.337L169.065 182.811V197.476H161.713V169.196H168.298L178.236 185.517L187.932 169.196H194.517L194.598 197.476H187.205ZM223.802 186.649H220.166V197.476H212.208V169.196H220.166V180.185H224.004L230.751 169.196H239.154L230.307 182.851L239.235 197.476H230.226L223.802 186.649ZM268.971 169.196V197.476H261.093V175.539H252.973L252.811 180.144C252.676 184.184 252.34 187.47 251.801 190.002C251.289 192.533 250.4 194.5 249.135 195.9C247.869 197.274 246.078 197.96 243.762 197.96C242.684 197.96 241.472 197.799 240.126 197.476L240.57 190.931C240.92 191.012 241.284 191.052 241.661 191.052C242.711 191.052 243.519 190.635 244.085 189.8C244.65 188.965 245.054 187.807 245.297 186.325C245.539 184.817 245.701 182.865 245.781 180.468L246.185 169.196H268.971ZM275.02 169.196H282.898V185.8L294.573 169.196H302.087V197.476H294.209V180.912L282.574 197.476H275.02V169.196ZM330.864 191.295V197.476H308.16V169.196H330.339V175.377H316.078V180.144H328.642V186.123H316.078V191.295H330.864ZM362.327 169.196V197.476H354.328V186.447H343.42V197.476H335.421V169.196H343.42V179.821H354.328V169.196H362.327ZM391.189 175.539H382.543V197.476H374.665V175.539H365.979V169.196H391.189V175.539ZM412.968 191.981H401.01L398.788 197.476H390.628L403.111 169.196H410.989L423.513 197.476H415.19L412.968 191.981ZM410.625 186.083L406.989 177.034L403.353 186.083H410.625ZM452.245 197.476L452.205 182.487L444.933 194.688H441.378L434.106 182.811V197.476H426.753V169.196H433.339L443.277 185.517L452.973 169.196H459.558L459.638 197.476H452.245Z" fill="white"/>
</g>
<defs>
<clipPath id="clip0_2_3286">
<rect width="542" height="207" fill="white"/>
</clipPath>
</defs>
</svg>
