<svg width="224" height="51" viewBox="0 0 224 51" fill="none" xmlns="http://www.w3.org/2000/svg">
<g clip-path="url(#clip0_2_3089)">
<path d="M217.492 0C214.625 0 212.145 1.85956 211.216 4.57143L196.572 49.5109H210.363L223.69 8.60048C225.085 4.33898 221.908 0 217.492 0Z" fill="white"/>
<path d="M121.957 1.00711H78.7219L74.7704 13.0943H104.988L66.0149 39.3606C63.0706 41.3751 62.4507 45.5592 64.7752 48.271C66.7897 50.673 70.1989 51.1379 72.8333 49.4333L112.117 22.9345L103.516 49.5107H117.308L129.628 11.6221C131.332 6.35336 127.458 1.00711 121.957 1.00711Z" fill="#00C7B1"/>
<path d="M15.7288 1.00711L0 49.4333H13.7918L25.569 13.0943H53.7724L34.6344 26.1112C31.845 27.9708 30.9153 31.7674 32.7748 34.5567C34.6344 37.4236 38.431 38.1209 41.2203 36.2613L65.1622 20.1451C73.6852 14.4115 69.6562 1.00711 59.3511 1.08459L15.7288 1.00711Z" fill="white"/>
<path d="M189.521 1.00711H145.976L130.169 49.4333H143.961L155.738 13.0943H183.942L158.993 29.9078L174.412 48.271C176.426 50.673 179.835 51.1379 182.47 49.4333C185.414 47.4187 186.034 43.2347 183.709 40.5228L176.891 32.4647L195.254 20.0676C203.855 14.334 199.826 1.00711 189.521 1.00711Z" fill="white"/>
</g>
<defs>
<clipPath id="clip0_2_3089">
<rect width="224" height="50.5182" fill="white"/>
</clipPath>
</defs>
</svg>
