<?xml version="1.0" standalone="no"?>
<!DOCTYPE svg PUBLIC "-//W3C//DTD SVG 20010904//EN"
 "http://www.w3.org/TR/2001/REC-SVG-20010904/DTD/svg10.dtd">
<svg version="1.0" xmlns="http://www.w3.org/2000/svg"
 width="1333.000000pt" height="242.000000pt" viewBox="0 0 1333.000000 242.000000"
 preserveAspectRatio="xMidYMid meet">

<g transform="translate(0.000000,242.000000) scale(0.100000,-0.100000)"
fill="#000000" stroke="none">
<path d="M1122 2099 c-385 -68 -694 -380 -753 -762 -16 -101 -6 -293 21 -387
26 -93 98 -238 152 -307 88 -115 241 -235 366 -287 142 -60 204 -71 387 -70
156 0 177 2 260 28 288 88 503 281 599 538 l26 67 -128 40 c-174 54 -162 55
-186 -4 -76 -184 -200 -304 -378 -366 -71 -25 -98 -29 -188 -29 -193 0 -322
52 -444 180 -124 130 -176 265 -176 457 0 121 15 194 60 291 34 73 51 96 123
171 181 186 485 225 727 95 120 -65 247 -215 281 -331 7 -24 15 -43 18 -43 3
0 69 19 146 43 120 37 140 46 137 63 -1 10 -28 71 -59 134 -53 106 -66 124
-163 220 -90 90 -120 113 -205 157 -155 80 -250 104 -425 109 -80 1 -169 -1
-198 -7z"/>
<path d="M2430 1195 l0 -915 155 0 155 0 0 384 c0 316 2 385 14 389 7 3 98 6
202 6 l189 1 224 -386 c124 -212 230 -388 236 -390 6 -3 84 -3 173 -2 l163 3
-231 395 c-126 217 -230 397 -230 400 0 4 17 12 38 19 90 32 203 123 255 207
64 103 88 300 51 425 -40 138 -138 259 -255 316 -120 59 -160 63 -675 63
l-464 0 0 -915z m955 607 c101 -46 154 -124 155 -223 0 -75 -37 -149 -95 -189
-77 -53 -129 -60 -432 -60 l-273 0 0 243 c0 134 3 247 6 250 4 4 138 6 298 4
280 -2 293 -3 341 -25z"/>
<path d="M4487 1213 c-196 -494 -359 -906 -363 -916 -6 -16 5 -17 144 -17
l150 0 63 155 63 155 454 -2 454 -3 61 -152 61 -153 149 0 c137 0 149 1 145
17 -5 16 -336 853 -618 1563 l-98 245 -154 3 -154 2 -357 -897z m682 95 l168
-433 -335 -3 c-184 -1 -337 0 -340 3 -5 5 331 875 336 870 2 -2 79 -198 171
-437z"/>
<path d="M5533 2098 c293 -727 597 -1479 655 -1626 l77 -192 159 2 159 3 367
910 366 910 -160 3 c-87 1 -163 -1 -167 -5 -3 -5 -132 -326 -285 -715 l-279
-707 -116 292 c-64 161 -191 482 -283 715 l-168 422 -165 0 c-128 0 -164 -3
-160 -12z"/>
<path d="M7520 1970 l0 -140 506 0 506 0 -34 -47 c-19 -27 -247 -342 -506
-702 l-472 -654 0 -73 0 -74 715 0 715 0 0 140 0 140 -503 2 -503 3 503 699
503 700 0 73 0 73 -715 0 -715 0 0 -140z"/>
<path d="M9250 1195 l0 -915 628 0 627 0 0 140 0 140 -472 0 -473 0 0 290 0
290 355 0 355 0 0 140 0 140 -355 0 -355 0 0 205 0 205 468 0 c258 0 471 2
473 4 2 2 3 65 1 140 l-3 136 -625 0 -624 0 0 -915z"/>
<path d="M10673 2098 c2 -7 109 -404 236 -883 128 -478 237 -885 242 -902 l11
-33 152 0 153 0 16 58 c9 31 93 342 186 691 94 349 172 635 173 636 2 2 81
-288 177 -643 96 -356 180 -668 188 -695 l14 -47 154 0 154 0 15 53 c8 28 112
419 231 867 119 448 222 836 229 863 l14 47 -162 0 -162 0 -16 -62 c-27 -105
-317 -1201 -326 -1231 -6 -21 -45 116 -182 633 l-174 660 -152 0 c-136 0 -152
-2 -156 -17 -3 -10 -81 -305 -173 -656 -93 -351 -172 -632 -176 -625 -4 7 -79
288 -168 623 -88 336 -165 624 -169 640 l-8 30 -163 3 c-129 2 -162 0 -158
-10z"/>
</g>
</svg>
