<svg width="206" height="65" viewBox="0 0 206 65" fill="none" xmlns="http://www.w3.org/2000/svg">
<g clip-path="url(#clip0_5_2)">
<path d="M199.61 -6.10352e-05C197.045 -6.10352e-05 194.827 1.66387 193.995 4.09043L180.891 44.302H193.232L205.157 7.69561C206.405 3.88244 203.562 -6.10352e-05 199.61 -6.10352e-05Z" fill="white"/>
<path d="M114.126 0.901337H75.4396L71.9037 11.7169H98.9426L64.0694 35.2199C61.4348 37.0225 60.8802 40.7663 62.9601 43.1929C64.7627 45.3421 67.8132 45.7581 70.1705 44.2328L105.321 20.5218L97.6253 44.3021H109.966L120.99 10.3996C122.515 5.68513 119.048 0.901337 114.126 0.901337Z" fill="#00C7B1"/>
<path d="M19.0741 0.901337L5 44.2328H17.3408L27.879 11.7169H53.1153L35.9907 23.3644C33.4948 25.0283 32.6628 28.4255 34.3267 30.9214C35.9907 33.4866 39.3879 34.1106 41.8838 32.4466L63.3068 18.0259C70.9332 12.8955 67.328 0.901337 58.1071 0.970667L19.0741 0.901337Z" fill="white"/>
<path d="M174.582 0.901337H135.618L121.475 44.2328H133.816L144.354 11.7169H169.59L147.266 26.7616L161.063 43.1929C162.865 45.3421 165.916 45.7581 168.273 44.2328C170.908 42.4302 171.462 38.6864 169.382 36.2598L163.281 29.0495L179.713 17.9566C187.408 12.8262 183.803 0.901337 174.582 0.901337Z" fill="white"/>
</g>
<path d="M7.45651 55.0867V62.0928H5.13448V56.9183H3.53308L3.51307 57.729C3.48638 58.7298 3.40631 59.5506 3.27286 60.1911C3.13941 60.8317 2.90587 61.3321 2.57224 61.6924C2.23862 62.0461 1.76154 62.2229 1.141 62.2229C0.827389 62.2229 0.493764 62.1795 0.140122 62.0928L0.260227 60.2011C0.346969 60.2211 0.433712 60.2311 0.520454 60.2311C0.767336 60.2311 0.954166 60.1311 1.08094 59.9309C1.21439 59.7307 1.30447 59.4638 1.35118 59.1302C1.39789 58.7966 1.43125 58.3595 1.45127 57.819L1.54135 55.0867H7.45651ZM15.7001 55.0867L12.8877 60.3613C12.554 60.9885 12.1437 61.4656 11.6566 61.7925C11.1762 62.1195 10.6457 62.2829 10.0652 62.2829C9.61813 62.2829 9.1644 62.1895 8.704 62.0027L9.25448 60.3012C9.54807 60.3813 9.78828 60.4213 9.97511 60.4213C10.1486 60.4213 10.2954 60.3913 10.4155 60.3312C10.5423 60.2712 10.6624 60.1711 10.7758 60.031L8.09347 55.0867H10.5856L11.9769 58.0392L13.4181 55.0867H15.7001ZM22.753 55.0867V62.0928H20.431V59.8508C19.9639 59.9909 19.5402 60.061 19.1598 60.061C18.1323 60.061 17.3483 59.8175 16.8078 59.3304C16.274 58.8433 16.0071 58.1327 16.0071 57.1985V55.0867H18.3291V56.9383C18.3291 57.3653 18.4225 57.6823 18.6094 57.8891C18.7962 58.0893 19.0798 58.1894 19.4601 58.1894C19.8538 58.1894 20.1774 58.136 20.431 58.0292V55.0867H22.753ZM33.7691 55.0867V62.0928H23.9905V55.0867H26.3126V60.2612H27.7238V55.0867H30.0458V60.2612H31.4471V55.0867H33.7691ZM40.8311 60.3112V62.0928H35.006V55.0867H40.701V56.8682H37.328V57.6889H40.2906V59.3904H37.328V60.3112H40.8311ZM47.6144 60.3112V62.0928H41.7893V55.0867H47.4842V56.8682H44.1113V57.6889H47.0739V59.3904H44.1113V60.3112H47.6144ZM58.3491 55.0867V62.0928H56.0271V56.9183H53.8952V62.0928H51.5732V55.0867H58.3491ZM62.961 55.0867C63.6082 55.0867 64.172 55.1934 64.6524 55.4069C65.1329 55.6205 65.5032 55.9274 65.7634 56.3277C66.0236 56.7281 66.1537 57.1952 66.1537 57.729C66.1537 58.2628 66.0236 58.7298 65.7634 59.1302C65.5032 59.5305 65.1329 59.8375 64.6524 60.051C64.172 60.2645 63.6082 60.3713 62.961 60.3713H61.9501V62.0928H59.588V55.0867H62.961ZM62.8108 58.5497C63.1311 58.5497 63.3713 58.4796 63.5315 58.3395C63.6916 58.1927 63.7717 57.9892 63.7717 57.729C63.7717 57.4687 63.6916 57.2686 63.5315 57.1284C63.3713 56.9816 63.1311 56.9082 62.8108 56.9082H61.9501V58.5497H62.8108ZM66.8698 55.0867H69.1918V58.7298L71.6039 55.0867H73.8258V62.0928H71.5038V58.4596L69.1017 62.0928H66.8698V55.0867ZM81.9062 55.0867V62.0928H79.5842V56.9183H77.9828L77.9628 57.729C77.9361 58.7298 77.856 59.5506 77.7226 60.1911C77.5891 60.8317 77.3556 61.3321 77.022 61.6924C76.6884 62.0461 76.2113 62.2229 75.5907 62.2229C75.2771 62.2229 74.9435 62.1795 74.5899 62.0928L74.71 60.2011C74.7967 60.2211 74.8834 60.2311 74.9702 60.2311C75.2171 60.2311 75.4039 60.1311 75.5307 59.9309C75.6641 59.7307 75.7542 59.4638 75.8009 59.1302C75.8476 58.7966 75.881 58.3595 75.901 57.819L75.9911 55.0867H81.9062ZM86.7068 62.2529C85.9528 62.2529 85.2756 62.0961 84.6751 61.7825C84.0745 61.4689 83.6041 61.0352 83.2638 60.4814C82.9235 59.9209 82.7534 59.2903 82.7534 58.5897C82.7534 57.8891 82.9235 57.2619 83.2638 56.7081C83.6041 56.1476 84.0745 55.7105 84.6751 55.3969C85.2756 55.0833 85.9528 54.9265 86.7068 54.9265C87.4608 54.9265 88.1381 55.0833 88.7386 55.3969C89.3391 55.7105 89.8095 56.1476 90.1498 56.7081C90.4901 57.2619 90.6603 57.8891 90.6603 58.5897C90.6603 59.2903 90.4901 59.9209 90.1498 60.4814C89.8095 61.0352 89.3391 61.4689 88.7386 61.7825C88.1381 62.0961 87.4608 62.2529 86.7068 62.2529ZM86.7068 60.3412C87.0004 60.3412 87.264 60.2712 87.4975 60.1311C87.7377 59.9843 87.9279 59.7808 88.068 59.5205C88.2081 59.2536 88.2782 58.9434 88.2782 58.5897C88.2782 58.2361 88.2081 57.9291 88.068 57.6689C87.9279 57.402 87.7377 57.1985 87.4975 57.0584C87.264 56.9116 87.0004 56.8382 86.7068 56.8382C86.4132 56.8382 86.1463 56.9116 85.9061 57.0584C85.6726 57.1985 85.4858 57.402 85.3456 57.6689C85.2055 57.9291 85.1355 58.2361 85.1355 58.5897C85.1355 58.9434 85.2055 59.2536 85.3456 59.5205C85.4858 59.7808 85.6726 59.9843 85.9061 60.1311C86.1463 60.2712 86.4132 60.3412 86.7068 60.3412ZM98.1123 59.5606H97.5017V62.0928H95.1997V59.5606H94.5692L93.4081 62.0928H90.6958L92.5774 58.4096L90.7959 55.0867H93.258L94.5091 57.6989H95.1997V55.0867H97.5017V57.6989H98.1523L99.4234 55.0867H101.886L100.114 58.4096L101.986 62.0928H99.2733L98.1123 59.5606ZM108.292 60.3112V62.0928H102.467V55.0867H108.162V56.8682H104.789V57.6889H107.752V59.3904H104.789V60.3112H108.292ZM116.157 55.0867V62.0928H113.794V59.5105H111.613V62.0928H109.25V55.0867H111.613V57.5688H113.794V55.0867H116.157ZM117.402 55.0867H119.724V58.7298L122.136 55.0867H124.358V62.0928H122.036V58.4596L119.634 62.0928H117.402V55.0867ZM131.428 60.3112V62.0928H125.603V55.0867H131.298V56.8682H127.925V57.6889H130.887V59.3904H127.925V60.3112H131.428ZM140.281 58.4896L142.353 62.0928H139.69L138.349 59.5606H137.689V62.0928H135.327V55.0867H137.689V57.6989H138.409L139.901 55.0867H142.363L140.281 58.4896ZM149.563 62.2529C148.823 62.2529 148.156 62.0994 147.562 61.7925C146.968 61.4789 146.501 61.0452 146.161 60.4914C145.827 59.9309 145.66 59.297 145.66 58.5897C145.66 57.8824 145.827 57.2519 146.161 56.6981C146.501 56.1376 146.968 55.7039 147.562 55.3969C148.156 55.0833 148.823 54.9265 149.563 54.9265C150.244 54.9265 150.851 55.0466 151.385 55.2868C151.919 55.527 152.359 55.874 152.706 56.3277L151.215 57.6589C150.781 57.1118 150.271 56.8382 149.684 56.8382C149.19 56.8382 148.793 56.9983 148.493 57.3186C148.192 57.6322 148.042 58.0559 148.042 58.5897C148.042 59.1235 148.192 59.5506 148.493 59.8708C148.793 60.1844 149.19 60.3412 149.684 60.3412C150.271 60.3412 150.781 60.0677 151.215 59.5205L152.706 60.8517C152.359 61.3054 151.919 61.6524 151.385 61.8926C150.851 62.1328 150.244 62.2529 149.563 62.2529ZM160.196 55.0867V62.0928H157.874V56.9183H155.742V62.0928H153.42V55.0867H160.196ZM164.998 62.2529C164.244 62.2529 163.567 62.0961 162.966 61.7825C162.366 61.4689 161.895 61.0352 161.555 60.4814C161.214 59.9209 161.044 59.2903 161.044 58.5897C161.044 57.8891 161.214 57.2619 161.555 56.7081C161.895 56.1476 162.366 55.7105 162.966 55.3969C163.567 55.0833 164.244 54.9265 164.998 54.9265C165.752 54.9265 166.429 55.0833 167.03 55.3969C167.63 55.7105 168.101 56.1476 168.441 56.7081C168.781 57.2619 168.951 57.8891 168.951 58.5897C168.951 59.2903 168.781 59.9209 168.441 60.4814C168.101 61.0352 167.63 61.4689 167.03 61.7825C166.429 62.0961 165.752 62.2529 164.998 62.2529ZM164.998 60.3412C165.291 60.3412 165.555 60.2712 165.788 60.1311C166.029 59.9843 166.219 59.7808 166.359 59.5205C166.499 59.2536 166.569 58.9434 166.569 58.5897C166.569 58.2361 166.499 57.9291 166.359 57.6689C166.219 57.402 166.029 57.1985 165.788 57.0584C165.555 56.9116 165.291 56.8382 164.998 56.8382C164.704 56.8382 164.437 56.9116 164.197 57.0584C163.964 57.1985 163.777 57.402 163.637 57.6689C163.496 57.9291 163.426 58.2361 163.426 58.5897C163.426 58.9434 163.496 59.2536 163.637 59.5205C163.777 59.7808 163.964 59.9843 164.197 60.1311C164.437 60.2712 164.704 60.3412 164.998 60.3412ZM173.174 55.0867C173.822 55.0867 174.385 55.1934 174.866 55.4069C175.346 55.6205 175.717 55.9274 175.977 56.3277C176.237 56.7281 176.367 57.1952 176.367 57.729C176.367 58.2628 176.237 58.7298 175.977 59.1302C175.717 59.5305 175.346 59.8375 174.866 60.051C174.385 60.2645 173.822 60.3713 173.174 60.3713H172.163V62.0928H169.801V55.0867H173.174ZM173.024 58.5497C173.344 58.5497 173.585 58.4796 173.745 58.3395C173.905 58.1927 173.985 57.9892 173.985 57.729C173.985 57.4687 173.905 57.2686 173.745 57.1284C173.585 56.9816 173.344 56.9082 173.024 56.9082H172.163V58.5497H173.024ZM182.892 56.9183H180.84V62.0928H178.518V56.9183H176.466V55.0867H182.892V56.9183ZM190.374 55.0867L187.562 60.3613C187.228 60.9885 186.818 61.4656 186.33 61.7925C185.85 62.1195 185.32 62.2829 184.739 62.2829C184.292 62.2829 183.838 62.1895 183.378 62.0027L183.928 60.3012C184.222 60.3813 184.462 60.4213 184.649 60.4213C184.823 60.4213 184.969 60.3913 185.089 60.3312C185.216 60.2712 185.336 60.1711 185.45 60.031L182.767 55.0867H185.26L186.651 58.0392L188.092 55.0867H190.374Z" fill="white"/>
<path d="M195.163 55.4642L195.982 55.899L195.393 56.8539L194.558 56.3424L194.583 57.2546H193.441L193.466 56.3424L192.631 56.8539L192.051 55.899L192.87 55.4642L192.051 55.0293L192.631 54.0744L193.466 54.586L193.441 53.6737H194.583L194.558 54.586L195.393 54.0744L195.982 55.0293L195.163 55.4642Z" fill="white"/>
<defs>
<clipPath id="clip0_5_2">
<rect width="200.434" height="45.2034" fill="white" transform="translate(5)"/>
</clipPath>
</defs>
</svg>
