<svg width="565" height="95" viewBox="0 0 565 95" fill="none" xmlns="http://www.w3.org/2000/svg">
<path d="M8.18969 85.16C8.84035 85.384 9.34702 85.736 9.70969 86.216C10.083 86.6853 10.2697 87.2347 10.2697 87.864C10.2697 88.5467 10.0457 89.1387 9.59769 89.64C9.14969 90.1413 8.54169 90.5253 7.77369 90.792C7.01635 91.0587 6.18435 91.192 5.27769 91.192C4.50969 91.192 3.74169 91.096 2.97369 90.904C2.21635 90.712 1.49635 90.4187 0.813688 90.024L1.61369 88.168C2.10435 88.4667 2.64302 88.696 3.22969 88.856C3.82702 89.0053 4.40835 89.08 4.97369 89.08C5.74169 89.08 6.37635 88.9413 6.87769 88.664C7.38969 88.3867 7.64569 87.9973 7.64569 87.496C7.64569 87.08 7.46969 86.7653 7.11769 86.552C6.77635 86.3387 6.30702 86.232 5.70969 86.232H2.97369V84.28H5.51769C6.04035 84.28 6.44569 84.1733 6.73369 83.96C7.03235 83.7467 7.18169 83.4533 7.18169 83.08C7.18169 82.6427 6.96835 82.3013 6.54169 82.056C6.12569 81.8107 5.58702 81.688 4.92569 81.688C4.43502 81.688 3.92835 81.7573 3.40569 81.896C2.88302 82.024 2.38702 82.2213 1.91769 82.488L1.13369 80.472C2.31769 79.864 3.59769 79.56 4.97369 79.56C5.84835 79.56 6.65369 79.688 7.38969 79.944C8.12569 80.2 8.71235 80.5733 9.14969 81.064C9.58702 81.5547 9.80569 82.1253 9.80569 82.776C9.80569 83.3093 9.66169 83.784 9.37369 84.2C9.08569 84.616 8.69102 84.936 8.18969 85.16ZM19.9057 88.6H14.7057L13.7137 91H11.0577L16.0497 79.8H18.6097L23.6177 91H20.8977L19.9057 88.6ZM19.0897 86.632L17.3137 82.344L15.5377 86.632H19.0897ZM29.9509 79.8C30.9429 79.8 31.8016 79.9653 32.5269 80.296C33.2629 80.6267 33.8283 81.096 34.2229 81.704C34.6176 82.312 34.8149 83.032 34.8149 83.864C34.8149 84.6853 34.6176 85.4053 34.2229 86.024C33.8283 86.632 33.2629 87.1013 32.5269 87.432C31.8016 87.752 30.9429 87.912 29.9509 87.912H27.6949V91H25.1029V79.8H29.9509ZM29.8069 85.8C30.5856 85.8 31.1776 85.6347 31.5829 85.304C31.9883 84.9627 32.1909 84.4827 32.1909 83.864C32.1909 83.2347 31.9883 82.7547 31.5829 82.424C31.1776 82.0827 30.5856 81.912 29.8069 81.912H27.6949V85.8H29.8069ZM45.1968 88.92V91H36.5248V79.8H44.9888V81.88H39.1008V84.312H44.3008V86.328H39.1008V88.92H45.1968ZM55.1784 81.912H49.8504L49.8664 91H47.2904V79.8H55.1944L55.1784 81.912ZM56.7748 79.8H59.3508V87.096L64.6948 79.8H67.1268V91H64.5668V83.72L59.2228 91H56.7748V79.8ZM75.2114 91.192C74.0701 91.192 73.0354 90.9467 72.1074 90.456C71.1901 89.9547 70.4648 89.2667 69.9314 88.392C69.4088 87.5067 69.1474 86.5093 69.1474 85.4C69.1474 84.2907 69.4088 83.2987 69.9314 82.424C70.4648 81.5387 71.1901 80.8507 72.1074 80.36C73.0354 79.8587 74.0754 79.608 75.2274 79.608C76.1981 79.608 77.0728 79.7787 77.8514 80.12C78.6408 80.4613 79.3021 80.952 79.8354 81.592L78.1714 83.128C77.4141 82.2533 76.4754 81.816 75.3554 81.816C74.6621 81.816 74.0434 81.9707 73.4994 82.28C72.9554 82.5787 72.5288 83 72.2194 83.544C71.9208 84.088 71.7714 84.7067 71.7714 85.4C71.7714 86.0933 71.9208 86.712 72.2194 87.256C72.5288 87.8 72.9554 88.2267 73.4994 88.536C74.0434 88.8347 74.6621 88.984 75.3554 88.984C76.4754 88.984 77.4141 88.5413 78.1714 87.656L79.8354 89.192C79.3021 89.8427 78.6408 90.3387 77.8514 90.68C77.0621 91.0213 76.1821 91.192 75.2114 91.192ZM89.9754 81.912H86.3914V91H83.8314V81.912H80.2634V79.8H89.9754V81.912ZM96.4509 79.8C97.4429 79.8 98.3016 79.9653 99.0269 80.296C99.7629 80.6267 100.328 81.096 100.723 81.704C101.118 82.312 101.315 83.032 101.315 83.864C101.315 84.6853 101.118 85.4053 100.723 86.024C100.328 86.632 99.7629 87.1013 99.0269 87.432C98.3016 87.752 97.4429 87.912 96.4509 87.912H94.1949V91H91.6029V79.8H96.4509ZM96.3069 85.8C97.0856 85.8 97.6776 85.6347 98.0829 85.304C98.4883 84.9627 98.6909 84.4827 98.6909 83.864C98.6909 83.2347 98.4883 82.7547 98.0829 82.424C97.6776 82.0827 97.0856 81.912 96.3069 81.912H94.1949V85.8H96.3069ZM103.025 79.8H105.601V87.096L110.945 79.8H113.377V91H110.817V83.72L105.473 91H103.025V79.8ZM121.013 79.8C122.005 79.8 122.864 79.9653 123.589 80.296C124.325 80.6267 124.891 81.096 125.285 81.704C125.68 82.312 125.877 83.032 125.877 83.864C125.877 84.6853 125.68 85.4053 125.285 86.024C124.891 86.632 124.325 87.1013 123.589 87.432C122.864 87.752 122.005 87.912 121.013 87.912H118.757V91H116.165V79.8H121.013ZM120.869 85.8C121.648 85.8 122.24 85.6347 122.645 85.304C123.051 84.9627 123.253 84.4827 123.253 83.864C123.253 83.2347 123.051 82.7547 122.645 82.424C122.24 82.0827 121.648 81.912 120.869 81.912H118.757V85.8H120.869ZM137.449 79.8L132.681 88.664C132.223 89.5173 131.668 90.1627 131.017 90.6C130.377 91.0373 129.679 91.256 128.921 91.256C128.335 91.256 127.727 91.128 127.097 90.872L127.721 88.904C128.169 89.0427 128.543 89.112 128.841 89.112C129.161 89.112 129.449 89.0373 129.705 88.888C129.961 88.728 130.196 88.4827 130.409 88.152L130.505 88.024L126.089 79.8H128.857L131.833 85.816L134.905 79.8H137.449ZM138.681 79.8H141.257V87.096L146.601 79.8H149.033V91H146.473V83.72L141.129 91H138.681V79.8ZM143.849 79.08C141.801 79.08 140.766 78.264 140.745 76.632H142.521C142.542 77.4107 142.985 77.8 143.849 77.8C144.276 77.8 144.601 77.704 144.825 77.512C145.049 77.3093 145.166 77.016 145.177 76.632H146.953C146.942 77.432 146.681 78.04 146.169 78.456C145.657 78.872 144.884 79.08 143.849 79.08ZM157.118 91.192C155.976 91.192 154.942 90.9467 154.014 90.456C153.096 89.9547 152.371 89.2667 151.838 88.392C151.315 87.5067 151.054 86.5093 151.054 85.4C151.054 84.2907 151.315 83.2987 151.838 82.424C152.371 81.5387 153.096 80.8507 154.014 80.36C154.942 79.8587 155.982 79.608 157.134 79.608C158.104 79.608 158.979 79.7787 159.758 80.12C160.547 80.4613 161.208 80.952 161.742 81.592L160.078 83.128C159.32 82.2533 158.382 81.816 157.262 81.816C156.568 81.816 155.95 81.9707 155.406 82.28C154.862 82.5787 154.435 83 154.126 83.544C153.827 84.088 153.678 84.7067 153.678 85.4C153.678 86.0933 153.827 86.712 154.126 87.256C154.435 87.8 154.862 88.2267 155.406 88.536C155.95 88.8347 156.568 88.984 157.262 88.984C158.382 88.984 159.32 88.5413 160.078 87.656L161.742 89.192C161.208 89.8427 160.547 90.3387 159.758 90.68C158.968 91.0213 158.088 91.192 157.118 91.192ZM172.156 79.8V91H169.596V88.024H167.228L165.244 91H162.508L164.844 87.624C164.087 87.3147 163.506 86.8507 163.1 86.232C162.695 85.6027 162.492 84.8507 162.492 83.976C162.492 83.112 162.69 82.3707 163.084 81.752C163.479 81.1227 164.039 80.6427 164.764 80.312C165.49 79.9707 166.343 79.8 167.324 79.8H172.156ZM167.388 81.912C166.652 81.912 166.087 82.0827 165.692 82.424C165.308 82.7653 165.116 83.272 165.116 83.944C165.116 84.5947 165.303 85.096 165.676 85.448C166.05 85.8 166.599 85.976 167.324 85.976H169.596V81.912H167.388Z" fill="white"/>
<path d="M208.908 79.8V91H211.484V81.912H216.54V91H219.116V79.8H208.908ZM227.236 91.192C230.756 91.192 233.364 88.744 233.364 85.4C233.364 82.056 230.756 79.608 227.236 79.608C223.7 79.608 221.108 82.072 221.108 85.4C221.108 88.728 223.7 91.192 227.236 91.192ZM227.236 88.984C225.236 88.984 223.732 87.528 223.732 85.4C223.732 83.272 225.236 81.816 227.236 81.816C229.236 81.816 230.74 83.272 230.74 85.4C230.74 87.528 229.236 88.984 227.236 88.984ZM235.361 79.8V91H237.937V81.912H242.993V91H245.569V79.8H235.361ZM253.689 91.192C257.209 91.192 259.817 88.744 259.817 85.4C259.817 82.056 257.209 79.608 253.689 79.608C250.153 79.608 247.561 82.072 247.561 85.4C247.561 88.728 250.153 91.192 253.689 91.192ZM253.689 88.984C251.689 88.984 250.185 87.528 250.185 85.4C250.185 83.272 251.689 81.816 253.689 81.816C255.689 81.816 257.193 83.272 257.193 85.4C257.193 87.528 255.689 88.984 253.689 88.984ZM262.877 79.8L262.717 84.344C262.605 87.208 262.269 88.872 260.957 88.872C260.797 88.872 260.653 88.856 260.493 88.808L260.333 91C260.813 91.112 261.229 91.176 261.613 91.176C264.237 91.176 264.861 88.648 265.005 84.248L265.085 81.912H268.925V91H271.485V79.8H262.877ZM281.963 79.8V84.216H276.875V79.8H274.283V91H276.875V86.408H281.963V91H284.555V79.8H281.963ZM287.361 91H289.809L295.153 83.72V91H297.713V79.8H295.281L289.937 87.096V79.8H287.361V91ZM305.033 91H310.345C313.225 91 314.873 89.704 314.873 87.464C314.873 85.32 313.417 84.168 310.713 84.168H307.609V81.864H314.073V79.8H305.033V91ZM307.609 89.08V86.072H310.201C311.561 86.072 312.249 86.552 312.249 87.544C312.249 88.552 311.529 89.08 310.201 89.08H307.609ZM325.327 91H328.047L323.039 79.8H320.479L315.487 91H318.143L319.135 88.6H324.335L325.327 91ZM319.967 86.632L321.743 82.344L323.519 86.632H319.967ZM331.002 79.8L330.842 84.344C330.73 87.208 330.394 88.872 329.082 88.872C328.922 88.872 328.778 88.856 328.618 88.808L328.458 91C328.938 91.112 329.354 91.176 329.738 91.176C332.362 91.176 332.986 88.648 333.13 84.248L333.21 81.912H337.05V91H339.61V79.8H331.002ZM350.984 91H353.704L348.696 79.8H346.136L341.144 91H343.8L344.792 88.6H349.992L350.984 91ZM345.624 86.632L347.4 82.344L349.176 86.632H345.624ZM362.869 79.8V84.216H357.781V79.8H355.189V91H357.781V86.408H362.869V91H365.461V79.8H362.869ZM373.563 91.192C375.515 91.192 377.131 90.488 378.187 89.192L376.523 87.656C375.771 88.536 374.827 88.984 373.707 88.984C371.611 88.984 370.123 87.512 370.123 85.4C370.123 83.288 371.611 81.816 373.707 81.816C374.827 81.816 375.771 82.264 376.523 83.128L378.187 81.592C377.131 80.312 375.515 79.608 373.579 79.608C370.091 79.608 367.499 82.024 367.499 85.4C367.499 88.776 370.091 91.192 373.563 91.192Z" fill="white"/>
<path d="M413.474 79.8V91H416.05V81.912H421.106V91H423.682V79.8H413.474ZM431.802 91.192C435.322 91.192 437.93 88.744 437.93 85.4C437.93 82.056 435.322 79.608 431.802 79.608C428.266 79.608 425.674 82.072 425.674 85.4C425.674 88.728 428.266 91.192 431.802 91.192ZM431.802 88.984C429.802 88.984 428.298 87.528 428.298 85.4C428.298 83.272 429.802 81.816 431.802 81.816C433.802 81.816 435.306 83.272 435.306 85.4C435.306 87.528 433.802 88.984 431.802 88.984ZM440.991 79.8L440.831 84.344C440.719 87.208 440.383 88.872 439.071 88.872C438.911 88.872 438.767 88.856 438.607 88.808L438.447 91C438.927 91.112 439.343 91.176 439.727 91.176C442.351 91.176 442.975 88.648 443.119 84.248L443.199 81.912H447.039V91H449.599V79.8H440.991ZM459.964 79.8L456.892 85.816L453.916 79.8H451.148L455.564 88.024L455.468 88.152C455.036 88.824 454.54 89.112 453.9 89.112C453.564 89.112 453.196 89.032 452.78 88.904L452.156 90.872C452.78 91.128 453.388 91.256 453.98 91.256C455.484 91.256 456.812 90.392 457.74 88.664L462.508 79.8H459.964ZM470.614 79.8V84.84C469.894 85.16 469.062 85.336 468.214 85.336C466.662 85.336 465.814 84.552 465.814 83.016V79.8H463.254V83.304C463.254 86.008 464.902 87.496 467.91 87.496C468.742 87.496 469.638 87.32 470.614 86.968V91H473.174V79.8H470.614ZM475.958 91H478.406L483.75 83.72V91H486.31V79.8H483.878L478.534 87.096V79.8H475.958V91ZM506.894 85.368C506.894 82.44 504.814 80.68 501.038 80.456V79.32H498.654V80.472C494.862 80.696 492.782 82.424 492.782 85.368C492.782 88.296 494.862 90.04 498.654 90.264V91.496H501.038V90.28C504.83 90.088 506.894 88.312 506.894 85.368ZM501.038 88.248V82.504C503.262 82.696 504.398 83.624 504.398 85.352C504.398 87.096 503.294 88.04 501.038 88.248ZM495.294 85.368C495.294 83.624 496.382 82.712 498.654 82.504V88.248C496.494 88.024 495.294 87.096 495.294 85.368ZM513.681 79.8H508.833V91H511.425V87.912H513.681C516.673 87.912 518.545 86.36 518.545 83.864C518.545 81.352 516.673 79.8 513.681 79.8ZM513.537 85.8H511.425V81.912H513.537C515.121 81.912 515.921 82.632 515.921 83.864C515.921 85.08 515.121 85.8 513.537 85.8ZM520.255 91H522.703L528.047 83.72V91H530.607V79.8H528.175L522.831 87.096V79.8H520.255V91ZM533.396 91H538.708C541.588 91 543.236 89.704 543.236 87.464C543.236 85.32 541.78 84.168 539.076 84.168H535.972V81.864H542.436V79.8H533.396V91ZM535.972 89.08V86.072H538.564C539.924 86.072 540.612 86.552 540.612 87.544C540.612 88.552 539.892 89.08 538.564 89.08H535.972ZM547.784 88.92V86.328H552.984V84.312H547.784V81.88H553.672V79.8H545.208V91H553.88V88.92H547.784ZM564.534 79.8H554.822V81.912H558.39V91H560.95V81.912H564.534V79.8Z" fill="white"/>
<rect x="170" y="15.8284" width="4" height="20" transform="rotate(-45 170 15.8284)" fill="#753BBD"/>
<rect x="184.142" y="24.3137" width="4" height="20" transform="rotate(45 184.142 24.3137)" fill="#753BBD"/>
<rect x="190" y="15.8284" width="4" height="20" transform="rotate(-45 190 15.8284)" fill="#753BBD"/>
<rect x="204.142" y="24.3137" width="4" height="20" transform="rotate(45 204.142 24.3137)" fill="#753BBD"/>
<rect x="371" y="15.8284" width="4" height="20" transform="rotate(-45 371 15.8284)" fill="#753BBD"/>
<rect x="385.142" y="24.3137" width="4" height="20" transform="rotate(45 385.142 24.3137)" fill="#753BBD"/>
<rect x="391" y="15.8284" width="4" height="20" transform="rotate(-45 391 15.8284)" fill="#753BBD"/>
<rect x="405.142" y="24.3137" width="4" height="20" transform="rotate(45 405.142 24.3137)" fill="#753BBD"/>
<path d="M59.3491 5.75258C60.4821 2.31925 63.6897 0 67.3052 0H121.413C127.121 0 131.158 5.58316 129.369 11.0036L116.651 49.5428C115.518 52.9761 112.31 55.2953 108.695 55.2953H54.5873C48.8793 55.2953 44.8424 49.7122 46.6312 44.2918L59.3491 5.75258Z" fill="#00C7B1"/>
<path d="M87.2755 9C97.8835 9 106.551 17.6244 106.551 28.2755C106.551 38.8835 97.9266 47.551 87.2755 47.551C76.6244 47.551 68 38.8835 68 28.2755C68 17.6675 76.6675 9 87.2755 9ZM87.2755 18.8749C83.9983 18.8749 81.2816 21.5485 81.2816 24.8689C81.2816 28.1461 83.9551 30.8628 87.2755 30.8628C90.5959 30.8628 93.2695 28.1461 93.2695 24.8257C93.2695 21.5485 90.5528 18.8749 87.2755 18.8749ZM87.2755 43.5838C90.9409 43.5838 94.3044 42.2901 96.9348 40.134C94.175 37.1155 90.8115 35.4337 87.2755 35.4337C83.7395 35.4337 80.3329 37.0724 77.6162 40.134C80.2467 42.2901 83.6102 43.5838 87.2755 43.5838Z" fill="black"/>
<path d="M260.349 5.75258C261.482 2.31925 264.69 0 268.305 0H322.413C328.121 0 332.158 5.58316 330.369 11.0036L317.651 49.5428C316.518 52.9761 313.31 55.2953 309.695 55.2953H255.587C249.879 55.2953 245.842 49.7122 247.631 44.2918L260.349 5.75258Z" fill="#00C7B1"/>
<circle cx="289.5" cy="27.5" r="19.5" fill="black"/>
<rect x="281.352" y="21.4562" width="22.5278" height="13.2517" rx="2" transform="rotate(5.85404 281.352 21.4562)" fill="#00C7B1"/>
<rect x="272.989" y="22.6477" width="25.1709" height="16.2678" rx="3" transform="rotate(-12.7244 272.989 22.6477)" fill="black"/>
<rect x="273" y="22.962" width="22.5278" height="13.2517" rx="2" transform="rotate(-12.7244 273 22.962)" fill="#00C7B1"/>
<circle r="3.09108" transform="matrix(-0.999738 0.022888 0.022888 0.999738 285.494 27.1513)" fill="black"/>
<path d="M277.803 28.9644L279.904 28.5021" stroke="black" stroke-width="2" stroke-linecap="round"/>
<path d="M291.223 26.0246L293.324 25.5624" stroke="black" stroke-width="2" stroke-linecap="round"/>
<path d="M461.349 5.75258C462.482 2.31925 465.69 0 469.305 0H523.413C529.121 0 533.158 5.58316 531.369 11.0036L518.651 49.5428C517.518 52.9761 514.31 55.2953 510.695 55.2953H456.587C450.879 55.2953 446.842 49.7122 448.631 44.2918L461.349 5.75258Z" fill="#00C7B1"/>
<circle cx="490.5" cy="27.5" r="19.5" fill="black"/>
<rect x="482" y="28.5023" width="18" height="9" rx="2" fill="#00C7B1"/>
<rect x="480" y="22" width="22" height="5" rx="2" fill="#00C7B1"/>
<path d="M491 20.5023V39.0023" stroke="black" stroke-width="2" stroke-linecap="round"/>
<path d="M486.486 19.5021L491.44 19.5022C490.706 18.2239 487.887 15.8584 485.555 16.0067C484.289 16.0872 483.692 17.4157 484.158 18.337C484.747 19.5021 485.851 19.5022 486.486 19.5021Z" stroke="#00C7B1" stroke-width="2" stroke-linecap="round" stroke-linejoin="round"/>
<path d="M495.502 19.5021L490.525 19.5022C491.262 18.2239 494.095 15.8584 496.437 16.0067C497.71 16.0872 498.31 17.4157 497.842 18.337C497.25 19.5021 496.141 19.5022 495.502 19.5021Z" stroke="#00C7B1" stroke-width="2" stroke-linecap="round" stroke-linejoin="round"/>
</svg>
